<svg width="243" height="76" viewBox="0 0 243 76" fill="none" xmlns="http://www.w3.org/2000/svg">
<path d="M94.1519 0H106.461L116.463 1.74371L126.464 6.10297L140.312 14.8215L163.392 18.3089L172.624 20.9245L179.548 25.2838L181.856 27.8993L181.087 29.643L174.163 26.1556L165.7 23.54L158.776 22.6682L94.9213 21.7963L63.3784 20.0526L46.453 17.4371L39.529 14.8215V13.9497L54.9157 11.3341L76.4572 2.61556L84.1506 0.871854L94.1519 0Z" fill="#F8D269"/>
<path d="M88.7728 3.29367H110.524L118.292 4.9405L130.721 11.5278L135.382 15.6449V16.4683H117.515L81.0046 15.6449L68.5754 14.8215L70.129 11.5278L74.79 7.41075L84.1119 4.11709L88.7728 3.29367Z" fill="white"/>
<path d="M42.4336 18.1152L53.1841 19.8718L70.8457 23.385L90.8109 26.02H132.277L148.403 24.2634H158.386L168.368 26.02L176.047 28.6549L173.743 29.5332L163.761 27.7766H153.01L128.438 31.2899H90.8109L71.6136 28.6549L54.7199 24.2634L42.4336 18.9935V18.1152Z" fill="#F8D577"/>
<path d="M10.5675 63.6575C10.4798 63.2891 10.3509 62.9645 10.1807 62.6838C10.0105 62.3972 9.80162 62.1545 9.55406 61.9557C9.30651 61.7569 9.02285 61.6077 8.70309 61.5083C8.38333 61.4031 8.03263 61.3504 7.65099 61.3504C6.88253 61.3504 6.21723 61.561 5.65508 61.982C5.09808 62.4031 4.66744 63.0171 4.36315 63.8242C4.05886 64.6254 3.90672 65.5991 3.90672 66.7453C3.90672 67.8974 4.05371 68.8799 4.34768 69.6928C4.64165 70.5057 5.06713 71.1256 5.62413 71.5525C6.18113 71.9794 6.85675 72.1929 7.65099 72.1929C8.35239 72.1929 8.94549 72.0642 9.43028 71.8069C9.92024 71.5437 10.2916 71.1724 10.5443 70.6928C10.797 70.2133 10.9233 69.6489 10.9233 68.9998L11.6351 69.0963H7.7825V65.9295H14.6135V68.3068C14.6135 69.915 14.3118 71.2923 13.7083 72.4385C13.1101 73.5847 12.2849 74.4649 11.2328 75.0789C10.1858 75.693 8.98159 76 7.62004 76C6.10893 76 4.7809 75.6286 3.63596 74.8859C2.49102 74.1432 1.59879 73.0847 0.959274 71.7104C0.319758 70.3302 0 68.6928 0 66.798C0 65.3242 0.193402 64.0172 0.580206 62.8768C0.96701 61.7306 1.50596 60.7598 2.19705 59.9644C2.89329 59.1691 3.69785 58.5667 4.6107 58.1573C5.52872 57.748 6.51636 57.5433 7.57362 57.5433C8.49164 57.5433 9.34519 57.6924 10.1343 57.9907C10.9285 58.2889 11.6299 58.71 12.2385 59.2539C12.8522 59.7977 13.3499 60.444 13.7315 61.1925C14.1132 61.9411 14.3504 62.7627 14.4433 63.6575H10.5675Z" fill="white"/>
<path d="M16.8705 75.7544V57.7889H23.4152C24.6014 57.7889 25.6251 58.0316 26.4864 58.517C27.3529 58.9966 28.0207 59.6866 28.4901 60.5872C28.9594 61.482 29.194 62.5434 29.194 63.7716C29.194 65.0172 28.9542 66.0757 28.4746 66.9471C27.9949 67.8126 27.3142 68.4735 26.4323 68.9296C25.5503 69.3799 24.506 69.6051 23.2991 69.6051H19.1603V66.1839H22.5874C23.1651 66.1839 23.6473 66.0991 24.0341 65.9295C24.426 65.7541 24.7226 65.4909 24.9237 65.14C25.1249 64.7833 25.2254 64.3271 25.2254 63.7716C25.2254 63.216 25.1249 62.7569 24.9237 62.3943C24.7226 62.0259 24.426 61.751 24.0341 61.5697C23.6421 61.3826 23.1599 61.289 22.5874 61.289H20.6998V75.7544H16.8705ZM25.7902 67.5436L29.7356 75.7544H25.5581L21.69 67.5436H25.7902Z" fill="white"/>
<path d="M34.7215 75.7544H30.6059L35.9515 57.7889H41.0496L46.3952 75.7544H42.2796L38.5586 62.3154H38.4348L34.7215 75.7544ZM34.1722 68.684H42.7747V71.9823H34.1722V68.684Z" fill="white"/>
<path d="M61.7378 64.2979H57.8698C57.8182 63.8476 57.7125 63.4411 57.5526 63.0785C57.3927 62.716 57.1813 62.406 56.9182 62.1487C56.6552 61.8914 56.3432 61.6955 55.9822 61.561C55.6263 61.4206 55.2318 61.3504 54.7985 61.3504C54.0301 61.3504 53.3674 61.5639 52.8104 61.9908C52.2585 62.4177 51.833 63.0347 51.5339 63.8417C51.2399 64.6488 51.093 65.6254 51.093 66.7717C51.093 67.9647 51.2425 68.9647 51.5416 69.7717C51.8459 70.5729 52.2714 71.1782 52.8181 71.5876C53.3699 71.9911 54.0224 72.1929 54.7753 72.1929C55.1982 72.1929 55.5825 72.1315 55.928 72.0087C56.2787 71.8858 56.5856 71.7075 56.8486 71.4736C57.1168 71.2338 57.336 70.9443 57.5062 70.6051C57.6815 70.2601 57.8027 69.8712 57.8698 69.4384L61.7378 69.4647C61.6708 70.2601 61.467 71.0437 61.1267 71.8157C60.7914 72.5876 60.3298 73.2923 59.7419 73.9298C59.154 74.5614 58.4371 75.0643 57.5913 75.4386C56.7506 75.8129 55.7862 76 54.698 76C53.2642 76 51.98 75.6433 50.8454 74.9298C49.7159 74.2105 48.8237 73.1637 48.1687 71.7893C47.5137 70.415 47.1862 68.7425 47.1862 66.7717C47.1862 64.795 47.5189 63.1195 48.1842 61.7452C48.8495 60.3709 49.7495 59.327 50.8841 58.6135C52.0187 57.9 53.29 57.5433 54.698 57.5433C55.6572 57.5433 56.5443 57.6953 57.3592 57.9994C58.174 58.2977 58.8909 58.7363 59.5098 59.3153C60.1287 59.8884 60.6315 60.5931 61.0183 61.4294C61.4051 62.2657 61.645 63.2218 61.7378 64.2979Z" fill="white"/>
<path d="M63.929 75.7544V57.7889H74.9762V61.3153H67.7584V64.9997H74.4114V68.5349H67.7584V72.228H74.9762V75.7544H63.929Z" fill="white"/>
<path d="M85.4818 75.7544H81.3662L86.7118 57.7889H91.8099L97.1555 75.7544H93.0399L89.3189 62.3154H89.1951L85.4818 75.7544ZM84.9325 68.684H93.535V71.9823H84.9325V68.684Z" fill="white"/>
<path d="M108.446 57.7889H112.268V69.377C112.268 70.7162 111.987 71.8829 111.425 72.8771C110.863 73.8654 110.079 74.6315 109.073 75.1754C108.067 75.7134 106.899 75.9825 105.569 75.9825C104.222 75.9825 103.047 75.7134 102.041 75.1754C101.035 74.6315 100.254 73.8654 99.6968 72.8771C99.1398 71.8829 98.8613 70.7162 98.8613 69.377V57.7889H102.691V68.9998C102.691 69.6197 102.809 70.1723 103.047 70.6577C103.289 71.1431 103.627 71.5233 104.06 71.7981C104.493 72.073 104.996 72.2104 105.569 72.2104C106.141 72.2104 106.641 72.073 107.069 71.7981C107.503 71.5233 107.84 71.1431 108.083 70.6577C108.325 70.1723 108.446 69.6197 108.446 68.9998V57.7889Z" fill="white"/>
<path d="M114.15 61.3153V57.7889H127.541V61.3153H122.737V75.7544H118.962V61.3153H114.15Z" fill="white"/>
<path d="M143.642 66.7717C143.642 68.7483 143.306 70.4238 142.636 71.7981C141.965 73.1724 141.058 74.2163 139.913 74.9298C138.773 75.6433 137.494 76 136.076 76C134.652 76 133.371 75.6403 132.231 74.921C131.091 74.2017 130.186 73.1578 129.516 71.7893C128.85 70.415 128.518 68.7425 128.518 66.7717C128.518 64.795 128.85 63.1195 129.516 61.7452C130.186 60.3709 131.091 59.327 132.231 58.6135C133.371 57.9 134.652 57.5433 136.076 57.5433C137.494 57.5433 138.773 57.9 139.913 58.6135C141.058 59.327 141.965 60.3709 142.636 61.7452C143.306 63.1195 143.642 64.795 143.642 66.7717ZM139.727 66.7717C139.727 65.602 139.58 64.6137 139.286 63.8066C138.997 62.9996 138.58 62.3885 138.033 61.9733C137.491 61.558 136.839 61.3504 136.076 61.3504C135.318 61.3504 134.665 61.558 134.119 61.9733C133.572 62.3885 133.152 62.9996 132.858 63.8066C132.569 64.6137 132.424 65.602 132.424 66.7717C132.424 67.9413 132.569 68.9296 132.858 69.7366C133.152 70.5437 133.572 71.1548 134.119 71.57C134.665 71.9853 135.318 72.1929 136.076 72.1929C136.839 72.1929 137.491 71.9853 138.033 71.57C138.58 71.1548 138.997 70.5437 139.286 69.7366C139.58 68.9296 139.727 67.9413 139.727 66.7717Z" fill="white"/>
<path d="M159.122 63.175C159.07 62.5317 158.84 62.0317 158.433 61.675C158.031 61.3124 157.456 61.1311 156.708 61.1311C156.213 61.1311 155.8 61.2042 155.47 61.3504C155.14 61.4966 154.892 61.6984 154.727 61.9557C154.562 62.2072 154.477 62.4967 154.472 62.8242C154.462 63.0932 154.508 63.33 154.611 63.5347C154.72 63.7394 154.874 63.9207 155.076 64.0786C155.282 64.2306 155.529 64.3651 155.818 64.4821C156.107 64.5991 156.432 64.7014 156.793 64.7891L158.155 65.14C158.938 65.333 159.63 65.5903 160.228 65.912C160.831 66.2336 161.337 66.6167 161.744 67.0611C162.157 67.5056 162.469 68.0173 162.68 68.5963C162.892 69.1752 163 69.8244 163.005 70.5437C163 71.6782 162.747 72.6519 162.247 73.4648C161.747 74.2777 161.027 74.9006 160.089 75.3333C159.155 75.7661 158.028 75.9825 156.708 75.9825C155.382 75.9825 154.227 75.7573 153.242 75.307C152.257 74.8567 151.491 74.1725 150.944 73.2543C150.398 72.3361 150.117 71.1753 150.101 69.7717H153.768C153.799 70.3507 153.936 70.8332 154.178 71.2192C154.421 71.6051 154.753 71.8975 155.176 72.0964C155.604 72.2952 156.099 72.3946 156.661 72.3946C157.177 72.3946 157.616 72.3157 157.977 72.1578C158.343 71.9999 158.624 71.7806 158.82 71.4999C159.016 71.2192 159.116 70.8975 159.122 70.5349C159.116 70.1957 159.024 69.9062 158.843 69.6665C158.663 69.4209 158.384 69.2103 158.008 69.0349C157.636 68.8536 157.162 68.6869 156.584 68.5349L154.929 68.0962C153.557 67.7395 152.476 67.1635 151.687 66.3681C150.898 65.5669 150.506 64.485 150.511 63.1224C150.506 62.0113 150.769 61.0376 151.3 60.2013C151.832 59.365 152.566 58.7129 153.505 58.2451C154.444 57.7772 155.514 57.5433 156.716 57.5433C157.943 57.5433 159.008 57.7801 159.911 58.2538C160.818 58.7217 161.522 59.3796 162.023 60.2276C162.523 61.0756 162.778 62.058 162.788 63.175H159.122Z" fill="white"/>
<path d="M164.939 75.7544V57.7889H175.986V61.3153H168.768V64.9997H175.421V68.5349H168.768V72.228H175.986V75.7544H164.939Z" fill="white"/>
<path d="M178.384 75.7544V57.7889H184.929C186.115 57.7889 187.139 58.0316 188 58.517C188.867 58.9966 189.535 59.6866 190.004 60.5872C190.473 61.482 190.708 62.5434 190.708 63.7716C190.708 65.0172 190.468 66.0757 189.988 66.9471C189.509 67.8126 188.828 68.4735 187.946 68.9296C187.064 69.3799 186.02 69.6051 184.813 69.6051H180.674V66.1839H184.101C184.679 66.1839 185.161 66.0991 185.548 65.9295C185.94 65.7541 186.237 65.4909 186.438 65.14C186.639 64.7833 186.739 64.3271 186.739 63.7716C186.739 63.216 186.639 62.7569 186.438 62.3943C186.237 62.0259 185.94 61.751 185.548 61.5697C185.156 61.3826 184.674 61.289 184.101 61.289H182.214V75.7544H178.384ZM187.304 67.5436L191.249 75.7544H187.072L183.204 67.5436H187.304Z" fill="white"/>
<path d="M195.938 57.7889L199.481 70.9472H199.612L203.155 57.7889H207.441L202.095 75.7544H196.997L191.652 57.7889H195.938Z" fill="white"/>
<path d="M212.976 57.7889V75.7544H209.147V57.7889H212.976Z" fill="white"/>
<path d="M229.762 64.2979H225.894C225.842 63.8476 225.736 63.4411 225.576 63.0785C225.417 62.716 225.205 62.406 224.942 62.1487C224.679 61.8914 224.367 61.6955 224.006 61.561C223.65 61.4206 223.256 61.3504 222.822 61.3504C222.054 61.3504 221.391 61.5639 220.834 61.9908C220.282 62.4177 219.857 63.0347 219.558 63.8417C219.264 64.6488 219.117 65.6254 219.117 66.7717C219.117 67.9647 219.266 68.9647 219.565 69.7717C219.87 70.5729 220.295 71.1782 220.842 71.5876C221.394 71.9911 222.046 72.1929 222.799 72.1929C223.222 72.1929 223.606 72.1315 223.952 72.0087C224.303 71.8858 224.609 71.7075 224.872 71.4736C225.141 71.2338 225.36 70.9443 225.53 70.6051C225.705 70.2601 225.827 69.8712 225.894 69.4384L229.762 69.4647C229.695 70.2601 229.491 71.0437 229.15 71.8157C228.815 72.5876 228.354 73.2923 227.766 73.9298C227.178 74.5614 226.461 75.0643 225.615 75.4386C224.774 75.8129 223.81 76 222.722 76C221.288 76 220.004 75.6433 218.869 74.9298C217.74 74.2105 216.848 73.1637 216.193 71.7893C215.538 70.415 215.21 68.7425 215.21 66.7717C215.21 64.795 215.543 63.1195 216.208 61.7452C216.873 60.3709 217.773 59.327 218.908 58.6135C220.043 57.9 221.314 57.5433 222.722 57.5433C223.681 57.5433 224.568 57.6953 225.383 57.9994C226.198 58.2977 226.915 58.7363 227.534 59.3153C228.153 59.8884 228.655 60.5931 229.042 61.4294C229.429 62.2657 229.669 63.2218 229.762 64.2979Z" fill="white"/>
<path d="M231.953 75.7544V57.7889H243V61.3153H235.782V64.9997H242.435V68.5349H235.782V72.228H243V75.7544H231.953Z" fill="white"/>
</svg>
