<svg width="147" height="55" viewBox="0 0 147 55" fill="none" xmlns="http://www.w3.org/2000/svg">
<path d="M56.4162 0H69.1297L79.4595 1.95046L89.7892 6.82663L104.092 16.5789L127.93 20.4799L137.465 23.4056L144.616 28.2817L147 31.2074L146.205 33.1579L139.054 29.257L130.314 26.3313L123.162 25.356L57.2108 24.3808L24.6324 22.4303L7.15135 19.5046L0 16.5789V15.6037L15.8919 12.678L38.1405 2.9257L46.0865 0.975232L56.4162 0Z" fill="#F8D269"/>
<path d="M50.8605 3.68421H73.3256L81.3488 5.52632L94.1861 12.8947L99 17.5V18.4211H80.5465L42.8372 17.5L30 16.5789L31.6047 12.8947L36.4186 8.28947L46.0465 4.60526L50.8605 3.68421Z" fill="white"/>
<path d="M3 20.2632L14.1034 22.2281L32.3448 26.1579L52.9655 29.1053H95.7931L112.448 27.1404H122.759L133.069 29.1053L141 32.0526L138.621 33.0351L128.31 31.0702H117.207L91.8276 35H52.9655L33.1379 32.0526L15.6897 27.1404L3 21.2456V20.2632Z" fill="#F8D577"/>
<path d="M9.86879 47.5323C9.77953 47.2522 9.65951 47.0014 9.5087 46.7798C9.36097 46.5552 9.18401 46.3643 8.97781 46.2074C8.7716 46.0473 8.53616 45.9258 8.27148 45.8427C8.00988 45.7596 7.72212 45.718 7.4082 45.718C6.87577 45.718 6.39566 45.855 5.96786 46.1289C5.54007 46.4028 5.20153 46.8044 4.95224 47.3338C4.70602 47.8601 4.58292 48.5049 4.58292 49.2681C4.58292 50.0344 4.70756 50.6823 4.95685 51.2116C5.20614 51.741 5.54776 52.1426 5.98171 52.4165C6.41566 52.6905 6.90962 52.8274 7.4636 52.8274C7.97757 52.8274 8.42537 52.7228 8.807 52.5135C9.1917 52.3042 9.4887 52.0088 9.69798 51.6271C9.91033 51.2424 10.0165 50.79 10.0165 50.2699L10.3858 50.3391H7.68058V49.1619H11.3968V50.2376C11.3968 51.0316 11.2276 51.721 10.889 52.3058C10.5536 52.8874 10.0888 53.3368 9.49485 53.6538C8.90394 53.9708 8.22686 54.1293 7.4636 54.1293C6.60801 54.1293 5.85707 53.9323 5.21076 53.5384C4.56753 53.1444 4.06587 52.5858 3.70579 51.8626C3.3457 51.1362 3.16566 50.2745 3.16566 49.2773C3.16566 48.5233 3.2703 47.8462 3.47958 47.2461C3.68886 46.646 3.98278 46.1366 4.36133 45.718C4.74296 45.2964 5.19076 44.9748 5.70472 44.7532C6.22177 44.5285 6.78652 44.4162 7.39897 44.4162C7.90986 44.4162 8.38536 44.4916 8.82546 44.6424C9.26864 44.7932 9.66258 45.0071 10.0073 45.2841C10.3551 45.5611 10.6428 45.8904 10.8706 46.272C11.0983 46.6506 11.2522 47.0707 11.3322 47.5323H9.86879Z" fill="black"/>
<path d="M13.2077 54V44.5455H16.5777C17.3102 44.5455 17.918 44.6716 18.4012 44.924C18.8875 45.1764 19.2506 45.5257 19.4907 45.9719C19.7307 46.4151 19.8508 46.9276 19.8508 47.5092C19.8508 48.0878 19.7292 48.5972 19.4861 49.0373C19.246 49.4743 18.8828 49.8144 18.3966 50.0575C17.9134 50.3007 17.3055 50.4222 16.5731 50.4222H14.0202V49.1942H16.4438C16.9055 49.1942 17.2809 49.1281 17.5702 48.9957C17.8626 48.8634 18.0765 48.671 18.2119 48.4187C18.3473 48.1663 18.415 47.8632 18.415 47.5092C18.415 47.1522 18.3458 46.8429 18.2073 46.5813C18.0719 46.3197 17.858 46.1197 17.5656 45.9812C17.2763 45.8396 16.8962 45.7688 16.4253 45.7688H14.6341V54H13.2077ZM17.8749 49.7344L20.2108 54H18.5858L16.2961 49.7344H17.8749Z" fill="black"/>
<path d="M22.3852 54H20.871L24.2733 44.5455H25.9214L29.3238 54H27.8096L25.1366 46.2628H25.0628L22.3852 54ZM22.6391 50.2976H27.551V51.4979H22.6391V50.2976Z" fill="black"/>
<path d="M38.0974 47.62H36.6571C36.6017 47.3123 36.4985 47.0414 36.3477 46.8075C36.1969 46.5736 36.0123 46.3751 35.7938 46.212C35.5753 46.0489 35.3306 45.9258 35.0597 45.8427C34.792 45.7596 34.5073 45.718 34.2057 45.718C33.661 45.718 33.1731 45.855 32.7423 46.1289C32.3145 46.4028 31.9759 46.8044 31.7267 47.3338C31.4804 47.8632 31.3573 48.5095 31.3573 49.2727C31.3573 50.0421 31.4804 50.6915 31.7267 51.2209C31.9759 51.7502 32.316 52.1503 32.7469 52.4212C33.1778 52.692 33.6625 52.8274 34.2011 52.8274C34.4996 52.8274 34.7828 52.7874 35.0505 52.7074C35.3213 52.6243 35.566 52.5027 35.7845 52.3427C36.003 52.1826 36.1877 51.9872 36.3385 51.7564C36.4924 51.5225 36.5986 51.2547 36.6571 50.9531L38.0974 50.9577C38.0204 51.4225 37.8712 51.8503 37.6496 52.2411C37.4311 52.6289 37.1495 52.9644 36.8048 53.2475C36.4632 53.5276 36.0723 53.7446 35.6322 53.8984C35.1921 54.0523 34.712 54.1293 34.1918 54.1293C33.3732 54.1293 32.6438 53.9354 32.0036 53.5476C31.3635 53.1567 30.8588 52.5981 30.4894 51.8718C30.1232 51.1455 29.9401 50.2791 29.9401 49.2727C29.9401 48.2633 30.1247 47.3969 30.4941 46.6736C30.8634 45.9473 31.3681 45.3903 32.0083 45.0025C32.6484 44.6116 33.3763 44.4162 34.1918 44.4162C34.6935 44.4162 35.1613 44.4885 35.5953 44.6332C36.0323 44.7747 36.4247 44.984 36.7725 45.261C37.1202 45.5349 37.408 45.8704 37.6357 46.2674C37.8635 46.6613 38.0174 47.1122 38.0974 47.62Z" fill="black"/>
<path d="M39.8043 54V44.5455H45.7319V45.7734H41.2308V48.6541H45.4226V49.8775H41.2308V52.772H45.7873V54H39.8043Z" fill="black"/>
<path d="M51.8764 54H50.3622L53.7646 44.5455H55.4126L58.815 54H57.3008L54.6278 46.2628H54.554L51.8764 54ZM52.1303 50.2976H57.0423V51.4979H52.1303V50.2976Z" fill="black"/>
<path d="M66.2602 44.5455H67.6913V50.7639C67.6913 51.4255 67.5359 52.0118 67.2251 52.5227C66.9142 53.0305 66.4772 53.4306 65.914 53.723C65.3508 54.0123 64.6906 54.157 63.9335 54.157C63.1795 54.157 62.5209 54.0123 61.9577 53.723C61.3944 53.4306 60.9574 53.0305 60.6466 52.5227C60.3357 52.0118 60.1803 51.4255 60.1803 50.7639V44.5455H61.6068V50.6484C61.6068 51.0762 61.7007 51.4563 61.8884 51.7887C62.0792 52.1211 62.3485 52.3827 62.6963 52.5735C63.0441 52.7612 63.4565 52.8551 63.9335 52.8551C64.4136 52.8551 64.8276 52.7612 65.1753 52.5735C65.5262 52.3827 65.7939 52.1211 65.9786 51.7887C66.1663 51.4563 66.2602 51.0762 66.2602 50.6484V44.5455Z" fill="black"/>
<path d="M69.299 45.7734V44.5455H76.6161V45.7734H73.6662V54H72.2443V45.7734H69.299Z" fill="black"/>
<path d="M86.0395 49.2727C86.0395 50.2822 85.8548 51.1501 85.4855 51.8764C85.1162 52.5997 84.6099 53.1567 83.9667 53.5476C83.3266 53.9354 82.5987 54.1293 81.7831 54.1293C80.9645 54.1293 80.2335 53.9354 79.5903 53.5476C78.9501 53.1567 78.4454 52.5981 78.0761 51.8718C77.7068 51.1455 77.5221 50.2791 77.5221 49.2727C77.5221 48.2633 77.7068 47.3969 78.0761 46.6736C78.4454 45.9473 78.9501 45.3903 79.5903 45.0025C80.2335 44.6116 80.9645 44.4162 81.7831 44.4162C82.5987 44.4162 83.3266 44.6116 83.9667 45.0025C84.6099 45.3903 85.1162 45.9473 85.4855 46.6736C85.8548 47.3969 86.0395 48.2633 86.0395 49.2727ZM84.6269 49.2727C84.6269 48.5033 84.5022 47.8555 84.2529 47.3292C84.0067 46.7998 83.6682 46.3997 83.2373 46.1289C82.8095 45.855 82.3248 45.718 81.7831 45.718C81.2384 45.718 80.7521 45.855 80.3243 46.1289C79.8965 46.3997 79.558 46.7998 79.3087 47.3292C79.0625 47.8555 78.9394 48.5033 78.9394 49.2727C78.9394 50.0421 79.0625 50.6915 79.3087 51.2209C79.558 51.7472 79.8965 52.1473 80.3243 52.4212C80.7521 52.692 81.2384 52.8274 81.7831 52.8274C82.3248 52.8274 82.8095 52.692 83.2373 52.4212C83.6682 52.1473 84.0067 51.7472 84.2529 51.2209C84.5022 50.6915 84.6269 50.0421 84.6269 49.2727Z" fill="black"/>
<path d="M96.415 47.0291C96.3658 46.5921 96.1627 46.2535 95.8057 46.0135C95.4487 45.7704 94.9993 45.6488 94.4576 45.6488C94.0699 45.6488 93.7344 45.7103 93.4513 45.8335C93.1681 45.9535 92.9481 46.1197 92.7911 46.332C92.6372 46.5413 92.5603 46.7798 92.5603 47.0476C92.5603 47.2723 92.6126 47.4661 92.7172 47.6293C92.825 47.7924 92.965 47.9293 93.1373 48.0401C93.3128 48.1478 93.5005 48.2386 93.7006 48.3125C93.9006 48.3833 94.093 48.4418 94.2776 48.4879L95.2009 48.728C95.5025 48.8018 95.8118 48.9019 96.1288 49.0281C96.4458 49.1542 96.7397 49.3204 97.0106 49.5266C97.2814 49.7328 97.4999 49.9883 97.6661 50.293C97.8354 50.5977 97.92 50.9624 97.92 51.3871C97.92 51.9226 97.7815 52.3981 97.5045 52.8136C97.2306 53.229 96.8321 53.5568 96.3089 53.7969C95.7887 54.0369 95.1594 54.157 94.4207 54.157C93.7129 54.157 93.1004 54.0446 92.5834 53.82C92.0663 53.5953 91.6616 53.2768 91.3692 52.8643C91.0769 52.4489 90.9153 51.9564 90.8845 51.3871H92.3156C92.3433 51.7287 92.4541 52.0134 92.648 52.2411C92.845 52.4658 93.0958 52.6335 93.4005 52.7443C93.7082 52.852 94.0453 52.9059 94.4115 52.9059C94.8147 52.9059 95.1732 52.8428 95.4871 52.7166C95.8041 52.5874 96.0534 52.4089 96.235 52.1811C96.4166 51.9503 96.5074 51.681 96.5074 51.3732C96.5074 51.0932 96.4273 50.8639 96.2673 50.6854C96.1104 50.5069 95.8965 50.3591 95.6256 50.2422C95.3579 50.1252 95.0547 50.0221 94.7162 49.9329L93.599 49.6282C92.8419 49.422 92.2417 49.1188 91.7986 48.7188C91.3585 48.3187 91.1384 47.7893 91.1384 47.1307C91.1384 46.5859 91.2861 46.1104 91.5816 45.7042C91.877 45.2979 92.2771 44.9825 92.7819 44.7578C93.2866 44.5301 93.856 44.4162 94.49 44.4162C95.1301 44.4162 95.6949 44.5285 96.1842 44.7532C96.6766 44.9779 97.0644 45.2872 97.3476 45.6811C97.6307 46.072 97.7784 46.5213 97.7907 47.0291H96.415Z" fill="black"/>
<path d="M99.6246 54V44.5455H105.552V45.7734H101.051V48.6541H105.243V49.8775H101.051V52.772H105.608V54H99.6246Z" fill="black"/>
<path d="M107.458 54V44.5455H110.828C111.56 44.5455 112.168 44.6716 112.651 44.924C113.137 45.1764 113.501 45.5257 113.741 45.9719C113.981 46.4151 114.101 46.9276 114.101 47.5092C114.101 48.0878 113.979 48.5972 113.736 49.0373C113.496 49.4743 113.133 49.8144 112.647 50.0575C112.163 50.3007 111.556 50.4222 110.823 50.4222H108.27V49.1942H110.694C111.155 49.1942 111.531 49.1281 111.82 48.9957C112.113 48.8634 112.326 48.671 112.462 48.4187C112.597 48.1663 112.665 47.8632 112.665 47.5092C112.665 47.1522 112.596 46.8429 112.457 46.5813C112.322 46.3197 112.108 46.1197 111.816 45.9812C111.526 45.8396 111.146 45.7688 110.675 45.7688H108.884V54H107.458ZM112.125 49.7344L114.461 54H112.836L110.546 49.7344H112.125Z" fill="black"/>
<path d="M116.434 44.5455L119.066 52.2457H119.172L121.803 44.5455H123.345L119.943 54H118.295L114.892 44.5455H116.434Z" fill="black"/>
<path d="M126.137 44.5455V54H124.711V44.5455H126.137Z" fill="black"/>
<path d="M136.067 47.62H134.627C134.571 47.3123 134.468 47.0414 134.317 46.8075C134.167 46.5736 133.982 46.3751 133.763 46.212C133.545 46.0489 133.3 45.9258 133.029 45.8427C132.762 45.7596 132.477 45.718 132.175 45.718C131.631 45.718 131.143 45.855 130.712 46.1289C130.284 46.4028 129.946 46.8044 129.696 47.3338C129.45 47.8632 129.327 48.5095 129.327 49.2727C129.327 50.0421 129.45 50.6915 129.696 51.2209C129.946 51.7502 130.286 52.1503 130.717 52.4212C131.147 52.692 131.632 52.8274 132.171 52.8274C132.469 52.8274 132.752 52.7874 133.02 52.7074C133.291 52.6243 133.536 52.5027 133.754 52.3427C133.973 52.1826 134.157 51.9872 134.308 51.7564C134.462 51.5225 134.568 51.2547 134.627 50.9531L136.067 50.9577C135.99 51.4225 135.841 51.8503 135.619 52.2411C135.401 52.6289 135.119 52.9644 134.775 53.2475C134.433 53.5276 134.042 53.7446 133.602 53.8984C133.162 54.0523 132.682 54.1293 132.162 54.1293C131.343 54.1293 130.614 53.9354 129.973 53.5476C129.333 53.1567 128.828 52.5981 128.459 51.8718C128.093 51.1455 127.91 50.2791 127.91 49.2727C127.91 48.2633 128.094 47.3969 128.464 46.6736C128.833 45.9473 129.338 45.3903 129.978 45.0025C130.618 44.6116 131.346 44.4162 132.162 44.4162C132.663 44.4162 133.131 44.4885 133.565 44.6332C134.002 44.7747 134.394 44.984 134.742 45.261C135.09 45.5349 135.378 45.8704 135.605 46.2674C135.833 46.6613 135.987 47.1122 136.067 47.62Z" fill="black"/>
<path d="M137.774 54V44.5455H143.702V45.7734H139.201V48.6541H143.392V49.8775H139.201V52.772H143.757V54H137.774Z" fill="black"/>
</svg>
