<svg width="147" height="58" viewBox="0 0 147 58" fill="none" xmlns="http://www.w3.org/2000/svg">
<path d="M56.4162 0H69.1297L79.4595 1.95046L89.7892 6.82663L104.092 16.5789L127.93 20.4799L137.465 23.4056L144.616 28.2817L147 31.2074L146.205 33.1579L139.054 29.257L130.314 26.3313L123.162 25.356L57.2108 24.3808L24.6324 22.4303L7.15135 19.5046L0 16.5789V15.6037L15.8919 12.678L38.1405 2.9257L46.0865 0.975232L56.4162 0Z" fill="#F8D269"/>
<path d="M50.8605 3.68421H73.3256L81.3488 5.52632L94.1861 12.8947L99 17.5V18.4211H80.5465L42.8372 17.5L30 16.5789L31.6047 12.8947L36.4186 8.28947L46.0465 4.60526L50.8605 3.68421Z" fill="black"/>
<path d="M3 20.2632L14.1034 22.2281L32.3448 26.1579L52.9655 29.1053H95.7931L112.448 27.1404H122.759L133.069 29.1053L141 32.0526L138.621 33.0351L128.31 31.0702H117.207L91.8276 35H52.9655L33.1379 32.0526L15.6897 27.1404L3 21.2456V20.2632Z" fill="#F8D577"/>
<path d="M9.86879 50.5323C9.77953 50.2522 9.65951 50.0014 9.5087 49.7798C9.36097 49.5552 9.18401 49.3643 8.97781 49.2074C8.7716 49.0473 8.53616 48.9258 8.27148 48.8427C8.00988 48.7596 7.72212 48.718 7.4082 48.718C6.87577 48.718 6.39566 48.855 5.96786 49.1289C5.54007 49.4028 5.20153 49.8044 4.95224 50.3338C4.70602 50.8601 4.58292 51.5049 4.58292 52.2681C4.58292 53.0344 4.70756 53.6823 4.95685 54.2116C5.20614 54.741 5.54776 55.1426 5.98171 55.4165C6.41566 55.6905 6.90962 55.8274 7.4636 55.8274C7.97757 55.8274 8.42537 55.7228 8.807 55.5135C9.1917 55.3042 9.4887 55.0088 9.69798 54.6271C9.91033 54.2424 10.0165 53.79 10.0165 53.2699L10.3858 53.3391H7.68058V52.1619H11.3968V53.2376C11.3968 54.0316 11.2276 54.721 10.889 55.3058C10.5536 55.8874 10.0888 56.3368 9.49485 56.6538C8.90394 56.9708 8.22686 57.1293 7.4636 57.1293C6.60801 57.1293 5.85707 56.9323 5.21076 56.5384C4.56753 56.1444 4.06587 55.5858 3.70579 54.8626C3.3457 54.1362 3.16566 53.2745 3.16566 52.2773C3.16566 51.5233 3.2703 50.8462 3.47958 50.2461C3.68886 49.646 3.98278 49.1366 4.36133 48.718C4.74296 48.2964 5.19076 47.9748 5.70472 47.7532C6.22177 47.5285 6.78652 47.4162 7.39897 47.4162C7.90986 47.4162 8.38536 47.4916 8.82546 47.6424C9.26864 47.7932 9.66258 48.0071 10.0073 48.2841C10.3551 48.5611 10.6428 48.8904 10.8706 49.272C11.0983 49.6506 11.2522 50.0707 11.3322 50.5323H9.86879Z" fill="white"/>
<path d="M13.2077 57V47.5455H16.5777C17.3102 47.5455 17.918 47.6716 18.4012 47.924C18.8875 48.1764 19.2506 48.5257 19.4907 48.9719C19.7307 49.4151 19.8508 49.9276 19.8508 50.5092C19.8508 51.0878 19.7292 51.5972 19.4861 52.0373C19.246 52.4743 18.8828 52.8144 18.3966 53.0575C17.9134 53.3007 17.3055 53.4222 16.5731 53.4222H14.0202V52.1942H16.4438C16.9055 52.1942 17.2809 52.1281 17.5702 51.9957C17.8626 51.8634 18.0765 51.671 18.2119 51.4187C18.3473 51.1663 18.415 50.8632 18.415 50.5092C18.415 50.1522 18.3458 49.8429 18.2073 49.5813C18.0719 49.3197 17.858 49.1197 17.5656 48.9812C17.2763 48.8396 16.8962 48.7688 16.4253 48.7688H14.6341V57H13.2077ZM17.8749 52.7344L20.2108 57H18.5858L16.2961 52.7344H17.8749Z" fill="white"/>
<path d="M22.3852 57H20.871L24.2733 47.5455H25.9214L29.3238 57H27.8096L25.1366 49.2628H25.0628L22.3852 57ZM22.6391 53.2976H27.551V54.4979H22.6391V53.2976Z" fill="white"/>
<path d="M38.0974 50.62H36.6571C36.6017 50.3123 36.4985 50.0414 36.3477 49.8075C36.1969 49.5736 36.0123 49.3751 35.7938 49.212C35.5753 49.0489 35.3306 48.9258 35.0597 48.8427C34.792 48.7596 34.5073 48.718 34.2057 48.718C33.661 48.718 33.1731 48.855 32.7423 49.1289C32.3145 49.4028 31.9759 49.8044 31.7267 50.3338C31.4804 50.8632 31.3573 51.5095 31.3573 52.2727C31.3573 53.0421 31.4804 53.6915 31.7267 54.2209C31.9759 54.7502 32.316 55.1503 32.7469 55.4212C33.1778 55.692 33.6625 55.8274 34.2011 55.8274C34.4996 55.8274 34.7828 55.7874 35.0505 55.7074C35.3213 55.6243 35.566 55.5027 35.7845 55.3427C36.003 55.1826 36.1877 54.9872 36.3385 54.7564C36.4924 54.5225 36.5986 54.2547 36.6571 53.9531L38.0974 53.9577C38.0204 54.4225 37.8712 54.8503 37.6496 55.2411C37.4311 55.6289 37.1495 55.9644 36.8048 56.2475C36.4632 56.5276 36.0723 56.7446 35.6322 56.8984C35.1921 57.0523 34.712 57.1293 34.1918 57.1293C33.3732 57.1293 32.6438 56.9354 32.0036 56.5476C31.3635 56.1567 30.8588 55.5981 30.4894 54.8718C30.1232 54.1455 29.9401 53.2791 29.9401 52.2727C29.9401 51.2633 30.1247 50.3969 30.4941 49.6736C30.8634 48.9473 31.3681 48.3903 32.0083 48.0025C32.6484 47.6116 33.3763 47.4162 34.1918 47.4162C34.6935 47.4162 35.1613 47.4885 35.5953 47.6332C36.0323 47.7747 36.4247 47.984 36.7725 48.261C37.1202 48.5349 37.408 48.8704 37.6357 49.2674C37.8635 49.6613 38.0174 50.1122 38.0974 50.62Z" fill="white"/>
<path d="M39.8043 57V47.5455H45.7319V48.7734H41.2308V51.6541H45.4226V52.8775H41.2308V55.772H45.7873V57H39.8043Z" fill="white"/>
<path d="M51.8764 57H50.3622L53.7646 47.5455H55.4126L58.815 57H57.3008L54.6278 49.2628H54.554L51.8764 57ZM52.1303 53.2976H57.0423V54.4979H52.1303V53.2976Z" fill="white"/>
<path d="M66.2602 47.5455H67.6913V53.7639C67.6913 54.4255 67.5359 55.0118 67.2251 55.5227C66.9142 56.0305 66.4772 56.4306 65.914 56.723C65.3508 57.0123 64.6906 57.157 63.9335 57.157C63.1795 57.157 62.5209 57.0123 61.9577 56.723C61.3944 56.4306 60.9574 56.0305 60.6466 55.5227C60.3357 55.0118 60.1803 54.4255 60.1803 53.7639V47.5455H61.6068V53.6484C61.6068 54.0762 61.7007 54.4563 61.8884 54.7887C62.0792 55.1211 62.3485 55.3827 62.6963 55.5735C63.0441 55.7612 63.4565 55.8551 63.9335 55.8551C64.4136 55.8551 64.8276 55.7612 65.1753 55.5735C65.5262 55.3827 65.7939 55.1211 65.9786 54.7887C66.1663 54.4563 66.2602 54.0762 66.2602 53.6484V47.5455Z" fill="white"/>
<path d="M69.299 48.7734V47.5455H76.6161V48.7734H73.6662V57H72.2443V48.7734H69.299Z" fill="white"/>
<path d="M86.0395 52.2727C86.0395 53.2822 85.8548 54.1501 85.4855 54.8764C85.1162 55.5997 84.6099 56.1567 83.9667 56.5476C83.3266 56.9354 82.5987 57.1293 81.7831 57.1293C80.9645 57.1293 80.2335 56.9354 79.5903 56.5476C78.9501 56.1567 78.4454 55.5981 78.0761 54.8718C77.7068 54.1455 77.5221 53.2791 77.5221 52.2727C77.5221 51.2633 77.7068 50.3969 78.0761 49.6736C78.4454 48.9473 78.9501 48.3903 79.5903 48.0025C80.2335 47.6116 80.9645 47.4162 81.7831 47.4162C82.5987 47.4162 83.3266 47.6116 83.9667 48.0025C84.6099 48.3903 85.1162 48.9473 85.4855 49.6736C85.8548 50.3969 86.0395 51.2633 86.0395 52.2727ZM84.6269 52.2727C84.6269 51.5033 84.5022 50.8555 84.2529 50.3292C84.0067 49.7998 83.6682 49.3997 83.2373 49.1289C82.8095 48.855 82.3248 48.718 81.7831 48.718C81.2384 48.718 80.7521 48.855 80.3243 49.1289C79.8965 49.3997 79.558 49.7998 79.3087 50.3292C79.0625 50.8555 78.9394 51.5033 78.9394 52.2727C78.9394 53.0421 79.0625 53.6915 79.3087 54.2209C79.558 54.7472 79.8965 55.1473 80.3243 55.4212C80.7521 55.692 81.2384 55.8274 81.7831 55.8274C82.3248 55.8274 82.8095 55.692 83.2373 55.4212C83.6682 55.1473 84.0067 54.7472 84.2529 54.2209C84.5022 53.6915 84.6269 53.0421 84.6269 52.2727Z" fill="white"/>
<path d="M96.415 50.0291C96.3658 49.5921 96.1627 49.2535 95.8057 49.0135C95.4487 48.7704 94.9993 48.6488 94.4576 48.6488C94.0699 48.6488 93.7344 48.7103 93.4513 48.8335C93.1681 48.9535 92.9481 49.1197 92.7911 49.332C92.6372 49.5413 92.5603 49.7798 92.5603 50.0476C92.5603 50.2723 92.6126 50.4661 92.7172 50.6293C92.825 50.7924 92.965 50.9293 93.1373 51.0401C93.3128 51.1478 93.5005 51.2386 93.7006 51.3125C93.9006 51.3833 94.093 51.4418 94.2776 51.4879L95.2009 51.728C95.5025 51.8018 95.8118 51.9019 96.1288 52.0281C96.4458 52.1542 96.7397 52.3204 97.0106 52.5266C97.2814 52.7328 97.4999 52.9883 97.6661 53.293C97.8354 53.5977 97.92 53.9624 97.92 54.3871C97.92 54.9226 97.7815 55.3981 97.5045 55.8136C97.2306 56.229 96.8321 56.5568 96.3089 56.7969C95.7887 57.0369 95.1594 57.157 94.4207 57.157C93.7129 57.157 93.1004 57.0446 92.5834 56.82C92.0663 56.5953 91.6616 56.2768 91.3692 55.8643C91.0769 55.4489 90.9153 54.9564 90.8845 54.3871H92.3156C92.3433 54.7287 92.4541 55.0134 92.648 55.2411C92.845 55.4658 93.0958 55.6335 93.4005 55.7443C93.7082 55.852 94.0453 55.9059 94.4115 55.9059C94.8147 55.9059 95.1732 55.8428 95.4871 55.7166C95.8041 55.5874 96.0534 55.4089 96.235 55.1811C96.4166 54.9503 96.5074 54.681 96.5074 54.3732C96.5074 54.0932 96.4273 53.8639 96.2673 53.6854C96.1104 53.5069 95.8965 53.3591 95.6256 53.2422C95.3579 53.1252 95.0547 53.0221 94.7162 52.9329L93.599 52.6282C92.8419 52.422 92.2417 52.1188 91.7986 51.7188C91.3585 51.3187 91.1384 50.7893 91.1384 50.1307C91.1384 49.5859 91.2861 49.1104 91.5816 48.7042C91.877 48.2979 92.2771 47.9825 92.7819 47.7578C93.2866 47.5301 93.856 47.4162 94.49 47.4162C95.1301 47.4162 95.6949 47.5285 96.1842 47.7532C96.6766 47.9779 97.0644 48.2872 97.3476 48.6811C97.6307 49.072 97.7784 49.5213 97.7907 50.0291H96.415Z" fill="white"/>
<path d="M99.6246 57V47.5455H105.552V48.7734H101.051V51.6541H105.243V52.8775H101.051V55.772H105.608V57H99.6246Z" fill="white"/>
<path d="M107.458 57V47.5455H110.828C111.56 47.5455 112.168 47.6716 112.651 47.924C113.137 48.1764 113.501 48.5257 113.741 48.9719C113.981 49.4151 114.101 49.9276 114.101 50.5092C114.101 51.0878 113.979 51.5972 113.736 52.0373C113.496 52.4743 113.133 52.8144 112.647 53.0575C112.163 53.3007 111.556 53.4222 110.823 53.4222H108.27V52.1942H110.694C111.155 52.1942 111.531 52.1281 111.82 51.9957C112.113 51.8634 112.326 51.671 112.462 51.4187C112.597 51.1663 112.665 50.8632 112.665 50.5092C112.665 50.1522 112.596 49.8429 112.457 49.5813C112.322 49.3197 112.108 49.1197 111.816 48.9812C111.526 48.8396 111.146 48.7688 110.675 48.7688H108.884V57H107.458ZM112.125 52.7344L114.461 57H112.836L110.546 52.7344H112.125Z" fill="white"/>
<path d="M116.434 47.5455L119.066 55.2457H119.172L121.803 47.5455H123.345L119.943 57H118.295L114.892 47.5455H116.434Z" fill="white"/>
<path d="M126.137 47.5455V57H124.711V47.5455H126.137Z" fill="white"/>
<path d="M136.067 50.62H134.627C134.571 50.3123 134.468 50.0414 134.317 49.8075C134.167 49.5736 133.982 49.3751 133.763 49.212C133.545 49.0489 133.3 48.9258 133.029 48.8427C132.762 48.7596 132.477 48.718 132.175 48.718C131.631 48.718 131.143 48.855 130.712 49.1289C130.284 49.4028 129.946 49.8044 129.696 50.3338C129.45 50.8632 129.327 51.5095 129.327 52.2727C129.327 53.0421 129.45 53.6915 129.696 54.2209C129.946 54.7502 130.286 55.1503 130.717 55.4212C131.147 55.692 131.632 55.8274 132.171 55.8274C132.469 55.8274 132.752 55.7874 133.02 55.7074C133.291 55.6243 133.536 55.5027 133.754 55.3427C133.973 55.1826 134.157 54.9872 134.308 54.7564C134.462 54.5225 134.568 54.2547 134.627 53.9531L136.067 53.9577C135.99 54.4225 135.841 54.8503 135.619 55.2411C135.401 55.6289 135.119 55.9644 134.775 56.2475C134.433 56.5276 134.042 56.7446 133.602 56.8984C133.162 57.0523 132.682 57.1293 132.162 57.1293C131.343 57.1293 130.614 56.9354 129.973 56.5476C129.333 56.1567 128.828 55.5981 128.459 54.8718C128.093 54.1455 127.91 53.2791 127.91 52.2727C127.91 51.2633 128.094 50.3969 128.464 49.6736C128.833 48.9473 129.338 48.3903 129.978 48.0025C130.618 47.6116 131.346 47.4162 132.162 47.4162C132.663 47.4162 133.131 47.4885 133.565 47.6332C134.002 47.7747 134.394 47.984 134.742 48.261C135.09 48.5349 135.378 48.8704 135.605 49.2674C135.833 49.6613 135.987 50.1122 136.067 50.62Z" fill="white"/>
<path d="M137.774 57V47.5455H143.702V48.7734H139.201V51.6541H143.392V52.8775H139.201V55.772H143.757V57H137.774Z" fill="white"/>
</svg>
