<svg width="244" height="76" viewBox="0 0 244 76" fill="none" xmlns="http://www.w3.org/2000/svg">
<path d="M94.9342 0H107.244L117.245 1.74371L127.246 6.10297L141.094 14.8215L164.175 18.3089L173.407 20.9245L180.331 25.2838L182.639 27.8993L181.869 29.643L174.945 26.1556L166.483 23.54L159.559 22.6682L95.7035 21.7963L64.1607 20.0526L47.2353 17.4371L40.3112 14.8215V13.9497L55.698 11.3341L77.2394 2.61556L84.9328 0.871854L94.9342 0Z" fill="#F8D269"/>
<path d="M89.555 3.29367H111.306L119.074 4.9405L131.503 11.5278L136.164 15.6449V16.4683H118.297L81.7868 15.6449L69.3576 14.8215L70.9113 11.5278L75.5722 7.41075L84.8941 4.11709L89.555 3.29367Z" fill="black"/>
<path d="M43.2159 18.1152L53.9664 19.8718L71.6279 23.385L91.5932 26.02H133.059L149.185 24.2634H159.168L169.15 26.02L176.829 28.6549L174.526 29.5332L164.543 27.7766H153.793L129.22 31.2899H91.5932L72.3958 28.6549L55.5022 24.2634L43.2159 18.9935V18.1152Z" fill="#F8D577"/>
<path d="M11.3497 63.6575C11.262 63.2891 11.1331 62.9645 10.9629 62.6838C10.7927 62.3972 10.5838 62.1545 10.3363 61.9557C10.0887 61.7569 9.80508 61.6077 9.48532 61.5083C9.16556 61.4031 8.81486 61.3504 8.43321 61.3504C7.66476 61.3504 6.99946 61.561 6.4373 61.982C5.8803 62.4031 5.44966 63.0171 5.14538 63.8242C4.84109 64.6254 4.68895 65.5991 4.68895 66.7453C4.68895 67.8974 4.83593 68.8799 5.1299 69.6928C5.42388 70.5057 5.84936 71.1256 6.40636 71.5525C6.96336 71.9794 7.63897 72.1929 8.43321 72.1929C9.13462 72.1929 9.72772 72.0642 10.2125 71.8069C10.7025 71.5437 11.0738 71.1724 11.3265 70.6928C11.5792 70.2133 11.7056 69.6489 11.7056 68.9998L12.4173 69.0963H8.56473V65.9295H15.3957V68.3068C15.3957 69.915 15.094 71.2923 14.4906 72.4385C13.8923 73.5847 13.0671 74.4649 12.015 75.0789C10.9681 75.693 9.76382 76 8.40227 76C6.89115 76 5.56313 75.6286 4.41819 74.8859C3.27325 74.1432 2.38102 73.0847 1.7415 71.7104C1.10198 70.3302 0.782227 68.6928 0.782227 66.798C0.782227 65.3242 0.975629 64.0172 1.36243 62.8768C1.74924 61.7306 2.28818 60.7598 2.97927 59.9644C3.67552 59.1691 4.48007 58.5667 5.39293 58.1573C6.31095 57.748 7.29859 57.5433 8.35585 57.5433C9.27387 57.5433 10.1274 57.6924 10.9165 57.9907C11.7107 58.2889 12.4121 58.71 13.0207 59.2539C13.6344 59.7977 14.1321 60.444 14.5138 61.1925C14.8954 61.9411 15.1327 62.7627 15.2255 63.6575H11.3497Z" fill="white"/>
<path d="M17.6527 75.7544V57.7889H24.1974C25.3836 57.7889 26.4074 58.0316 27.2686 58.517C28.1351 58.9966 28.803 59.6866 29.2723 60.5872C29.7416 61.482 29.9763 62.5434 29.9763 63.7716C29.9763 65.0172 29.7364 66.0757 29.2568 66.9471C28.7772 67.8126 28.0964 68.4735 27.2145 68.9296C26.3326 69.3799 25.2882 69.6051 24.0814 69.6051H19.9426V66.1839H23.3697C23.9473 66.1839 24.4295 66.0991 24.8163 65.9295C25.2083 65.7541 25.5048 65.4909 25.7059 65.14C25.9071 64.7833 26.0077 64.3271 26.0077 63.7716C26.0077 63.216 25.9071 62.7569 25.7059 62.3943C25.5048 62.0259 25.2083 61.751 24.8163 61.5697C24.4243 61.3826 23.9421 61.289 23.3697 61.289H21.482V75.7544H17.6527ZM26.5724 67.5436L30.5178 75.7544H26.3403L22.4723 67.5436H26.5724Z" fill="white"/>
<path d="M35.5037 75.7544H31.3881L36.7337 57.7889H41.8318L47.1774 75.7544H43.0618L39.3408 62.3154H39.217L35.5037 75.7544ZM34.9544 68.684H43.557V71.9823H34.9544V68.684Z" fill="white"/>
<path d="M62.52 64.2979H58.652C58.6004 63.8476 58.4947 63.4411 58.3348 63.0785C58.1749 62.716 57.9635 62.406 57.7005 62.1487C57.4374 61.8914 57.1254 61.6955 56.7644 61.561C56.4085 61.4206 56.014 61.3504 55.5808 61.3504C54.8123 61.3504 54.1496 61.5639 53.5926 61.9908C53.0407 62.4177 52.6153 63.0347 52.3161 63.8417C52.0222 64.6488 51.8752 65.6254 51.8752 66.7717C51.8752 67.9647 52.0247 68.9647 52.3239 69.7717C52.6282 70.5729 53.0536 71.1782 53.6003 71.5876C54.1522 71.9911 54.8046 72.1929 55.5576 72.1929C55.9805 72.1929 56.3647 72.1315 56.7102 72.0087C57.0609 71.8858 57.3678 71.7075 57.6308 71.4736C57.899 71.2338 58.1182 70.9443 58.2884 70.6051C58.4637 70.2601 58.5849 69.8712 58.652 69.4384L62.52 69.4647C62.453 70.2601 62.2493 71.0437 61.9089 71.8157C61.5736 72.5876 61.1121 73.2923 60.5241 73.9298C59.9362 74.5614 59.2193 75.0643 58.3735 75.4386C57.5328 75.8129 56.5684 76 55.4802 76C54.0464 76 52.7623 75.6433 51.6276 74.9298C50.4982 74.2105 49.6059 73.1637 48.9509 71.7893C48.296 70.415 47.9685 68.7425 47.9685 66.7717C47.9685 64.795 48.3011 63.1195 48.9664 61.7452C49.6317 60.3709 50.5317 59.327 51.6663 58.6135C52.8009 57.9 54.0722 57.5433 55.4802 57.5433C56.4395 57.5433 57.3265 57.6953 58.1414 57.9994C58.9563 58.2977 59.6731 58.7363 60.292 59.3153C60.9109 59.8884 61.4138 60.5931 61.8006 61.4294C62.1874 62.2657 62.4272 63.2218 62.52 64.2979Z" fill="white"/>
<path d="M64.7113 75.7544V57.7889H75.7584V61.3153H68.5406V64.9997H75.1937V68.5349H68.5406V72.228H75.7584V75.7544H64.7113Z" fill="white"/>
<path d="M86.264 75.7544H82.1484L87.494 57.7889H92.5921L97.9377 75.7544H93.8221L90.1011 62.3154H89.9773L86.264 75.7544ZM85.7147 68.684H94.3173V71.9823H85.7147V68.684Z" fill="white"/>
<path d="M109.229 57.7889H113.05V69.377C113.05 70.7162 112.769 71.8829 112.207 72.8771C111.645 73.8654 110.861 74.6315 109.855 75.1754C108.849 75.7134 107.681 75.9825 106.351 75.9825C105.005 75.9825 103.829 75.7134 102.823 75.1754C101.817 74.6315 101.036 73.8654 100.479 72.8771C99.9221 71.8829 99.6436 70.7162 99.6436 69.377V57.7889H103.473V68.9998C103.473 69.6197 103.592 70.1723 103.829 70.6577C104.071 71.1431 104.409 71.5233 104.842 71.7981C105.275 72.073 105.778 72.2104 106.351 72.2104C106.923 72.2104 107.423 72.073 107.852 71.7981C108.285 71.5233 108.623 71.1431 108.865 70.6577C109.107 70.1723 109.229 69.6197 109.229 68.9998V57.7889Z" fill="white"/>
<path d="M114.932 61.3153V57.7889H128.323V61.3153H123.519V75.7544H119.744V61.3153H114.932Z" fill="white"/>
<path d="M144.424 66.7717C144.424 68.7483 144.089 70.4238 143.418 71.7981C142.748 73.1724 141.84 74.2163 140.695 74.9298C139.555 75.6433 138.276 76 136.858 76C135.435 76 134.153 75.6403 133.013 74.921C131.873 74.2017 130.968 73.1578 130.298 71.7893C129.632 70.415 129.3 68.7425 129.3 66.7717C129.3 64.795 129.632 63.1195 130.298 61.7452C130.968 60.3709 131.873 59.327 133.013 58.6135C134.153 57.9 135.435 57.5433 136.858 57.5433C138.276 57.5433 139.555 57.9 140.695 58.6135C141.84 59.327 142.748 60.3709 143.418 61.7452C144.089 63.1195 144.424 64.795 144.424 66.7717ZM140.509 66.7717C140.509 65.602 140.362 64.6137 140.068 63.8066C139.78 62.9996 139.362 62.3885 138.815 61.9733C138.274 61.558 137.621 61.3504 136.858 61.3504C136.1 61.3504 135.447 61.558 134.901 61.9733C134.354 62.3885 133.934 62.9996 133.64 63.8066C133.351 64.6137 133.207 65.602 133.207 66.7717C133.207 67.9413 133.351 68.9296 133.64 69.7366C133.934 70.5437 134.354 71.1548 134.901 71.57C135.447 71.9853 136.1 72.1929 136.858 72.1929C137.621 72.1929 138.274 71.9853 138.815 71.57C139.362 71.1548 139.78 70.5437 140.068 69.7366C140.362 68.9296 140.509 67.9413 140.509 66.7717Z" fill="white"/>
<path d="M159.904 63.175C159.852 62.5317 159.623 62.0317 159.215 61.675C158.813 61.3124 158.238 61.1311 157.49 61.1311C156.995 61.1311 156.582 61.2042 156.252 61.3504C155.922 61.4966 155.675 61.6984 155.51 61.9557C155.345 62.2072 155.26 62.4967 155.254 62.8242C155.244 63.0932 155.29 63.33 155.394 63.5347C155.502 63.7394 155.657 63.9207 155.858 64.0786C156.064 64.2306 156.312 64.3651 156.6 64.4821C156.889 64.5991 157.214 64.7014 157.575 64.7891L158.937 65.14C159.721 65.333 160.412 65.5903 161.01 65.912C161.613 66.2336 162.119 66.6167 162.526 67.0611C162.939 67.5056 163.251 68.0173 163.462 68.5963C163.674 69.1752 163.782 69.8244 163.787 70.5437C163.782 71.6782 163.529 72.6519 163.029 73.4648C162.529 74.2777 161.809 74.9006 160.871 75.3333C159.937 75.7661 158.81 75.9825 157.49 75.9825C156.165 75.9825 155.009 75.7573 154.024 75.307C153.039 74.8567 152.273 74.1725 151.727 73.2543C151.18 72.3361 150.899 71.1753 150.883 69.7717H154.55C154.581 70.3507 154.718 70.8332 154.96 71.2192C155.203 71.6051 155.535 71.8975 155.958 72.0964C156.386 72.2952 156.882 72.3946 157.444 72.3946C157.959 72.3946 158.398 72.3157 158.759 72.1578C159.125 71.9999 159.406 71.7806 159.602 71.4999C159.798 71.2192 159.899 70.8975 159.904 70.5349C159.899 70.1957 159.806 69.9062 159.625 69.6665C159.445 69.4209 159.166 69.2103 158.79 69.0349C158.418 68.8536 157.944 68.6869 157.366 68.5349L155.711 68.0962C154.339 67.7395 153.258 67.1635 152.469 66.3681C151.68 65.5669 151.288 64.485 151.294 63.1224C151.288 62.0113 151.551 61.0376 152.083 60.2013C152.614 59.365 153.349 58.7129 154.287 58.2451C155.226 57.7772 156.296 57.5433 157.498 57.5433C158.725 57.5433 159.79 57.7801 160.693 58.2538C161.601 58.7217 162.305 59.3796 162.805 60.2276C163.305 61.0756 163.56 62.058 163.571 63.175H159.904Z" fill="white"/>
<path d="M165.721 75.7544V57.7889H176.768V61.3153H169.551V64.9997H176.204V68.5349H169.551V72.228H176.768V75.7544H165.721Z" fill="white"/>
<path d="M179.167 75.7544V57.7889H185.711C186.898 57.7889 187.921 58.0316 188.783 58.517C189.649 58.9966 190.317 59.6866 190.786 60.5872C191.256 61.482 191.49 62.5434 191.49 63.7716C191.49 65.0172 191.25 66.0757 190.771 66.9471C190.291 67.8126 189.61 68.4735 188.728 68.9296C187.846 69.3799 186.802 69.6051 185.595 69.6051H181.456V66.1839H184.884C185.461 66.1839 185.943 66.0991 186.33 65.9295C186.722 65.7541 187.019 65.4909 187.22 65.14C187.421 64.7833 187.522 64.3271 187.522 63.7716C187.522 63.216 187.421 62.7569 187.22 62.3943C187.019 62.0259 186.722 61.751 186.33 61.5697C185.938 61.3826 185.456 61.289 184.884 61.289H182.996V75.7544H179.167ZM188.086 67.5436L192.032 75.7544H187.854L183.986 67.5436H188.086Z" fill="white"/>
<path d="M196.72 57.7889L200.263 70.9472H200.394L203.938 57.7889H208.223L202.878 75.7544H197.78L192.434 57.7889H196.72Z" fill="white"/>
<path d="M213.758 57.7889V75.7544H209.929V57.7889H213.758Z" fill="white"/>
<path d="M230.544 64.2979H226.676C226.624 63.8476 226.519 63.4411 226.359 63.0785C226.199 62.716 225.987 62.406 225.724 62.1487C225.461 61.8914 225.149 61.6955 224.788 61.561C224.432 61.4206 224.038 61.3504 223.605 61.3504C222.836 61.3504 222.173 61.5639 221.616 61.9908C221.065 62.4177 220.639 63.0347 220.34 63.8417C220.046 64.6488 219.899 65.6254 219.899 66.7717C219.899 67.9647 220.049 68.9647 220.348 69.7717C220.652 70.5729 221.077 71.1782 221.624 71.5876C222.176 71.9911 222.828 72.1929 223.581 72.1929C224.004 72.1929 224.389 72.1315 224.734 72.0087C225.085 71.8858 225.392 71.7075 225.655 71.4736C225.923 71.2338 226.142 70.9443 226.312 70.6051C226.488 70.2601 226.609 69.8712 226.676 69.4384L230.544 69.4647C230.477 70.2601 230.273 71.0437 229.933 71.8157C229.597 72.5876 229.136 73.2923 228.548 73.9298C227.96 74.5614 227.243 75.0643 226.397 75.4386C225.557 75.8129 224.592 76 223.504 76C222.07 76 220.786 75.6433 219.651 74.9298C218.522 74.2105 217.63 73.1637 216.975 71.7893C216.32 70.415 215.992 68.7425 215.992 66.7717C215.992 64.795 216.325 63.1195 216.99 61.7452C217.656 60.3709 218.556 59.327 219.69 58.6135C220.825 57.9 222.096 57.5433 223.504 57.5433C224.463 57.5433 225.35 57.6953 226.165 57.9994C226.98 58.2977 227.697 58.7363 228.316 59.3153C228.935 59.8884 229.438 60.5931 229.824 61.4294C230.211 62.2657 230.451 63.2218 230.544 64.2979Z" fill="white"/>
<path d="M232.735 75.7544V57.7889H243.782V61.3153H236.564V64.9997H243.217V68.5349H236.564V72.228H243.782V75.7544H232.735Z" fill="white"/>
</svg>
