<svg width="595" height="842" viewBox="0 0 595 842" fill="none" xmlns="http://www.w3.org/2000/svg">
<g clip-path="url(#clip0_9_589)">
<path d="M0 0H595V842H0V0Z" fill="#FDFDFD"/>
<path d="M0 0H591L589.423 1.05882L572.071 6.88235L553.668 12.1765L531.585 18L514.759 22.2353L492.149 27L464.282 31.7647L439.569 35.4706L413.805 38.6471L390.144 40.7647L351.761 42.8824L334.935 43.4118H303.913L282.355 42.8824L248.178 40.7647L222.939 38.6471L196.124 35.4706L173.514 33.8824H131.45L106.738 35.4706L82.0249 38.1176L57.3123 41.8235L27.8674 47.6471L1.5774 54H0V0Z" fill="#0D3A65"/>
<path d="M594.473 789H595V842H5L6.58036 840.94L27.6518 834.58L49.25 828.75L77.1696 821.86L98.2411 817.62L125.634 812.85L146.705 809.67L167.777 807.02L189.902 804.9L219.929 802.78L244.161 801.72H293.152L319.491 802.78L356.366 805.43L389.554 809.14L409.571 810.73L424.321 811.26H449.08L463.83 810.73L490.696 808.61L512.295 805.96L538.634 801.72L559.705 797.48L579.723 792.71L594.473 789Z" fill="#0D3A65"/>
<path d="M592.894 721H594.473L595 789.391L585.522 792.022L563.934 797.283L546.031 800.965L525.496 804.648L503.381 807.804L484.425 809.909L463.363 811.487L448.619 812.013H423.872L409.128 811.487L383.327 809.383L355.947 806.226L319.089 803.596L292.761 802.543H243.792L219.571 803.596L182.712 806.226L158.491 808.857L131.637 812.539L103.73 817.274L81.615 821.483L61.6062 826.217L38.9646 832.004L23.6947 836.213L4.73894 842H0V836.739L5.26549 834.635L23.1681 829.374L37.9115 825.165L58.4469 819.904L72.6637 816.748L92.6726 812.539L115.314 808.33L134.796 805.174L154.805 802.543L178.5 799.913L202.721 797.809L218.518 796.757L246.951 795.704H294.341L322.248 796.757L351.208 798.861H358.053L370.164 797.809L400.177 793.074L420.186 789.391L441.774 784.657L460.204 779.922L480.212 774.135L500.221 767.296L516.018 761.509L541.292 750.461L549.717 746.252L561.827 739.939L572.885 733.626L584.996 726.261L592.894 721Z" fill="#F0E7C2"/>
<path d="M591.317 0H595V5.81223L591.317 7.39738L571.326 13.738L557.122 17.9651L534.5 23.7773L515.035 28.5328L483.47 34.8734L464.531 38.0437L444.014 41.214L427.706 43.3275L408.24 45.441L382.989 47.5546L365.102 48.6114L336.693 49.6681H298.815L270.933 48.6114L251.994 47.5546L239.368 46.4978H227.268L206.225 49.1397L190.442 51.7817L172.555 54.952L157.299 58.1223L143.095 61.2926L134.677 63.4061L116.264 68.69L97.8515 74.5022L81.5429 80.3144L65.2343 86.655L52.6083 92.4672L42.0866 97.2227L32.0911 102.507L19.9912 108.847L13.1521 113.074L7.89125 116.245L0.526083 121H0V53.8952L25.252 47.5546L54.7126 41.7424L74.7038 38.5721L91.5385 36.4585L113.634 34.345L131.521 33.2882H173.607L196.229 34.8734L228.32 38.5721L263.568 41.214L282.507 42.2707L304.076 42.7991H335.115L351.95 42.2707L390.354 40.1572L418.762 37.5153L444.014 34.345L474.527 29.5895L497.675 25.3624L517.666 21.1354L533.974 16.9083L553.966 11.6245L575.535 5.28384L591.317 0Z" fill="#F0E7C2"/>
<path d="M170 0H591L589.425 1.04348L572.102 6.78261L553.729 12L543.756 14.6087L535.357 16.1739L517.509 19.8261L502.81 22.4348L488.112 24L450.317 26.087L423.02 26.6087H397.823L349.529 24.5217L326.431 22.9565L292.31 19.8261L288.111 19.3043L294.935 21.913L304.384 27.1304L320.132 29.2174L326.431 30.7826L331.156 33.3913L332.731 34.9565L332.206 36L327.481 33.913L321.707 32.3478L316.983 31.8261L273.413 31.3043L251.89 30.2609L240.342 28.6957L235.617 27.1304V26.6087L246.116 25.0435L260.814 19.8261L266.064 18.7826L275.512 17.7391L240.342 13.0435L210.945 8.34783L190.998 4.69565L170 0.521739V0Z" fill="#1E5482"/>
<path d="M150.617 818H200.032L204.763 818.533L232.625 819.6L265.217 821.733L307.273 826L334.609 829.733L353.534 832.4L374.561 836.133L404 841.467V842H5L6.57708 840.933L27.6047 834.533L49.1581 828.667L56.5178 827.6L69.6601 824.933L86.4822 821.733L113.818 819.6L135.372 818.533L150.617 818Z" fill="#1E5482"/>
<path d="M591.317 0H595V5.83478L591.317 7.42609L571.326 13.7913L557.122 18.0348L534.5 23.8696L515.035 28.6435L483.47 35.0087L464.531 38.1913L444.014 41.3739L427.706 43.4957L408.24 45.6174L382.989 47.7391L365.102 48.8L336.693 49.8609H298.815L270.933 48.8L251.994 47.7391L234.633 46.1478L224.111 45.6174L206.225 43.4957L196.755 42.4348L178.868 40.8435L164.664 40.313H141.516L124.682 40.8435L98.3775 42.9652L79.9646 45.087L73.6516 46.1478L53.6605 49.3304L41.0345 51.9826L25.7781 55.1652L4.73475 60.4696L0 61V54.1043L25.252 47.7391L54.7126 41.9043L74.7038 38.7217L91.5385 36.6L113.634 34.4783L131.521 33.4174H173.607L196.229 35.0087L228.32 38.7217L263.568 41.3739L282.507 42.4348L304.076 42.9652H335.115L351.95 42.4348L390.354 40.313L418.762 37.6609L444.014 34.4783L474.527 29.7043L497.675 25.4609L517.666 21.2174L533.974 16.9739L553.966 11.6696L575.535 5.30435L591.317 0Z" fill="#FACA4D"/>
<path d="M593.419 783L595 783.522V789.265L594.473 790.31L564.433 797.619L546.515 801.274L525.961 804.929L503.826 808.062L484.854 810.15L463.773 811.717L449.017 812.239H424.247L409.491 811.717L383.667 809.628L356.262 806.496L319.371 803.885L293.02 802.841H244.008L219.765 803.885L182.874 806.496L158.632 809.106L131.754 812.761L103.822 817.46L81.6873 821.637L61.6608 826.336L38.9991 832.08L23.7157 836.257L4.74314 842H0V836.779L5.27015 834.69L23.1887 829.469L37.9451 825.292L58.4987 820.071L72.7281 816.938L92.7546 812.761L115.416 808.584L134.916 805.451L154.942 802.841L178.658 800.23L202.901 798.142L218.711 797.097L247.17 796.053H294.601L322.533 797.097L365.221 800.23L398.95 803.885L416.869 804.929H457.976L477.476 803.885L498.556 801.796L517.002 799.186L539.663 795.531L561.798 790.832L577.608 787.177L593.419 783Z" fill="#FACA4D"/>
<path d="M158.605 0H206.948L221.823 4.21L238.186 8.42L259.011 13.1563L281.695 17.3663L285.414 17.8925V18.4188L275.002 19.4713L269.052 21.5763L260.87 25.7863L257.523 26.3125V25.26H254.548L235.583 21.5763L223.683 18.945L208.436 15.2613L192.445 11.0513L178.314 6.84125L163.439 2.105L158.605 0.52625V0Z" fill="#0D3A65"/>
<path d="M248 811H272.318L298.223 812.051L322.541 813.627L349.503 816.254L372.236 818.881L399.197 822.559L427.745 827.288L453.121 832.017L478.497 837.271L497 841.475V842H474.796L445.191 835.695L429.86 832.542L408.713 828.864L389.682 825.712L360.605 821.508L345.274 819.407L325.713 817.305L291.879 814.153L260.688 812.051L248 811.525V811Z" fill="#1F5583"/>
<path d="M272.611 18H281.086L287.973 19.0588L294.859 21.7059L304.395 27L320.286 29.1176L326.643 30.7059L331.411 33.3529L333 34.9412L332.47 36L327.703 33.8824L321.876 32.2941L317.108 31.7647L273.141 31.2353L251.422 30.1765L239.768 28.5882L235 27V26.4706L245.595 24.8824L260.427 19.5882L265.724 18.5294L272.611 18Z" fill="#F8D269"/>
<path d="M80 0H101.955L127.045 5.7037L147.432 9.85185L163.114 12.963L174.614 15.037L199.705 19.1852L228.455 23.3333L241 24.8889V25.9259L235.773 26.963V28L216.432 25.9259L200.227 23.8519L186.636 21.7778L167.818 18.6667L146.909 15.037L116.068 8.81481L99.8636 5.18519L80 0.518519V0Z" fill="#1E5482"/>
<path d="M268.907 20H283.884L289.233 21L297.791 25L301 27.5V28H288.698L263.558 27.5L255 27L256.07 25L259.279 22.5L265.698 20.5L268.907 20Z" fill="#113D66"/>
<path d="M237 29L244.402 30.0667L256.563 32.2L270.31 33.8H298.862L309.966 32.7333H316.839L323.713 33.8L329 35.4L327.414 35.9333L320.54 34.8667H313.138L296.218 37H270.31L257.092 35.4L245.46 32.7333L237 29.5333V29Z" fill="#F8D577"/>
<path d="M238.885 61.1854C238.813 60.9169 238.706 60.6804 238.566 60.4759C238.425 60.267 238.253 60.0902 238.048 59.9453C237.843 59.8004 237.609 59.6918 237.345 59.6193C237.081 59.5426 236.791 59.5043 236.476 59.5043C235.841 59.5043 235.291 59.6577 234.826 59.9645C234.366 60.2713 234.01 60.7187 233.759 61.3068C233.508 61.8906 233.382 62.6001 233.382 63.4354C233.382 64.2749 233.503 64.9908 233.746 65.5831C233.989 66.1754 234.341 66.6271 234.801 66.9382C235.261 67.2493 235.819 67.4048 236.476 67.4048C237.055 67.4048 237.545 67.3111 237.946 67.1236C238.351 66.9318 238.657 66.6612 238.866 66.3118C239.075 65.9624 239.179 65.5511 239.179 65.0781L239.767 65.1484H236.584V62.8409H242.228V64.5732C242.228 65.745 241.979 66.7486 241.481 67.5838C240.986 68.419 240.304 69.0604 239.435 69.5078C238.57 69.9553 237.575 70.179 236.45 70.179C235.201 70.179 234.104 69.9084 233.158 69.3672C232.212 68.826 231.475 68.0547 230.946 67.0533C230.418 66.0476 230.154 64.8544 230.154 63.4737C230.154 62.3999 230.314 61.4474 230.633 60.6165C230.953 59.7812 231.398 59.0739 231.969 58.4943C232.544 57.9148 233.209 57.4759 233.964 57.1776C234.722 56.8793 235.538 56.7301 236.412 56.7301C237.17 56.7301 237.875 56.8388 238.527 57.0561C239.184 57.2734 239.763 57.5803 240.266 57.9766C240.773 58.3729 241.184 58.8438 241.5 59.3892C241.815 59.9347 242.011 60.5334 242.088 61.1854H238.885ZM244.093 70V56.9091H249.501C250.481 56.9091 251.327 57.0859 252.039 57.4396C252.755 57.7891 253.306 58.2919 253.694 58.9482C254.082 59.6001 254.276 60.3736 254.276 61.2685C254.276 62.1761 254.078 62.9474 253.681 63.5824C253.285 64.2131 252.723 64.6946 251.994 65.027C251.265 65.3551 250.402 65.5192 249.405 65.5192H245.985V63.0263H248.817C249.294 63.0263 249.693 62.9645 250.012 62.8409C250.336 62.7131 250.581 62.5213 250.747 62.2656C250.914 62.0057 250.997 61.6733 250.997 61.2685C250.997 60.8636 250.914 60.5291 250.747 60.2649C250.581 59.9964 250.336 59.7962 250.012 59.6641C249.688 59.5277 249.29 59.4595 248.817 59.4595H247.257V70H244.093ZM251.463 64.017L254.723 70H251.272L248.076 64.017H251.463ZM258.843 70H255.442L259.859 56.9091H264.072L268.489 70H265.088L262.013 60.2074H261.911L258.843 70ZM258.389 64.848H265.497V67.2514H258.389V64.848ZM281.166 61.652H277.97C277.927 61.3239 277.84 61.0277 277.707 60.7635C277.575 60.4993 277.401 60.2734 277.183 60.0859C276.966 59.8984 276.708 59.7557 276.41 59.6577C276.116 59.5554 275.79 59.5043 275.432 59.5043C274.797 59.5043 274.249 59.6598 273.789 59.9709C273.333 60.282 272.982 60.7315 272.734 61.3196C272.492 61.9077 272.37 62.6193 272.37 63.4545C272.37 64.3239 272.494 65.0526 272.741 65.6406C272.992 66.2244 273.344 66.6655 273.796 66.9638C274.252 67.2578 274.791 67.4048 275.413 67.4048C275.762 67.4048 276.08 67.3601 276.365 67.2706C276.655 67.1811 276.908 67.0511 277.126 66.8807C277.347 66.706 277.528 66.495 277.669 66.2479C277.814 65.9964 277.914 65.7131 277.97 65.3977L281.166 65.4169C281.11 65.9964 280.942 66.5675 280.661 67.13C280.384 67.6925 280.002 68.206 279.516 68.6705C279.031 69.1307 278.438 69.4972 277.739 69.7699C277.045 70.0426 276.248 70.179 275.349 70.179C274.164 70.179 273.103 69.919 272.166 69.3991C271.232 68.875 270.495 68.1122 269.954 67.1108C269.413 66.1094 269.142 64.8906 269.142 63.4545C269.142 62.0142 269.417 60.7933 269.967 59.7919C270.516 58.7905 271.26 58.0298 272.198 57.5099C273.135 56.9901 274.185 56.7301 275.349 56.7301C276.141 56.7301 276.874 56.8409 277.548 57.0625C278.221 57.2798 278.813 57.5994 279.325 58.0213C279.836 58.4389 280.252 58.9524 280.571 59.5618C280.891 60.1712 281.089 60.8679 281.166 61.652ZM282.976 70V56.9091H292.104V59.4787H286.14V62.1634H291.637V64.7393H286.14V67.4304H292.104V70H282.976ZM300.784 70H297.384L301.801 56.9091H306.013L310.43 70H307.029L303.955 60.2074H303.853L300.784 70ZM300.331 64.848H307.438V67.2514H300.331V64.848ZM319.759 56.9091H322.917V65.353C322.917 66.3288 322.685 67.179 322.22 67.9034C321.756 68.6236 321.108 69.1818 320.277 69.5781C319.446 69.9702 318.481 70.1662 317.381 70.1662C316.269 70.1662 315.297 69.9702 314.467 69.5781C313.636 69.1818 312.99 68.6236 312.53 67.9034C312.07 67.179 311.839 66.3288 311.839 65.353V56.9091H315.003V65.0781C315.003 65.5298 315.101 65.9325 315.297 66.2862C315.498 66.6399 315.777 66.9169 316.135 67.1172C316.493 67.3175 316.908 67.4176 317.381 67.4176C317.854 67.4176 318.268 67.3175 318.621 67.1172C318.979 66.9169 319.258 66.6399 319.459 66.2862C319.659 65.9325 319.759 65.5298 319.759 65.0781V56.9091ZM324.472 59.4787V56.9091H335.536V59.4787H331.567V70H328.448V59.4787H324.472ZM348.84 63.4545C348.84 64.8949 348.563 66.1158 348.009 67.1172C347.455 68.1186 346.705 68.8793 345.759 69.3991C344.817 69.919 343.76 70.179 342.588 70.179C341.412 70.179 340.353 69.9169 339.411 69.3928C338.47 68.8686 337.722 68.108 337.168 67.1108C336.618 66.1094 336.343 64.8906 336.343 63.4545C336.343 62.0142 336.618 60.7933 337.168 59.7919C337.722 58.7905 338.47 58.0298 339.411 57.5099C340.353 56.9901 341.412 56.7301 342.588 56.7301C343.76 56.7301 344.817 56.9901 345.759 57.5099C346.705 58.0298 347.455 58.7905 348.009 59.7919C348.563 60.7933 348.84 62.0142 348.84 63.4545ZM345.605 63.4545C345.605 62.6023 345.484 61.8821 345.241 61.294C345.002 60.706 344.657 60.2607 344.206 59.9581C343.758 59.6555 343.219 59.5043 342.588 59.5043C341.962 59.5043 341.423 59.6555 340.971 59.9581C340.519 60.2607 340.172 60.706 339.929 61.294C339.691 61.8821 339.571 62.6023 339.571 63.4545C339.571 64.3068 339.691 65.027 339.929 65.6151C340.172 66.2031 340.519 66.6484 340.971 66.951C341.423 67.2536 341.962 67.4048 342.588 67.4048C343.219 67.4048 343.758 67.2536 344.206 66.951C344.657 66.6484 345.002 66.2031 345.241 65.6151C345.484 65.027 345.605 64.3068 345.605 63.4545ZM258.385 82.8338C258.343 82.3651 258.153 82.0007 257.816 81.7408C257.484 81.4766 257.009 81.3445 256.391 81.3445C255.982 81.3445 255.641 81.3977 255.368 81.5043C255.095 81.6108 254.891 81.7578 254.754 81.9453C254.618 82.1286 254.548 82.3395 254.544 82.5781C254.535 82.7741 254.573 82.9467 254.659 83.0959C254.748 83.245 254.876 83.3771 255.042 83.4922C255.213 83.603 255.417 83.701 255.656 83.7862C255.894 83.8714 256.163 83.946 256.461 84.0099L257.586 84.2656C258.234 84.4062 258.805 84.5938 259.299 84.8281C259.798 85.0625 260.215 85.3416 260.552 85.6655C260.893 85.9893 261.151 86.3622 261.325 86.7841C261.5 87.206 261.59 87.679 261.594 88.2031C261.59 89.0298 261.381 89.7393 260.968 90.3317C260.554 90.924 259.96 91.3778 259.184 91.6932C258.413 92.0085 257.482 92.1662 256.391 92.1662C255.296 92.1662 254.341 92.0021 253.527 91.674C252.713 91.3459 252.08 90.8473 251.629 90.1783C251.177 89.5092 250.945 88.6634 250.932 87.6406H253.962C253.987 88.0625 254.1 88.4141 254.301 88.6953C254.501 88.9766 254.776 89.1896 255.125 89.3345C255.479 89.4794 255.888 89.5518 256.352 89.5518C256.779 89.5518 257.141 89.4943 257.439 89.3793C257.742 89.2642 257.974 89.1044 258.136 88.8999C258.298 88.6953 258.381 88.4609 258.385 88.1967C258.381 87.9496 258.304 87.7386 258.155 87.5639C258.006 87.3849 257.776 87.2315 257.465 87.1037C257.158 86.9716 256.766 86.8501 256.289 86.7393L254.921 86.4197C253.787 86.1598 252.894 85.7401 252.242 85.1605C251.59 84.5767 251.267 83.7884 251.271 82.7955C251.267 81.9858 251.484 81.2763 251.923 80.6669C252.362 80.0575 252.969 79.5824 253.744 79.2415C254.52 78.9006 255.404 78.7301 256.397 78.7301C257.411 78.7301 258.291 78.9027 259.037 79.2479C259.787 79.5888 260.369 80.0682 260.782 80.6861C261.195 81.304 261.406 82.0199 261.415 82.8338H258.385ZM263.192 92V78.9091H272.32V81.4787H266.356V84.1634H271.853V86.7393H266.356V89.4304H272.32V92H263.192ZM274.301 92V78.9091H279.709C280.689 78.9091 281.535 79.0859 282.247 79.4396C282.963 79.7891 283.514 80.2919 283.902 80.9482C284.29 81.6001 284.484 82.3736 284.484 83.2685C284.484 84.1761 284.286 84.9474 283.889 85.5824C283.493 86.2131 282.931 86.6946 282.202 87.027C281.473 87.3551 280.61 87.5192 279.613 87.5192H276.193V85.0263H279.025C279.502 85.0263 279.901 84.9645 280.22 84.8409C280.544 84.7131 280.789 84.5213 280.955 84.2656C281.122 84.0057 281.205 83.6733 281.205 83.2685C281.205 82.8636 281.122 82.5291 280.955 82.2649C280.789 81.9964 280.544 81.7962 280.22 81.6641C279.896 81.5277 279.498 81.4595 279.025 81.4595H277.465V92H274.301ZM281.671 86.017L284.931 92H281.48L278.284 86.017H281.671ZM288.805 78.9091L291.732 88.4972H291.841L294.769 78.9091H298.31L293.893 92H289.681L285.264 78.9091H288.805ZM302.883 78.9091V92H299.719V78.9091H302.883ZM316.752 83.652H313.556C313.514 83.3239 313.426 83.0277 313.294 82.7635C313.162 82.4993 312.988 82.2734 312.77 82.0859C312.553 81.8984 312.295 81.7557 311.997 81.6577C311.703 81.5554 311.377 81.5043 311.019 81.5043C310.384 81.5043 309.836 81.6598 309.376 81.9709C308.92 82.282 308.569 82.7315 308.321 83.3196C308.078 83.9077 307.957 84.6193 307.957 85.4545C307.957 86.3239 308.081 87.0526 308.328 87.6406C308.579 88.2244 308.931 88.6655 309.382 88.9638C309.838 89.2578 310.377 89.4048 311 89.4048C311.349 89.4048 311.667 89.3601 311.952 89.2706C312.242 89.1811 312.495 89.0511 312.713 88.8807C312.934 88.706 313.115 88.495 313.256 88.2479C313.401 87.9964 313.501 87.7131 313.556 87.3977L316.752 87.4169C316.697 87.9964 316.529 88.5675 316.248 89.13C315.971 89.6925 315.589 90.206 315.103 90.6705C314.618 91.1307 314.025 91.4972 313.326 91.7699C312.632 92.0426 311.835 92.179 310.936 92.179C309.751 92.179 308.69 91.919 307.752 91.3991C306.819 90.875 306.082 90.1122 305.541 89.1108C305 88.1094 304.729 86.8906 304.729 85.4545C304.729 84.0142 305.004 82.7933 305.554 81.7919C306.103 80.7905 306.847 80.0298 307.784 79.5099C308.722 78.9901 309.772 78.7301 310.936 78.7301C311.728 78.7301 312.461 78.8409 313.135 79.0625C313.808 79.2798 314.4 79.5994 314.912 80.0213C315.423 80.4389 315.838 80.9524 316.158 81.5618C316.478 82.1712 316.676 82.8679 316.752 83.652ZM318.563 92V78.9091H327.691V81.4787H321.727V84.1634H327.224V86.7393H321.727V89.4304H327.691V92H318.563Z" fill="black"/>
</g>
<defs>
<clipPath id="clip0_9_589">
<rect width="595" height="842" fill="white"/>
</clipPath>
</defs>
</svg>
