<svg width="595" height="121" viewBox="0 0 595 121" fill="none" xmlns="http://www.w3.org/2000/svg">
<path d="M594.473 68H595V121H5L6.58036 119.94L27.6518 113.58L49.25 107.75L77.1696 100.86L98.2411 96.62L125.634 91.85L146.705 88.67L167.777 86.02L189.902 83.9L219.929 81.78L244.161 80.72H293.152L319.491 81.78L356.366 84.43L389.554 88.14L409.571 89.73L424.321 90.26H449.08L463.83 89.73L490.696 87.61L512.295 84.96L538.634 80.72L559.705 76.48L579.723 71.71L594.473 68Z" fill="#0D3A65"/>
<path d="M592.894 0H594.473L595 68.3913L585.522 71.0217L563.934 76.2826L546.031 79.9652L525.496 83.6478L503.381 86.8044L484.425 88.9087L463.363 90.487L448.619 91.013H423.872L409.128 90.487L383.327 88.3826L355.947 85.2261L319.089 82.5957L292.761 81.5435H243.792L219.571 82.5957L182.712 85.2261L158.491 87.8565L131.637 91.5391L103.73 96.2739L81.615 100.483L61.6062 105.217L38.9646 111.004L23.6947 115.213L4.73894 121H0V115.739L5.26549 113.635L23.1681 108.374L37.9115 104.165L58.4469 98.9044L72.6637 95.7478L92.6726 91.5391L115.314 87.3304L134.796 84.1739L154.805 81.5435L178.5 78.913L202.721 76.8087L218.518 75.7565L246.951 74.7044H294.341L322.248 75.7565L351.208 77.8609H358.053L370.164 76.8087L400.177 72.0739L420.186 68.3913L441.774 63.6565L460.204 58.9217L480.212 53.1348L500.221 46.2957L516.018 40.5087L541.292 29.4609L549.717 25.2522L561.827 18.9391L572.885 12.6261L584.996 5.26087L592.894 0Z" fill="#F0E7C2"/>
<path d="M150.617 97H200.032L204.763 97.5333L232.624 98.6L265.217 100.733L307.273 105L334.609 108.733L353.534 111.4L374.561 115.133L404 120.467V121H5L6.57708 119.933L27.6047 113.533L49.1581 107.667L56.5178 106.6L69.6601 103.933L86.4822 100.733L113.818 98.6L135.372 97.5333L150.617 97Z" fill="#1E5482"/>
<path d="M593.419 62L595 62.5221V68.2655L594.473 69.3097L564.433 76.6195L546.515 80.2743L525.961 83.9292L503.826 87.0619L484.854 89.1504L463.773 90.7168L449.017 91.2389H424.247L409.491 90.7168L383.667 88.6283L356.262 85.4956L319.371 82.885L293.02 81.8407H244.008L219.765 82.885L182.874 85.4956L158.632 88.1062L131.754 91.7611L103.822 96.4602L81.6873 100.637L61.6608 105.336L38.9991 111.08L23.7157 115.257L4.74314 121L0 121V115.779L5.27015 113.69L23.1887 108.469L37.9451 104.292L58.4987 99.0708L72.7281 95.938L92.7546 91.7611L115.416 87.5841L134.916 84.4513L154.942 81.8407L178.658 79.2301L202.901 77.1416L218.711 76.0973L247.17 75.0531H294.601L322.533 76.0973L365.221 79.2301L398.95 82.885L416.869 83.9292H457.976L477.476 82.885L498.556 80.7965L517.002 78.1858L539.663 74.531L561.798 69.8319L577.608 66.177L593.419 62Z" fill="#FACA4D"/>
<path d="M248 90H272.318L298.223 91.0508L322.541 92.6271L349.503 95.2542L372.236 97.8814L399.197 101.559L427.745 106.288L453.121 111.017L478.497 116.271L497 120.475V121H474.796L445.191 114.695L429.86 111.542L408.713 107.864L389.682 104.712L360.605 100.508L345.274 98.4068L325.713 96.3051L291.879 93.1525L260.688 91.0508L248 90.5254V90Z" fill="#1F5583"/>
</svg>
