<svg width="595" height="121" viewBox="0 0 595 121" fill="none" xmlns="http://www.w3.org/2000/svg">
<path d="M238.677 87.4673V87.8535H235.266V87.4673H238.677ZM237.163 85.8779V89.501H236.752V85.8779H237.163Z" fill="black"/>
<path d="M242.717 88.3936V88.7422H239.193V88.5063L241.493 85.0234H241.835L241.35 85.8677L239.692 88.3936H242.717ZM241.941 85.0234V90H241.534V85.0234H241.941Z" fill="black"/>
<path d="M246.6 88.3936V88.7422H243.076V88.5063L245.376 85.0234H245.718L245.232 85.8677L243.575 88.3936H246.6ZM245.824 85.0234V90H245.417V85.0234H245.824Z" fill="black"/>
<path d="M251.969 85.0234V85.2593L249.843 90H249.419L251.532 85.3755H248.698V85.0234H251.969Z" fill="black"/>
<path d="M253.388 87.5391L253.066 87.4468L253.309 85.0234H255.797V85.4062H253.658L253.483 87.0811C253.57 87.0195 253.695 86.9591 253.859 86.8999C254.026 86.8384 254.213 86.8076 254.42 86.8076C254.641 86.8076 254.841 86.8452 255.021 86.9204C255.204 86.9933 255.36 87.1004 255.49 87.2417C255.62 87.3807 255.72 87.5493 255.791 87.7476C255.861 87.9435 255.896 88.1657 255.896 88.4141C255.896 88.6533 255.867 88.8732 255.808 89.0737C255.748 89.2743 255.658 89.4497 255.538 89.6001C255.417 89.7482 255.263 89.8633 255.076 89.9453C254.889 90.0273 254.667 90.0684 254.41 90.0684C254.211 90.0684 254.025 90.041 253.849 89.9863C253.676 89.9294 253.521 89.8439 253.384 89.73C253.248 89.616 253.136 89.4725 253.049 89.2993C252.965 89.1261 252.913 88.9233 252.892 88.6909H253.285C253.312 88.9142 253.373 89.1022 253.466 89.2549C253.56 89.4076 253.685 89.5226 253.842 89.6001C254.002 89.6776 254.191 89.7163 254.41 89.7163C254.587 89.7163 254.742 89.6878 254.875 89.6309C255.009 89.5739 255.121 89.4907 255.209 89.3813C255.301 89.2697 255.369 89.1341 255.415 88.9746C255.462 88.8128 255.486 88.6283 255.486 88.4209C255.486 88.2432 255.461 88.0802 255.411 87.9321C255.361 87.7817 255.287 87.6507 255.189 87.5391C255.093 87.4251 254.975 87.3374 254.833 87.2759C254.692 87.2144 254.53 87.1836 254.348 87.1836C254.111 87.1836 253.922 87.2155 253.781 87.2793C253.642 87.3431 253.511 87.4297 253.388 87.5391Z" fill="black"/>
<path d="M259.735 85.0234V85.2593L257.609 90H257.185L259.297 85.3755H256.464V85.0234H259.735Z" fill="black"/>
<path d="M263.84 88.3936V88.7422H260.316V88.5063L262.616 85.0234H262.958L262.473 85.8677L260.815 88.3936H263.84ZM263.064 85.0234V90H262.657V85.0234H263.064Z" fill="black"/>
<path d="M268.047 85.0029V90H267.641V85.519L266.287 86.0215V85.6353L267.979 85.0029H268.047Z" fill="black"/>
<path d="M273.092 85.0234V85.2593L270.966 90H270.542L272.655 85.3755H269.821V85.0234H273.092Z" fill="black"/>
<path d="M274.822 87.2861H275.239C275.494 87.2861 275.707 87.2428 275.878 87.1562C276.051 87.0674 276.181 86.95 276.268 86.8042C276.356 86.6584 276.401 86.4966 276.401 86.3188C276.401 86.1183 276.363 85.9429 276.288 85.7925C276.213 85.6398 276.098 85.5213 275.943 85.437C275.79 85.3504 275.594 85.3071 275.355 85.3071C275.145 85.3071 274.958 85.3481 274.794 85.4302C274.63 85.5122 274.5 85.6296 274.405 85.7822C274.309 85.9349 274.261 86.1172 274.261 86.3291H273.854C273.854 86.0579 273.919 85.8198 274.049 85.6147C274.179 85.4074 274.358 85.2456 274.586 85.1294C274.814 85.0132 275.07 84.9551 275.355 84.9551C275.649 84.9551 275.904 85.0086 276.121 85.1157C276.339 85.2228 276.508 85.3789 276.626 85.584C276.747 85.7891 276.808 86.0386 276.808 86.3325C276.808 86.4829 276.775 86.631 276.708 86.7769C276.645 86.9227 276.549 87.0549 276.421 87.1733C276.294 87.2896 276.135 87.383 275.946 87.4536C275.757 87.5243 275.537 87.5596 275.287 87.5596H274.822V87.2861ZM274.822 87.6382V87.3682H275.287C275.571 87.3682 275.815 87.4012 276.018 87.4673C276.221 87.5311 276.387 87.6222 276.517 87.7407C276.649 87.8569 276.746 87.9925 276.808 88.1475C276.869 88.3024 276.9 88.4688 276.9 88.6465C276.9 88.8743 276.862 89.076 276.787 89.2515C276.712 89.4269 276.605 89.5762 276.466 89.6992C276.329 89.82 276.167 89.9123 275.98 89.9761C275.796 90.0376 275.593 90.0684 275.372 90.0684C275.172 90.0684 274.976 90.0387 274.784 89.9795C274.595 89.9202 274.424 89.8325 274.271 89.7163C274.121 89.5978 274.001 89.4497 273.913 89.272C273.824 89.092 273.779 88.8846 273.779 88.6499H274.186C274.186 88.8595 274.236 89.0452 274.336 89.207C274.437 89.3665 274.576 89.4919 274.753 89.583C274.933 89.6719 275.14 89.7163 275.372 89.7163C275.607 89.7163 275.807 89.6764 275.974 89.5967C276.142 89.5146 276.271 89.395 276.36 89.2378C276.449 89.0806 276.493 88.888 276.493 88.6602C276.493 88.4209 276.44 88.2261 276.333 88.0757C276.228 87.9253 276.081 87.8148 275.892 87.7441C275.705 87.6735 275.487 87.6382 275.239 87.6382H274.822Z" fill="black"/>
<path d="M281.08 88.3936V88.7422H277.556V88.5063L279.856 85.0234H280.198L279.713 85.8677L278.055 88.3936H281.08ZM280.304 85.0234V90H279.897V85.0234H280.304Z" fill="black"/>
<path d="M282.276 87.5391L281.955 87.4468L282.198 85.0234H284.686V85.4062H282.546L282.372 87.0811C282.459 87.0195 282.584 86.9591 282.748 86.8999C282.914 86.8384 283.101 86.8076 283.309 86.8076C283.53 86.8076 283.73 86.8452 283.91 86.9204C284.092 86.9933 284.249 87.1004 284.378 87.2417C284.508 87.3807 284.609 87.5493 284.679 87.7476C284.75 87.9435 284.785 88.1657 284.785 88.4141C284.785 88.6533 284.756 88.8732 284.696 89.0737C284.637 89.2743 284.547 89.4497 284.426 89.6001C284.306 89.7482 284.152 89.8633 283.965 89.9453C283.778 90.0273 283.556 90.0684 283.298 90.0684C283.1 90.0684 282.913 90.041 282.738 89.9863C282.565 89.9294 282.41 89.8439 282.273 89.73C282.136 89.616 282.025 89.4725 281.938 89.2993C281.854 89.1261 281.801 88.9233 281.781 88.6909H282.174C282.201 88.9142 282.262 89.1022 282.355 89.2549C282.448 89.4076 282.574 89.5226 282.731 89.6001C282.89 89.6776 283.08 89.7163 283.298 89.7163C283.476 89.7163 283.631 89.6878 283.763 89.6309C283.898 89.5739 284.009 89.4907 284.098 89.3813C284.189 89.2697 284.258 89.1341 284.303 88.9746C284.351 88.8128 284.375 88.6283 284.375 88.4209C284.375 88.2432 284.35 88.0802 284.3 87.9321C284.25 87.7817 284.176 87.6507 284.078 87.5391C283.982 87.4251 283.863 87.3374 283.722 87.2759C283.581 87.2144 283.419 87.1836 283.237 87.1836C283 87.1836 282.811 87.2155 282.669 87.2793C282.53 87.3431 282.399 87.4297 282.276 87.5391Z" fill="black"/>
<path d="M288.559 87.0845V87.9219C288.559 88.2865 288.524 88.6043 288.456 88.8755C288.388 89.1444 288.287 89.3677 288.155 89.5454C288.025 89.7209 287.866 89.8519 287.677 89.9385C287.49 90.0251 287.276 90.0684 287.034 90.0684C286.843 90.0684 286.667 90.041 286.508 89.9863C286.348 89.9316 286.206 89.8485 286.081 89.7368C285.958 89.6229 285.853 89.4805 285.766 89.3096C285.68 89.1387 285.613 88.9382 285.568 88.708C285.522 88.4756 285.5 88.2135 285.5 87.9219V87.0845C285.5 86.7176 285.534 86.4009 285.602 86.1343C285.673 85.8677 285.773 85.6466 285.903 85.4712C286.035 85.2957 286.196 85.1659 286.385 85.0815C286.574 84.995 286.788 84.9517 287.027 84.9517C287.219 84.9517 287.394 84.9801 287.554 85.0371C287.715 85.0918 287.858 85.1738 287.981 85.2832C288.106 85.3926 288.211 85.5327 288.295 85.7036C288.382 85.8722 288.447 86.0716 288.49 86.3018C288.536 86.5319 288.559 86.7928 288.559 87.0845ZM288.152 87.9697V87.0332C288.152 86.8076 288.136 86.6025 288.104 86.418C288.074 86.2334 288.03 86.0716 287.971 85.9326C287.911 85.7936 287.836 85.6774 287.745 85.584C287.656 85.4906 287.551 85.4211 287.431 85.3755C287.312 85.3276 287.178 85.3037 287.027 85.3037C286.843 85.3037 286.68 85.3413 286.539 85.4165C286.4 85.4894 286.283 85.5988 286.19 85.7446C286.097 85.8882 286.026 86.0682 285.978 86.2847C285.932 86.5011 285.91 86.7507 285.91 87.0332V87.9697C285.91 88.193 285.924 88.397 285.954 88.5815C285.984 88.7638 286.029 88.9256 286.091 89.0669C286.152 89.2082 286.228 89.3278 286.316 89.4258C286.408 89.5215 286.512 89.5944 286.631 89.6445C286.752 89.6924 286.886 89.7163 287.034 89.7163C287.223 89.7163 287.387 89.6787 287.526 89.6035C287.665 89.526 287.782 89.4132 287.875 89.2651C287.968 89.1147 288.038 88.9313 288.083 88.7148C288.129 88.4961 288.152 88.2477 288.152 87.9697Z" fill="black"/>
<path d="M289.902 89.354V89.8325C289.902 90.0422 289.859 90.2438 289.772 90.4375C289.685 90.6335 289.568 90.7987 289.42 90.9331L289.181 90.7554C289.251 90.6597 289.311 90.564 289.358 90.4683C289.406 90.3748 289.442 90.2769 289.464 90.1743C289.489 90.0718 289.502 89.9613 289.502 89.8428V89.354H289.902Z" fill="black"/>
<path d="M295.695 87.4673V87.8535H292.284V87.4673H295.695ZM294.181 85.8779V89.501H293.771V85.8779H294.181Z" fill="black"/>
<path d="M299.735 88.3936V88.7422H296.211V88.5063L298.512 85.0234H298.854L298.368 85.8677L296.71 88.3936H299.735ZM298.959 85.0234V90H298.553V85.0234H298.959Z" fill="black"/>
<path d="M303.618 88.3936V88.7422H300.094V88.5063L302.395 85.0234H302.736L302.251 85.8677L300.593 88.3936H303.618ZM302.842 85.0234V90H302.436V85.0234H302.842Z" fill="black"/>
<path d="M307.826 85.0029V90H307.419V85.519L306.065 86.0215V85.6353L307.757 85.0029H307.826Z" fill="black"/>
<path d="M312.922 89.6479V90H309.808V89.6821L311.438 87.833C311.641 87.6029 311.803 87.4012 311.924 87.228C312.045 87.0526 312.131 86.8931 312.184 86.7495C312.238 86.6037 312.266 86.4624 312.266 86.3257C312.266 86.1252 312.226 85.9486 312.146 85.7959C312.069 85.6432 311.952 85.5236 311.797 85.437C311.642 85.3504 311.451 85.3071 311.223 85.3071C310.995 85.3071 310.797 85.3561 310.628 85.4541C310.46 85.5521 310.33 85.6888 310.239 85.8643C310.15 86.0374 310.105 86.2345 310.105 86.4556H309.699C309.699 86.1821 309.759 85.9315 309.88 85.7036C310.003 85.4757 310.178 85.2946 310.406 85.1602C310.634 85.0234 310.906 84.9551 311.223 84.9551C311.524 84.9551 311.783 85.0086 311.999 85.1157C312.215 85.2205 312.382 85.3721 312.498 85.5703C312.617 85.7686 312.676 86.0078 312.676 86.2881C312.676 86.4385 312.648 86.59 312.594 86.7427C312.541 86.8953 312.468 87.048 312.375 87.2007C312.284 87.3511 312.179 87.5003 312.061 87.6484C311.944 87.7965 311.822 87.9424 311.695 88.0859L310.307 89.6479H312.922Z" fill="black"/>
<path d="M316.753 85.0234V85.2593L314.627 90H314.204L316.316 85.3755H313.482V85.0234H316.753Z" fill="black"/>
<path d="M320.633 88.6807C320.633 88.9814 320.562 89.2355 320.421 89.4429C320.282 89.6502 320.093 89.8063 319.854 89.9111C319.614 90.016 319.347 90.0684 319.05 90.0684C318.752 90.0684 318.483 90.016 318.244 89.9111C318.004 89.8063 317.814 89.6502 317.673 89.4429C317.534 89.2355 317.464 88.9814 317.464 88.6807C317.464 88.4824 317.503 88.3024 317.581 88.1406C317.66 87.9766 317.771 87.8353 317.912 87.7168C318.056 87.596 318.223 87.5026 318.415 87.4365C318.606 87.3704 318.816 87.3374 319.043 87.3374C319.344 87.3374 319.614 87.3955 319.854 87.5117C320.093 87.6257 320.282 87.7829 320.421 87.9834C320.562 88.1839 320.633 88.4163 320.633 88.6807ZM320.223 88.6807C320.223 88.4688 320.171 88.283 320.069 88.1235C319.966 87.964 319.826 87.841 319.648 87.7544C319.471 87.6655 319.269 87.6211 319.043 87.6211C318.816 87.6211 318.614 87.6655 318.438 87.7544C318.263 87.841 318.125 87.964 318.025 88.1235C317.925 88.283 317.875 88.4688 317.875 88.6807C317.875 88.9017 317.924 89.0897 318.021 89.2446C318.122 89.3996 318.261 89.5169 318.438 89.5967C318.616 89.6764 318.82 89.7163 319.05 89.7163C319.28 89.7163 319.483 89.6764 319.659 89.5967C319.834 89.5169 319.972 89.3996 320.072 89.2446C320.173 89.0897 320.223 88.9017 320.223 88.6807ZM320.503 86.3018C320.503 86.5456 320.438 86.7632 320.308 86.9546C320.181 87.1437 320.007 87.293 319.789 87.4023C319.57 87.5094 319.323 87.563 319.047 87.563C318.769 87.563 318.519 87.5094 318.298 87.4023C318.08 87.293 317.906 87.1437 317.779 86.9546C317.653 86.7632 317.591 86.5456 317.591 86.3018C317.591 86.0124 317.653 85.7686 317.779 85.5703C317.906 85.3698 318.08 85.2171 318.298 85.1123C318.517 85.0075 318.765 84.9551 319.043 84.9551C319.319 84.9551 319.566 85.0075 319.785 85.1123C320.006 85.2171 320.181 85.3698 320.308 85.5703C320.438 85.7686 320.503 86.0124 320.503 86.3018ZM320.096 86.2983C320.096 86.1047 320.049 85.9338 319.956 85.7856C319.865 85.6375 319.74 85.5213 319.58 85.437C319.423 85.3504 319.244 85.3071 319.043 85.3071C318.841 85.3071 318.661 85.347 318.503 85.4268C318.348 85.5065 318.225 85.6204 318.134 85.7686C318.045 85.9167 318.001 86.0933 318.001 86.2983C318.001 86.4989 318.045 86.672 318.134 86.8179C318.225 86.9614 318.35 87.0731 318.507 87.1528C318.664 87.2326 318.844 87.2725 319.047 87.2725C319.25 87.2725 319.43 87.2326 319.587 87.1528C319.744 87.0731 319.868 86.9614 319.959 86.8179C320.051 86.672 320.096 86.4989 320.096 86.2983Z" fill="black"/>
<path d="M326.45 88.3936V88.7422H322.926V88.5063L325.227 85.0234H325.568L325.083 85.8677L323.425 88.3936H326.45ZM325.674 85.0234V90H325.268V85.0234H325.674Z" fill="black"/>
<path d="M330.111 85.0234V85.2593L327.985 90H327.561L329.673 85.3755H326.84V85.0234H330.111Z" fill="black"/>
<path d="M333.929 87.0845V87.9219C333.929 88.2865 333.895 88.6043 333.826 88.8755C333.758 89.1444 333.658 89.3677 333.525 89.5454C333.396 89.7209 333.236 89.8519 333.047 89.9385C332.86 90.0251 332.646 90.0684 332.404 90.0684C332.213 90.0684 332.037 90.041 331.878 89.9863C331.718 89.9316 331.576 89.8485 331.451 89.7368C331.328 89.6229 331.223 89.4805 331.136 89.3096C331.05 89.1387 330.984 88.9382 330.938 88.708C330.892 88.4756 330.87 88.2135 330.87 87.9219V87.0845C330.87 86.7176 330.904 86.4009 330.972 86.1343C331.043 85.8677 331.143 85.6466 331.273 85.4712C331.405 85.2957 331.566 85.1659 331.755 85.0815C331.944 84.995 332.158 84.9517 332.397 84.9517C332.589 84.9517 332.764 84.9801 332.924 85.0371C333.086 85.0918 333.228 85.1738 333.351 85.2832C333.476 85.3926 333.581 85.5327 333.666 85.7036C333.752 85.8722 333.817 86.0716 333.86 86.3018C333.906 86.5319 333.929 86.7928 333.929 87.0845ZM333.522 87.9697V87.0332C333.522 86.8076 333.506 86.6025 333.474 86.418C333.444 86.2334 333.4 86.0716 333.341 85.9326C333.282 85.7936 333.206 85.6774 333.115 85.584C333.026 85.4906 332.922 85.4211 332.801 85.3755C332.682 85.3276 332.548 85.3037 332.397 85.3037C332.213 85.3037 332.05 85.3413 331.909 85.4165C331.77 85.4894 331.653 85.5988 331.56 85.7446C331.467 85.8882 331.396 86.0682 331.348 86.2847C331.303 86.5011 331.28 86.7507 331.28 87.0332V87.9697C331.28 88.193 331.295 88.397 331.324 88.5815C331.354 88.7638 331.399 88.9256 331.461 89.0669C331.522 89.2082 331.598 89.3278 331.687 89.4258C331.778 89.5215 331.882 89.5944 332.001 89.6445C332.122 89.6924 332.256 89.7163 332.404 89.7163C332.593 89.7163 332.757 89.6787 332.896 89.6035C333.035 89.526 333.152 89.4132 333.245 89.2651C333.339 89.1147 333.408 88.9313 333.454 88.7148C333.499 88.4961 333.522 88.2477 333.522 87.9697Z" fill="black"/>
<path d="M338.099 88.3936V88.7422H334.575V88.5063L336.875 85.0234H337.217L336.731 85.8677L335.074 88.3936H338.099ZM337.323 85.0234V90H336.916V85.0234H337.323Z" fill="black"/>
<path d="M339.257 89.6787H339.346C339.708 89.6787 340.012 89.6263 340.255 89.5215C340.499 89.4144 340.694 89.2674 340.84 89.0806C340.988 88.8914 341.094 88.6704 341.158 88.4175C341.222 88.1646 341.253 87.89 341.253 87.5938V86.8999C341.253 86.6379 341.225 86.4077 341.168 86.2095C341.111 86.0112 341.03 85.846 340.925 85.7139C340.82 85.5794 340.696 85.478 340.553 85.4097C340.411 85.3413 340.254 85.3071 340.081 85.3071C339.91 85.3071 339.755 85.3436 339.616 85.4165C339.479 85.4894 339.363 85.5908 339.268 85.7207C339.174 85.8483 339.101 85.9953 339.049 86.1616C338.999 86.3257 338.974 86.5 338.974 86.6846C338.974 86.8532 338.996 87.0173 339.042 87.1768C339.09 87.334 339.159 87.4764 339.25 87.604C339.342 87.7293 339.453 87.8296 339.585 87.9048C339.72 87.9777 339.875 88.0142 340.05 88.0142C340.249 88.0142 340.424 87.9766 340.577 87.9014C340.732 87.8262 340.863 87.7293 340.97 87.6108C341.079 87.4901 341.162 87.3602 341.219 87.2212C341.278 87.0799 341.31 86.9432 341.315 86.811L341.52 86.8076C341.52 87.015 341.481 87.2132 341.404 87.4023C341.329 87.5892 341.222 87.7555 341.083 87.9014C340.946 88.0449 340.785 88.1589 340.601 88.2432C340.416 88.3275 340.217 88.3696 340.002 88.3696C339.77 88.3696 339.564 88.3241 339.384 88.2329C339.206 88.1395 339.057 88.0142 338.936 87.8569C338.818 87.6974 338.728 87.5186 338.666 87.3203C338.604 87.1221 338.574 86.9159 338.574 86.7017C338.574 86.4624 338.607 86.238 338.673 86.0283C338.741 85.8164 338.84 85.6307 338.97 85.4712C339.1 85.3094 339.257 85.1829 339.442 85.0918C339.629 85.0007 339.84 84.9551 340.074 84.9551C340.341 84.9551 340.573 85.0041 340.771 85.1021C340.97 85.1978 341.134 85.3345 341.264 85.5122C341.396 85.6899 341.494 85.8996 341.558 86.1411C341.624 86.3826 341.657 86.6493 341.657 86.9409V87.334C341.657 87.6279 341.634 87.9093 341.588 88.1782C341.543 88.4471 341.466 88.6955 341.359 88.9233C341.255 89.1489 341.113 89.3449 340.936 89.5112C340.758 89.6776 340.538 89.8075 340.276 89.9009C340.014 89.992 339.704 90.0376 339.346 90.0376H339.254L339.257 89.6787Z" fill="black"/>
<path d="M345.693 89.6479V90H342.58V89.6821L344.21 87.833C344.413 87.6029 344.575 87.4012 344.695 87.228C344.816 87.0526 344.903 86.8931 344.955 86.7495C345.01 86.6037 345.037 86.4624 345.037 86.3257C345.037 86.1252 344.997 85.9486 344.917 85.7959C344.84 85.6432 344.724 85.5236 344.569 85.437C344.414 85.3504 344.222 85.3071 343.995 85.3071C343.767 85.3071 343.569 85.3561 343.4 85.4541C343.231 85.5521 343.101 85.6888 343.01 85.8643C342.921 86.0374 342.877 86.2345 342.877 86.4556H342.47C342.47 86.1821 342.531 85.9315 342.651 85.7036C342.774 85.4757 342.95 85.2946 343.178 85.1602C343.406 85.0234 343.678 84.9551 343.995 84.9551C344.295 84.9551 344.554 85.0086 344.771 85.1157C344.987 85.2205 345.153 85.3721 345.27 85.5703C345.388 85.7686 345.447 86.0078 345.447 86.2881C345.447 86.4385 345.42 86.59 345.365 86.7427C345.313 86.8953 345.24 87.048 345.146 87.2007C345.055 87.3511 344.951 87.5003 344.832 87.6484C344.716 87.7965 344.594 87.9424 344.466 88.0859L343.079 89.6479H345.693Z" fill="black"/>
<path d="M0 0H591L589.423 1.05882L572.071 6.88235L553.668 12.1765L531.585 18L514.759 22.2353L492.149 27L464.282 31.7647L439.569 35.4706L413.805 38.6471L390.144 40.7647L351.761 42.8824L334.935 43.4118H303.913L282.355 42.8824L248.178 40.7647L222.939 38.6471L196.124 35.4706L173.514 33.8824H131.45L106.738 35.4706L82.0249 38.1176L57.3123 41.8235L27.8674 47.6471L1.5774 54H0V0Z" fill="#0D3A65"/>
<path d="M591.317 0H595V5.81223L591.317 7.39738L571.326 13.738L557.122 17.9651L534.5 23.7773L515.035 28.5328L483.47 34.8734L464.531 38.0437L444.014 41.214L427.706 43.3275L408.241 45.441L382.988 47.5546L365.102 48.6114L336.693 49.6681H298.815L270.933 48.6114L251.994 47.5546L239.368 46.4978H227.268L206.225 49.1397L190.442 51.7817L172.555 54.952L157.299 58.1223L143.095 61.2926L134.677 63.4061L116.264 68.69L97.8515 74.5022L81.5429 80.3144L65.2343 86.655L52.6083 92.4672L42.0866 97.2227L32.0911 102.507L19.9912 108.847L13.1521 113.074L7.89125 116.245L0.526083 121H0V53.8952L25.252 47.5546L54.7126 41.7424L74.7038 38.5721L91.5385 36.4585L113.634 34.345L131.521 33.2882H173.607L196.229 34.8734L228.32 38.5721L263.568 41.214L282.507 42.2707L304.076 42.7991H335.115L351.95 42.2707L390.354 40.1572L418.762 37.5153L444.014 34.345L474.527 29.5895L497.675 25.3624L517.666 21.1354L533.974 16.9083L553.966 11.6245L575.535 5.28384L591.317 0Z" fill="#F0E7C2"/>
<path d="M170 0H591L589.425 1.04348L572.102 6.78261L553.729 12L543.756 14.6087L535.357 16.1739L517.509 19.8261L502.81 22.4348L488.112 24L450.317 26.087L423.02 26.6087H397.823L349.529 24.5217L326.431 22.9565L292.31 19.8261L288.111 19.3043L294.935 21.913L304.384 27.1304L320.132 29.2174L326.431 30.7826L331.156 33.3913L332.731 34.9565L332.206 36L327.481 33.913L321.707 32.3478L316.983 31.8261L273.413 31.3043L251.89 30.2609L240.342 28.6957L235.617 27.1304V26.6087L246.116 25.0435L260.814 19.8261L266.064 18.7826L275.512 17.7391L240.342 13.0435L210.945 8.34783L190.997 4.69565L170 0.521739V0Z" fill="#1E5482"/>
<path d="M591.317 0H595V5.83478L591.317 7.42609L571.326 13.7913L557.122 18.0348L534.5 23.8696L515.035 28.6435L483.47 35.0087L464.531 38.1913L444.014 41.3739L427.706 43.4957L408.241 45.6174L382.988 47.7391L365.102 48.8L336.693 49.8609H298.815L270.933 48.8L251.994 47.7391L234.633 46.1478L224.111 45.6174L206.225 43.4957L196.755 42.4348L178.868 40.8435L164.664 40.313H141.516L124.682 40.8435L98.3775 42.9652L79.9646 45.087L73.6516 46.1478L53.6605 49.3304L41.0345 51.9826L25.7781 55.1652L4.73475 60.4696L0 61V54.1043L25.252 47.7391L54.7126 41.9043L74.7038 38.7217L91.5385 36.6L113.634 34.4783L131.521 33.4174H173.607L196.229 35.0087L228.32 38.7217L263.568 41.3739L282.507 42.4348L304.076 42.9652H335.115L351.95 42.4348L390.354 40.313L418.762 37.6609L444.014 34.4783L474.527 29.7043L497.675 25.4609L517.666 21.2174L533.974 16.9739L553.966 11.6696L575.535 5.30435L591.317 0Z" fill="#FACA4D"/>
<path d="M158.604 0H206.948L221.823 4.21L238.186 8.42L259.011 13.1562L281.695 17.3663L285.414 17.8925V18.4188L275.001 19.4713L269.051 21.5763L260.87 25.7863L257.523 26.3125V25.26H254.548L235.583 21.5763L223.683 18.945L208.436 15.2613L192.445 11.0513L178.314 6.84125L163.439 2.105L158.604 0.52625V0Z" fill="#0D3A65"/>
<path d="M272.611 18H281.086L287.973 19.0588L294.859 21.7059L304.395 27L320.286 29.1176L326.643 30.7059L331.411 33.3529L333 34.9412L332.47 36L327.703 33.8824L321.876 32.2941L317.108 31.7647L273.141 31.2353L251.422 30.1765L239.768 28.5882L235 27V26.4706L245.595 24.8824L260.427 19.5882L265.724 18.5294L272.611 18Z" fill="#F8D269"/>
<path d="M80 0H101.955L127.045 5.7037L147.432 9.85185L163.114 12.963L174.614 15.037L199.705 19.1852L228.455 23.3333L241 24.8889V25.9259L235.773 26.963V28L216.432 25.9259L200.227 23.8519L186.636 21.7778L167.818 18.6667L146.909 15.037L116.068 8.81481L99.8636 5.18518L80 0.518519V0Z" fill="#1E5482"/>
<path d="M268.907 20H283.884L289.233 21L297.791 25L301 27.5V28H288.698L263.558 27.5L255 27L256.07 25L259.279 22.5L265.698 20.5L268.907 20Z" fill="#113D66"/>
<path d="M237 29L244.402 30.0667L256.563 32.2L270.31 33.8H298.862L309.966 32.7333H316.839L323.713 33.8L329 35.4L327.414 35.9333L320.54 34.8667H313.138L296.218 37H270.31L257.092 35.4L245.46 32.7333L237 29.5333V29Z" fill="#F8D577"/>
<path d="M214.892 59.7495V64.4561C214.715 64.6829 214.436 64.9292 214.054 65.1948C213.677 65.4604 213.185 65.6901 212.576 65.8838C211.967 66.0719 211.22 66.166 210.335 66.166C209.566 66.166 208.863 66.0387 208.227 65.7842C207.59 65.5241 207.042 65.145 206.583 64.647C206.124 64.1489 205.77 63.5402 205.521 62.8208C205.271 62.1014 205.147 61.2796 205.147 60.3555V59.5586C205.147 58.6344 205.263 57.8127 205.496 57.0933C205.734 56.3739 206.071 55.7651 206.508 55.2671C206.951 54.769 207.479 54.39 208.094 54.1299C208.714 53.8698 209.405 53.7397 210.169 53.7397C211.193 53.7397 212.034 53.9085 212.692 54.2461C213.356 54.5837 213.866 55.0485 214.22 55.6406C214.574 56.2272 214.795 56.9023 214.884 57.666H212.659C212.598 57.2454 212.477 56.8774 212.294 56.562C212.111 56.241 211.851 55.992 211.514 55.8149C211.182 55.6323 210.75 55.541 210.219 55.541C209.771 55.541 209.375 55.6296 209.032 55.8066C208.689 55.9837 208.401 56.241 208.168 56.5786C207.936 56.9162 207.759 57.334 207.637 57.832C207.521 58.3301 207.463 58.9001 207.463 59.542V60.3555C207.463 61.0029 207.529 61.5785 207.662 62.082C207.795 62.5801 207.986 63.0007 208.235 63.3438C208.489 63.6813 208.802 63.9386 209.173 64.1157C209.549 64.2873 209.975 64.373 210.451 64.373C210.883 64.373 211.24 64.3371 211.522 64.2651C211.81 64.1877 212.039 64.0964 212.211 63.9912C212.382 63.8861 212.515 63.7837 212.609 63.6841V61.418H210.21V59.7495H214.892Z" fill="black"/>
<path d="M217.05 53.9141H221.441C222.36 53.9141 223.149 54.0524 223.807 54.3291C224.466 54.6058 224.972 55.0153 225.326 55.5576C225.68 56.0999 225.857 56.7668 225.857 57.5581C225.857 58.1834 225.747 58.7257 225.525 59.1851C225.304 59.6444 224.991 60.029 224.587 60.3389C224.189 60.6488 223.719 60.8923 223.176 61.0693L222.462 61.4346H218.586L218.569 59.6333H221.466C221.937 59.6333 222.327 59.5503 222.637 59.3843C222.947 59.2183 223.179 58.9886 223.334 58.6953C223.494 58.402 223.575 58.0672 223.575 57.6909C223.575 57.2869 223.497 56.9383 223.342 56.645C223.187 56.3462 222.952 56.1165 222.637 55.9561C222.321 55.7956 221.923 55.7153 221.441 55.7153H219.333V66H217.05V53.9141ZM223.874 66L221.076 60.5879L223.492 60.5796L226.322 65.8838V66H223.874Z" fill="black"/>
<path d="M232.664 55.7485L229.219 66H226.804L231.319 53.9141H232.863L232.664 55.7485ZM235.544 66L232.083 55.7485L231.875 53.9141H233.428L237.968 66H235.544ZM235.387 61.5093V63.3105H228.904V61.5093H235.387Z" fill="black"/>
<path d="M246.136 62.0239H248.419C248.358 62.8319 248.134 63.5485 247.747 64.1738C247.359 64.7936 246.82 65.2806 246.128 65.6348C245.436 65.9889 244.598 66.166 243.613 66.166C242.855 66.166 242.171 66.0332 241.562 65.7676C240.959 65.4964 240.442 65.1118 240.01 64.6138C239.584 64.1102 239.258 63.507 239.031 62.8042C238.804 62.0959 238.69 61.3018 238.69 60.4219V59.5005C238.69 58.6206 238.807 57.8265 239.039 57.1182C239.271 56.4098 239.604 55.8066 240.035 55.3086C240.472 54.805 240.995 54.4176 241.604 54.1465C242.218 53.8753 242.904 53.7397 243.663 53.7397C244.648 53.7397 245.48 53.9224 246.161 54.2876C246.842 54.6473 247.37 55.1426 247.747 55.7734C248.123 56.4043 248.35 57.1292 248.427 57.9482H246.145C246.1 57.4391 245.99 57.0075 245.812 56.6533C245.641 56.2992 245.381 56.0308 245.032 55.8481C244.689 55.66 244.233 55.5659 243.663 55.5659C243.22 55.5659 242.83 55.6489 242.492 55.8149C242.16 55.981 241.883 56.23 241.662 56.562C241.441 56.8885 241.275 57.298 241.164 57.7905C241.053 58.2775 240.998 58.842 240.998 59.4839V60.4219C240.998 61.0361 241.048 61.5868 241.147 62.0737C241.247 62.5607 241.402 62.973 241.612 63.3105C241.823 63.6481 242.094 63.9054 242.426 64.0825C242.758 64.2596 243.153 64.3481 243.613 64.3481C244.172 64.3481 244.625 64.2596 244.974 64.0825C245.328 63.9054 245.597 63.6453 245.779 63.3022C245.967 62.9591 246.086 62.533 246.136 62.0239Z" fill="black"/>
<path d="M258.197 64.207V66H251.772V64.207H258.197ZM252.47 53.9141V66H250.187V53.9141H252.47ZM257.359 58.9028V60.6543H251.772V58.9028H257.359ZM258.172 53.9141V55.7153H251.772V53.9141H258.172Z" fill="black"/>
<path d="M268.822 55.7485L265.377 66H262.962L267.478 53.9141H269.021L268.822 55.7485ZM271.703 66L268.241 55.7485L268.034 53.9141H269.586L274.126 66H271.703ZM271.545 61.5093V63.3105H265.062V61.5093H271.545Z" fill="black"/>
<path d="M281.946 53.9141H284.229V61.9409C284.229 62.8651 284.029 63.6426 283.631 64.2734C283.232 64.8988 282.69 65.3719 282.004 65.6929C281.318 66.0083 280.537 66.166 279.663 66.166C278.778 66.166 277.989 66.0083 277.297 65.6929C276.606 65.3719 276.063 64.8988 275.67 64.2734C275.278 63.6426 275.081 62.8651 275.081 61.9409V53.9141H277.364V61.9409C277.364 62.5054 277.458 62.9674 277.646 63.3271C277.834 63.6813 278.1 63.9442 278.443 64.1157C278.786 64.2873 279.193 64.373 279.663 64.373C280.139 64.373 280.546 64.2873 280.883 64.1157C281.226 63.9442 281.489 63.6813 281.672 63.3271C281.854 62.9674 281.946 62.5054 281.946 61.9409V53.9141Z" fill="black"/>
<path d="M291.583 53.9141V66H289.309V53.9141H291.583ZM295.335 53.9141V55.7153H285.598V53.9141H295.335Z" fill="black"/>
<path d="M306.408 59.6499V60.2725C306.408 61.1855 306.286 62.0073 306.043 62.7378C305.799 63.4627 305.454 64.0798 305.005 64.5889C304.557 65.098 304.023 65.4881 303.403 65.7593C302.784 66.0304 302.095 66.166 301.336 66.166C300.589 66.166 299.903 66.0304 299.278 65.7593C298.658 65.4881 298.121 65.098 297.667 64.5889C297.214 64.0798 296.862 63.4627 296.613 62.7378C296.364 62.0073 296.24 61.1855 296.24 60.2725V59.6499C296.24 58.7313 296.364 57.9095 296.613 57.1846C296.862 56.4596 297.211 55.8426 297.659 55.3335C298.107 54.8188 298.641 54.4259 299.261 54.1548C299.887 53.8836 300.573 53.748 301.32 53.748C302.078 53.748 302.767 53.8836 303.387 54.1548C304.007 54.4259 304.541 54.8188 304.989 55.3335C305.443 55.8426 305.791 56.4596 306.035 57.1846C306.284 57.9095 306.408 58.7313 306.408 59.6499ZM304.101 60.2725V59.6333C304.101 58.9748 304.04 58.3965 303.918 57.8984C303.796 57.3949 303.616 56.9715 303.378 56.6284C303.14 56.2853 302.847 56.028 302.499 55.8564C302.15 55.6794 301.757 55.5908 301.32 55.5908C300.877 55.5908 300.484 55.6794 300.141 55.8564C299.804 56.028 299.516 56.2853 299.278 56.6284C299.04 56.9715 298.857 57.3949 298.73 57.8984C298.608 58.3965 298.547 58.9748 298.547 59.6333V60.2725C298.547 60.9255 298.608 61.5037 298.73 62.0073C298.857 62.5109 299.04 62.937 299.278 63.2856C299.521 63.6287 299.815 63.8888 300.158 64.0659C300.501 64.243 300.894 64.3315 301.336 64.3315C301.779 64.3315 302.172 64.243 302.515 64.0659C302.858 63.8888 303.146 63.6287 303.378 63.2856C303.616 62.937 303.796 62.5109 303.918 62.0073C304.04 61.5037 304.101 60.9255 304.101 60.2725Z" fill="black"/>
<path d="M318.901 62.8623C318.901 62.6299 318.865 62.4224 318.793 62.2397C318.727 62.0516 318.602 61.8828 318.419 61.7334C318.242 61.5785 317.991 61.429 317.664 61.2852C317.343 61.1357 316.928 60.9808 316.419 60.8203C315.854 60.6432 315.329 60.444 314.842 60.2227C314.355 60.0013 313.926 59.744 313.555 59.4507C313.19 59.1574 312.905 58.8198 312.7 58.438C312.495 58.0506 312.393 57.6024 312.393 57.0933C312.393 56.5952 312.498 56.1414 312.708 55.7319C312.924 55.3224 313.229 54.971 313.622 54.6777C314.014 54.3789 314.477 54.1493 315.008 53.9888C315.545 53.8283 316.137 53.748 316.784 53.748C317.681 53.748 318.455 53.9113 319.108 54.2378C319.767 54.5643 320.276 55.007 320.636 55.5659C320.995 56.1248 321.175 56.7529 321.175 57.4502H318.901C318.901 57.0739 318.821 56.7419 318.66 56.4541C318.505 56.1663 318.267 55.9395 317.946 55.7734C317.631 55.6074 317.232 55.5244 316.751 55.5244C316.286 55.5244 315.899 55.5936 315.589 55.7319C315.285 55.8703 315.055 56.0584 314.9 56.2964C314.75 56.5343 314.676 56.8 314.676 57.0933C314.676 57.3146 314.728 57.5138 314.833 57.6909C314.939 57.8625 315.096 58.0257 315.307 58.1807C315.517 58.3301 315.777 58.4712 316.087 58.604C316.402 58.7313 316.768 58.8586 317.183 58.9858C317.847 59.1851 318.428 59.4064 318.926 59.6499C319.429 59.8934 319.847 60.1701 320.179 60.48C320.517 60.7899 320.769 61.1385 320.935 61.5259C321.106 61.9132 321.192 62.3532 321.192 62.8457C321.192 63.3659 321.09 63.8307 320.885 64.2402C320.68 64.6497 320.387 64.9984 320.005 65.2861C319.623 65.5739 319.164 65.7925 318.627 65.9419C318.096 66.0913 317.501 66.166 316.842 66.166C316.256 66.166 315.675 66.0885 315.099 65.9336C314.529 65.7731 314.012 65.5352 313.547 65.2197C313.082 64.8988 312.711 64.4948 312.435 64.0078C312.158 63.5153 312.02 62.9398 312.02 62.2812H314.311C314.311 62.6631 314.371 62.9896 314.493 63.2607C314.62 63.5264 314.798 63.745 315.024 63.9165C315.257 64.0825 315.528 64.2043 315.838 64.2817C316.148 64.3592 316.483 64.3979 316.842 64.3979C317.307 64.3979 317.689 64.3343 317.988 64.207C318.292 64.0742 318.519 63.8916 318.668 63.6592C318.823 63.4268 318.901 63.1611 318.901 62.8623Z" fill="black"/>
<path d="M330.962 64.207V66H324.537V64.207H330.962ZM325.234 53.9141V66H322.952V53.9141H325.234ZM330.124 58.9028V60.6543H324.537V58.9028H330.124ZM330.937 53.9141V55.7153H324.537V53.9141H330.937Z" fill="black"/>
<path d="M332.547 53.9141H336.938C337.857 53.9141 338.646 54.0524 339.304 54.3291C339.963 54.6058 340.469 55.0153 340.823 55.5576C341.177 56.0999 341.354 56.7668 341.354 57.5581C341.354 58.1834 341.244 58.7257 341.022 59.1851C340.801 59.6444 340.488 60.029 340.084 60.3389C339.686 60.6488 339.216 60.8923 338.673 61.0693L337.959 61.4346H334.083L334.066 59.6333H336.963C337.434 59.6333 337.824 59.5503 338.134 59.3843C338.444 59.2183 338.676 58.9886 338.831 58.6953C338.992 58.402 339.072 58.0672 339.072 57.6909C339.072 57.2869 338.994 56.9383 338.839 56.645C338.684 56.3462 338.449 56.1165 338.134 55.9561C337.818 55.7956 337.42 55.7153 336.938 55.7153H334.83V66H332.547V53.9141ZM339.371 66L336.573 60.5879L338.989 60.5796L341.819 65.8838V66H339.371Z" fill="black"/>
<path d="M347.439 63.6343L350.452 53.9141H352.984L348.717 66H347.032L347.439 63.6343ZM344.658 53.9141L347.655 63.6343L348.086 66H346.385L342.135 53.9141H344.658Z" fill="black"/>
<path d="M356.661 53.9141V66H354.378V53.9141H356.661Z" fill="black"/>
<path d="M366.199 62.0239H368.481C368.421 62.8319 368.196 63.5485 367.809 64.1738C367.422 64.7936 366.882 65.2806 366.19 65.6348C365.499 65.9889 364.66 66.166 363.675 66.166C362.917 66.166 362.234 66.0332 361.625 65.7676C361.022 65.4964 360.504 65.1118 360.073 64.6138C359.647 64.1102 359.32 63.507 359.093 62.8042C358.866 62.0959 358.753 61.3018 358.753 60.4219V59.5005C358.753 58.6206 358.869 57.8265 359.102 57.1182C359.334 56.4098 359.666 55.8066 360.098 55.3086C360.535 54.805 361.058 54.4176 361.667 54.1465C362.281 53.8753 362.967 53.7397 363.725 53.7397C364.71 53.7397 365.543 53.9224 366.224 54.2876C366.904 54.6473 367.433 55.1426 367.809 55.7734C368.185 56.4043 368.412 57.1292 368.49 57.9482H366.207C366.163 57.4391 366.052 57.0075 365.875 56.6533C365.703 56.2992 365.443 56.0308 365.095 55.8481C364.752 55.66 364.295 55.5659 363.725 55.5659C363.282 55.5659 362.892 55.6489 362.555 55.8149C362.223 55.981 361.946 56.23 361.725 56.562C361.503 56.8885 361.337 57.298 361.227 57.7905C361.116 58.2775 361.061 58.842 361.061 59.4839V60.4219C361.061 61.0361 361.11 61.5868 361.21 62.0737C361.31 62.5607 361.465 62.973 361.675 63.3105C361.885 63.6481 362.156 63.9054 362.488 64.0825C362.82 64.2596 363.216 64.3481 363.675 64.3481C364.234 64.3481 364.688 64.2596 365.037 64.0825C365.391 63.9054 365.659 63.6453 365.842 63.3022C366.03 62.9591 366.149 62.533 366.199 62.0239Z" fill="black"/>
<path d="M378.26 64.207V66H371.835V64.207H378.26ZM372.532 53.9141V66H370.25V53.9141H372.532ZM377.421 58.9028V60.6543H371.835V58.9028H377.421ZM378.235 53.9141V55.7153H371.835V53.9141H378.235Z" fill="black"/>
<path d="M222.512 76.1641V76.5625H218.484V76.293L221.113 72.3125H221.504L220.949 73.2773L219.055 76.1641H222.512ZM221.625 72.3125V78H221.16V72.3125H221.625Z" fill="black"/>
<path d="M226.949 76.1641V76.5625H222.922V76.293L225.551 72.3125H225.941L225.387 73.2773L223.492 76.1641H226.949ZM226.062 72.3125V78H225.598V72.3125H226.062Z" fill="black"/>
<path d="M231.211 76.4961L232.445 72.3125H232.832L232.52 73.5547L231.203 78H230.832L231.211 76.4961ZM229.777 72.3125L230.816 76.457L231.129 78H230.742L229.285 72.3125H229.777ZM234.496 76.457L235.52 72.3125H236.012L234.559 78H234.172L234.496 76.457ZM232.875 72.3125L234.094 76.4961L234.469 78H234.098L232.809 73.5547L232.492 72.3125H232.875Z" fill="black"/>
<path d="M237.352 73.7734V78H236.887V73.7734H237.352ZM236.805 72.5508C236.805 72.4622 236.832 72.388 236.887 72.3281C236.944 72.2656 237.022 72.2344 237.121 72.2344C237.22 72.2344 237.298 72.2656 237.355 72.3281C237.415 72.388 237.445 72.4622 237.445 72.5508C237.445 72.6367 237.415 72.7109 237.355 72.7734C237.298 72.8333 237.22 72.8633 237.121 72.8633C237.022 72.8633 236.944 72.8333 236.887 72.7734C236.832 72.7109 236.805 72.6367 236.805 72.5508Z" fill="black"/>
<path d="M239.148 72V78H238.684V72H239.148Z" fill="black"/>
<path d="M243.172 77.1797V72H243.641V78H243.203L243.172 77.1797ZM240.238 75.9297V75.8477C240.238 75.5195 240.276 75.224 240.352 74.9609C240.427 74.6953 240.535 74.4688 240.676 74.2812C240.819 74.0911 240.991 73.9466 241.191 73.8477C241.392 73.7461 241.618 73.6953 241.871 73.6953C242.118 73.6953 242.337 73.7357 242.527 73.8164C242.717 73.8971 242.88 74.013 243.016 74.1641C243.154 74.3151 243.264 74.4948 243.348 74.7031C243.434 74.9115 243.496 75.1432 243.535 75.3984V76.4414C243.504 76.681 243.447 76.901 243.363 77.1016C243.28 77.2995 243.169 77.4727 243.031 77.6211C242.893 77.7669 242.727 77.8802 242.531 77.9609C242.339 78.0391 242.116 78.0781 241.863 78.0781C241.613 78.0781 241.388 78.026 241.188 77.9219C240.987 77.8177 240.816 77.6706 240.676 77.4805C240.535 77.2878 240.427 77.0599 240.352 76.7969C240.276 76.5339 240.238 76.2448 240.238 75.9297ZM240.707 75.8477V75.9297C240.707 76.1771 240.732 76.4062 240.781 76.6172C240.831 76.8281 240.906 77.0117 241.008 77.168C241.109 77.3242 241.238 77.4466 241.395 77.5352C241.551 77.6237 241.736 77.668 241.949 77.668C242.217 77.668 242.443 77.6172 242.625 77.5156C242.807 77.4115 242.953 77.2747 243.062 77.1055C243.172 76.9336 243.251 76.7461 243.301 76.543V75.3281C243.27 75.1901 243.224 75.0495 243.164 74.9062C243.104 74.763 243.022 74.6315 242.918 74.5117C242.816 74.3893 242.686 74.2917 242.527 74.2188C242.371 74.1432 242.181 74.1055 241.957 74.1055C241.741 74.1055 241.555 74.1497 241.398 74.2383C241.242 74.3268 241.112 74.4505 241.008 74.6094C240.906 74.7656 240.831 74.9492 240.781 75.1602C240.732 75.3711 240.707 75.6003 240.707 75.8477Z" fill="black"/>
<path d="M246.504 78.0781C246.228 78.0781 245.974 78.0273 245.742 77.9258C245.513 77.8242 245.312 77.681 245.141 77.4961C244.971 77.3112 244.84 77.0924 244.746 76.8398C244.655 76.5846 244.609 76.306 244.609 76.0039V75.8359C244.609 75.5104 244.658 75.2161 244.754 74.9531C244.85 74.6901 244.983 74.4648 245.152 74.2773C245.322 74.0898 245.514 73.9466 245.73 73.8477C245.949 73.7461 246.178 73.6953 246.418 73.6953C246.686 73.6953 246.924 73.7435 247.133 73.8398C247.341 73.9336 247.516 74.0677 247.656 74.2422C247.799 74.4141 247.908 74.6185 247.98 74.8555C248.053 75.0898 248.09 75.349 248.09 75.6328V75.918H244.891V75.5195H247.625V75.4648C247.62 75.2279 247.572 75.0065 247.48 74.8008C247.392 74.5924 247.259 74.4232 247.082 74.293C246.905 74.1628 246.684 74.0977 246.418 74.0977C246.22 74.0977 246.038 74.1393 245.871 74.2227C245.707 74.306 245.565 74.4258 245.445 74.582C245.328 74.7357 245.237 74.9193 245.172 75.1328C245.109 75.3438 245.078 75.5781 245.078 75.8359V76.0039C245.078 76.2383 245.112 76.457 245.18 76.6602C245.25 76.8607 245.349 77.0378 245.477 77.1914C245.607 77.3451 245.76 77.4648 245.938 77.5508C246.115 77.6367 246.31 77.6797 246.523 77.6797C246.773 77.6797 246.995 77.6341 247.188 77.543C247.38 77.4492 247.553 77.3021 247.707 77.1016L248 77.3281C247.909 77.4635 247.794 77.5885 247.656 77.7031C247.521 77.8177 247.358 77.9089 247.168 77.9766C246.978 78.0443 246.757 78.0781 246.504 78.0781Z" fill="black"/>
<path d="M252.523 77.6758C252.721 77.6758 252.906 77.6393 253.078 77.5664C253.253 77.4909 253.396 77.3802 253.508 77.2344C253.622 77.0859 253.688 76.9049 253.703 76.6914H254.148C254.135 76.9596 254.053 77.1992 253.902 77.4102C253.754 77.6185 253.559 77.7826 253.316 77.9023C253.077 78.0195 252.812 78.0781 252.523 78.0781C252.229 78.0781 251.969 78.0247 251.742 77.918C251.518 77.8112 251.331 77.6628 251.18 77.4727C251.029 77.2799 250.914 77.056 250.836 76.8008C250.76 76.543 250.723 76.2656 250.723 75.9688V75.8047C250.723 75.5078 250.76 75.2318 250.836 74.9766C250.914 74.7188 251.029 74.4948 251.18 74.3047C251.331 74.112 251.518 73.9622 251.742 73.8555C251.966 73.7487 252.225 73.6953 252.52 73.6953C252.822 73.6953 253.092 73.7565 253.332 73.8789C253.574 74.0013 253.767 74.1745 253.91 74.3984C254.056 74.6224 254.135 74.888 254.148 75.1953H253.703C253.69 74.9688 253.63 74.7734 253.523 74.6094C253.417 74.4453 253.276 74.319 253.102 74.2305C252.927 74.1419 252.733 74.0977 252.52 74.0977C252.28 74.0977 252.076 74.1445 251.906 74.2383C251.737 74.3294 251.599 74.4557 251.492 74.6172C251.388 74.776 251.311 74.9583 251.262 75.1641C251.212 75.3672 251.188 75.5807 251.188 75.8047V75.9688C251.188 76.1953 251.211 76.4115 251.258 76.6172C251.307 76.8203 251.384 77.0013 251.488 77.1602C251.595 77.319 251.733 77.4453 251.902 77.5391C252.074 77.6302 252.281 77.6758 252.523 77.6758Z" fill="black"/>
<path d="M255.555 74.4727V78H255.09V73.7734H255.543L255.555 74.4727ZM257.051 73.7422L257.039 74.1719C256.987 74.1641 256.936 74.1576 256.887 74.1523C256.837 74.1471 256.784 74.1445 256.727 74.1445C256.523 74.1445 256.345 74.1823 256.191 74.2578C256.04 74.3307 255.913 74.4336 255.809 74.5664C255.704 74.6966 255.625 74.8503 255.57 75.0273C255.516 75.2018 255.484 75.3893 255.477 75.5898L255.305 75.6562C255.305 75.3802 255.333 75.1237 255.391 74.8867C255.448 74.6497 255.535 74.4427 255.652 74.2656C255.772 74.0859 255.922 73.9466 256.102 73.8477C256.284 73.7461 256.497 73.6953 256.742 73.6953C256.802 73.6953 256.861 73.7005 256.918 73.7109C256.978 73.7188 257.022 73.7292 257.051 73.7422Z" fill="black"/>
<path d="M257.449 75.9531V75.8242C257.449 75.5169 257.493 75.2331 257.582 74.9727C257.671 74.7122 257.797 74.487 257.961 74.2969C258.128 74.1068 258.327 73.9596 258.559 73.8555C258.79 73.7487 259.048 73.6953 259.332 73.6953C259.618 73.6953 259.878 73.7487 260.109 73.8555C260.341 73.9596 260.54 74.1068 260.707 74.2969C260.874 74.487 261.001 74.7122 261.09 74.9727C261.178 75.2331 261.223 75.5169 261.223 75.8242V75.9531C261.223 76.2604 261.178 76.5443 261.09 76.8047C261.001 77.0625 260.874 77.2865 260.707 77.4766C260.543 77.6667 260.345 77.8151 260.113 77.9219C259.882 78.026 259.624 78.0781 259.34 78.0781C259.053 78.0781 258.794 78.026 258.562 77.9219C258.331 77.8151 258.132 77.6667 257.965 77.4766C257.798 77.2865 257.671 77.0625 257.582 76.8047C257.493 76.5443 257.449 76.2604 257.449 75.9531ZM257.914 75.8242V75.9531C257.914 76.1849 257.945 76.4049 258.008 76.6133C258.07 76.819 258.161 77.0026 258.281 77.1641C258.401 77.3229 258.549 77.4479 258.727 77.5391C258.904 77.6302 259.108 77.6758 259.34 77.6758C259.569 77.6758 259.771 77.6302 259.945 77.5391C260.122 77.4479 260.271 77.3229 260.391 77.1641C260.51 77.0026 260.6 76.819 260.66 76.6133C260.723 76.4049 260.754 76.1849 260.754 75.9531V75.8242C260.754 75.5951 260.723 75.3776 260.66 75.1719C260.6 74.9661 260.509 74.7826 260.387 74.6211C260.267 74.4596 260.118 74.332 259.941 74.2383C259.764 74.1445 259.561 74.0977 259.332 74.0977C259.103 74.0977 258.9 74.1445 258.723 74.2383C258.548 74.332 258.4 74.4596 258.277 74.6211C258.158 74.7826 258.066 74.9661 258.004 75.1719C257.944 75.3776 257.914 75.5951 257.914 75.8242Z" fill="black"/>
<path d="M264.723 76.9219C264.723 76.8073 264.694 76.694 264.637 76.582C264.579 76.4701 264.469 76.3672 264.305 76.2734C264.143 76.1797 263.905 76.1003 263.59 76.0352C263.355 75.9831 263.146 75.9245 262.961 75.8594C262.779 75.7943 262.625 75.7161 262.5 75.625C262.375 75.5339 262.28 75.4245 262.215 75.2969C262.15 75.1693 262.117 75.0182 262.117 74.8438C262.117 74.6875 262.151 74.5404 262.219 74.4023C262.289 74.2617 262.388 74.1393 262.516 74.0352C262.646 73.9284 262.802 73.8451 262.984 73.7852C263.169 73.7253 263.376 73.6953 263.605 73.6953C263.931 73.6953 264.21 73.7513 264.441 73.8633C264.676 73.9727 264.854 74.1224 264.977 74.3125C265.102 74.5026 265.164 74.7174 265.164 74.957H264.699C264.699 74.8112 264.656 74.6732 264.57 74.543C264.487 74.4128 264.363 74.306 264.199 74.2227C264.038 74.1393 263.84 74.0977 263.605 74.0977C263.363 74.0977 263.167 74.1341 263.016 74.207C262.865 74.2799 262.754 74.3724 262.684 74.4844C262.616 74.5964 262.582 74.7122 262.582 74.832C262.582 74.9258 262.596 75.0117 262.625 75.0898C262.656 75.1654 262.711 75.2357 262.789 75.3008C262.87 75.3659 262.984 75.4271 263.133 75.4844C263.281 75.5417 263.474 75.5977 263.711 75.6523C264.052 75.7279 264.331 75.8203 264.547 75.9297C264.766 76.0365 264.927 76.1693 265.031 76.3281C265.135 76.4844 265.188 76.6745 265.188 76.8984C265.188 77.0729 265.151 77.2331 265.078 77.3789C265.005 77.5221 264.9 77.6458 264.762 77.75C264.626 77.8542 264.462 77.9349 264.27 77.9922C264.079 78.0495 263.866 78.0781 263.629 78.0781C263.272 78.0781 262.97 78.0195 262.723 77.9023C262.478 77.7826 262.292 77.6263 262.164 77.4336C262.039 77.2383 261.977 77.0312 261.977 76.8125H262.441C262.457 77.0312 262.526 77.2044 262.648 77.332C262.771 77.457 262.921 77.5456 263.098 77.5977C263.277 77.6497 263.454 77.6758 263.629 77.6758C263.868 77.6758 264.069 77.6406 264.23 77.5703C264.392 77.5 264.514 77.4076 264.598 77.293C264.681 77.1784 264.723 77.0547 264.723 76.9219Z" fill="black"/>
<path d="M268.777 76.9219C268.777 76.8073 268.749 76.694 268.691 76.582C268.634 76.4701 268.523 76.3672 268.359 76.2734C268.198 76.1797 267.96 76.1003 267.645 76.0352C267.41 75.9831 267.201 75.9245 267.016 75.8594C266.833 75.7943 266.68 75.7161 266.555 75.625C266.43 75.5339 266.335 75.4245 266.27 75.2969C266.204 75.1693 266.172 75.0182 266.172 74.8438C266.172 74.6875 266.206 74.5404 266.273 74.4023C266.344 74.2617 266.443 74.1393 266.57 74.0352C266.701 73.9284 266.857 73.8451 267.039 73.7852C267.224 73.7253 267.431 73.6953 267.66 73.6953C267.986 73.6953 268.264 73.7513 268.496 73.8633C268.73 73.9727 268.909 74.1224 269.031 74.3125C269.156 74.5026 269.219 74.7174 269.219 74.957H268.754C268.754 74.8112 268.711 74.6732 268.625 74.543C268.542 74.4128 268.418 74.306 268.254 74.2227C268.092 74.1393 267.895 74.0977 267.66 74.0977C267.418 74.0977 267.221 74.1341 267.07 74.207C266.919 74.2799 266.809 74.3724 266.738 74.4844C266.671 74.5964 266.637 74.7122 266.637 74.832C266.637 74.9258 266.651 75.0117 266.68 75.0898C266.711 75.1654 266.766 75.2357 266.844 75.3008C266.924 75.3659 267.039 75.4271 267.188 75.4844C267.336 75.5417 267.529 75.5977 267.766 75.6523C268.107 75.7279 268.385 75.8203 268.602 75.9297C268.82 76.0365 268.982 76.1693 269.086 76.3281C269.19 76.4844 269.242 76.6745 269.242 76.8984C269.242 77.0729 269.206 77.2331 269.133 77.3789C269.06 77.5221 268.954 77.6458 268.816 77.75C268.681 77.8542 268.517 77.9349 268.324 77.9922C268.134 78.0495 267.921 78.0781 267.684 78.0781C267.327 78.0781 267.025 78.0195 266.777 77.9023C266.533 77.7826 266.346 77.6263 266.219 77.4336C266.094 77.2383 266.031 77.0312 266.031 76.8125H266.496C266.512 77.0312 266.581 77.2044 266.703 77.332C266.826 77.457 266.975 77.5456 267.152 77.5977C267.332 77.6497 267.509 77.6758 267.684 77.6758C267.923 77.6758 268.124 77.6406 268.285 77.5703C268.447 77.5 268.569 77.4076 268.652 77.293C268.736 77.1784 268.777 77.0547 268.777 76.9219Z" fill="black"/>
<path d="M270.75 77.2617V77.8086C270.75 78.0482 270.701 78.2786 270.602 78.5C270.503 78.724 270.368 78.9128 270.199 79.0664L269.926 78.8633C270.007 78.7539 270.074 78.6445 270.129 78.5352C270.184 78.4284 270.224 78.3164 270.25 78.1992C270.279 78.082 270.293 77.9557 270.293 77.8203V77.2617H270.75Z" fill="black"/>
<path d="M273.785 72H274.254V77.1797L274.223 78H273.785V72ZM277.195 75.8477V75.9297C277.195 76.2448 277.159 76.5339 277.086 76.7969C277.013 77.0599 276.908 77.2878 276.77 77.4805C276.632 77.6706 276.462 77.8177 276.262 77.9219C276.064 78.026 275.836 78.0781 275.578 78.0781C275.326 78.0781 275.102 78.0391 274.906 77.9609C274.711 77.8802 274.544 77.7669 274.406 77.6211C274.268 77.4727 274.158 77.2995 274.074 77.1016C273.991 76.901 273.932 76.681 273.898 76.4414V75.3984C273.938 75.1432 274 74.9115 274.086 74.7031C274.172 74.4948 274.283 74.3151 274.418 74.1641C274.556 74.013 274.72 73.8971 274.91 73.8164C275.103 73.7357 275.323 73.6953 275.57 73.6953C275.828 73.6953 276.057 73.7461 276.258 73.8477C276.461 73.9466 276.632 74.0911 276.77 74.2812C276.908 74.4688 277.013 74.6953 277.086 74.9609C277.159 75.224 277.195 75.5195 277.195 75.8477ZM276.723 75.9297V75.8477C276.723 75.6003 276.699 75.3711 276.652 75.1602C276.605 74.9492 276.531 74.7656 276.43 74.6094C276.331 74.4505 276.203 74.3268 276.047 74.2383C275.891 74.1497 275.703 74.1055 275.484 74.1055C275.26 74.1055 275.069 74.1432 274.91 74.2188C274.754 74.2917 274.624 74.3893 274.52 74.5117C274.418 74.6315 274.337 74.763 274.277 74.9062C274.217 75.0495 274.173 75.1901 274.145 75.3281V76.543C274.189 76.7383 274.266 76.9219 274.375 77.0938C274.484 77.2656 274.632 77.4049 274.816 77.5117C275.001 77.6159 275.227 77.668 275.492 77.668C275.706 77.668 275.889 77.6237 276.043 77.5352C276.199 77.4466 276.327 77.3242 276.426 77.168C276.527 77.0117 276.602 76.8281 276.648 76.6172C276.698 76.4062 276.723 76.1771 276.723 75.9297Z" fill="black"/>
<path d="M280.938 77.0234V73.7734H281.406V78H280.957L280.938 77.0234ZM281.023 76.2422L281.266 76.2344C281.266 76.5 281.234 76.7448 281.172 76.9688C281.109 77.1927 281.012 77.388 280.879 77.5547C280.746 77.7214 280.574 77.8503 280.363 77.9414C280.152 78.0326 279.898 78.0781 279.602 78.0781C279.396 78.0781 279.207 78.0495 279.035 77.9922C278.866 77.9323 278.72 77.8385 278.598 77.7109C278.475 77.5833 278.38 77.418 278.312 77.2148C278.247 77.0117 278.215 76.7656 278.215 76.4766V73.7734H278.68V76.4844C278.68 76.7109 278.704 76.8997 278.754 77.0508C278.806 77.2018 278.876 77.3229 278.965 77.4141C279.056 77.5052 279.16 77.5703 279.277 77.6094C279.395 77.6484 279.521 77.668 279.656 77.668C280 77.668 280.271 77.6016 280.469 77.4688C280.669 77.3359 280.811 77.1615 280.895 76.9453C280.98 76.7266 281.023 76.4922 281.023 76.2422Z" fill="black"/>
<path d="M283.094 74.4727V78H282.629V73.7734H283.082L283.094 74.4727ZM284.59 73.7422L284.578 74.1719C284.526 74.1641 284.475 74.1576 284.426 74.1523C284.376 74.1471 284.323 74.1445 284.266 74.1445C284.062 74.1445 283.884 74.1823 283.73 74.2578C283.579 74.3307 283.452 74.4336 283.348 74.5664C283.243 74.6966 283.164 74.8503 283.109 75.0273C283.055 75.2018 283.023 75.3893 283.016 75.5898L282.844 75.6562C282.844 75.3802 282.872 75.1237 282.93 74.8867C282.987 74.6497 283.074 74.4427 283.191 74.2656C283.311 74.0859 283.461 73.9466 283.641 73.8477C283.823 73.7461 284.036 73.6953 284.281 73.6953C284.341 73.6953 284.4 73.7005 284.457 73.7109C284.517 73.7188 284.561 73.7292 284.59 73.7422Z" fill="black"/>
<path d="M285.789 74.6758V78H285.324V73.7734H285.77L285.789 74.6758ZM285.684 75.625L285.477 75.5078C285.492 75.2578 285.543 75.0234 285.629 74.8047C285.715 74.5859 285.831 74.3932 285.977 74.2266C286.125 74.0599 286.298 73.9297 286.496 73.8359C286.697 73.7422 286.918 73.6953 287.16 73.6953C287.371 73.6953 287.56 73.724 287.727 73.7812C287.893 73.8385 288.035 73.9297 288.152 74.0547C288.27 74.1797 288.358 74.3398 288.418 74.5352C288.48 74.7305 288.512 74.9688 288.512 75.25V78H288.043V75.2461C288.043 74.9544 288.003 74.7266 287.922 74.5625C287.841 74.3958 287.727 74.2773 287.578 74.207C287.43 74.1367 287.254 74.1016 287.051 74.1016C286.827 74.1016 286.63 74.151 286.461 74.25C286.294 74.3464 286.154 74.4727 286.039 74.6289C285.927 74.7826 285.841 74.9479 285.781 75.125C285.721 75.2995 285.689 75.4661 285.684 75.625Z" fill="black"/>
<path d="M290.188 72V78H289.723V72H290.188ZM290.082 75.625L289.875 75.5078C289.891 75.2578 289.941 75.0234 290.027 74.8047C290.113 74.5859 290.229 74.3932 290.375 74.2266C290.523 74.0599 290.697 73.9297 290.895 73.8359C291.095 73.7422 291.316 73.6953 291.559 73.6953C291.77 73.6953 291.958 73.724 292.125 73.7812C292.292 73.8385 292.434 73.9297 292.551 74.0547C292.668 74.1797 292.757 74.3398 292.816 74.5352C292.879 74.7305 292.91 74.9688 292.91 75.25V78H292.441V75.2461C292.441 74.9544 292.401 74.7266 292.32 74.5625C292.24 74.3958 292.125 74.2773 291.977 74.207C291.828 74.1367 291.652 74.1016 291.449 74.1016C291.225 74.1016 291.029 74.151 290.859 74.25C290.693 74.3464 290.552 74.4727 290.438 74.6289C290.326 74.7826 290.24 74.9479 290.18 75.125C290.12 75.2995 290.087 75.4661 290.082 75.625Z" fill="black"/>
<path d="M296.684 77.2422V75.0625C296.684 74.862 296.642 74.6888 296.559 74.543C296.475 74.3971 296.353 74.2852 296.191 74.207C296.03 74.1289 295.831 74.0898 295.594 74.0898C295.375 74.0898 295.18 74.1289 295.008 74.207C294.839 74.2826 294.704 74.3854 294.605 74.5156C294.509 74.6432 294.461 74.7852 294.461 74.9414L293.992 74.9375C293.992 74.7786 294.031 74.625 294.109 74.4766C294.188 74.3281 294.298 74.1953 294.441 74.0781C294.585 73.9609 294.755 73.8685 294.953 73.8008C295.154 73.7305 295.374 73.6953 295.613 73.6953C295.915 73.6953 296.181 73.7461 296.41 73.8477C296.642 73.9492 296.823 74.1016 296.953 74.3047C297.083 74.5078 297.148 74.763 297.148 75.0703V77.1133C297.148 77.2591 297.159 77.4102 297.18 77.5664C297.203 77.7227 297.236 77.8516 297.277 77.9531V78H296.781C296.75 77.9062 296.725 77.7891 296.707 77.6484C296.691 77.5052 296.684 77.3698 296.684 77.2422ZM296.793 75.5391L296.801 75.8984H295.883C295.643 75.8984 295.428 75.9206 295.238 75.9648C295.051 76.0065 294.892 76.069 294.762 76.1523C294.632 76.2331 294.531 76.3307 294.461 76.4453C294.393 76.5599 294.359 76.6901 294.359 76.8359C294.359 76.987 294.397 77.125 294.473 77.25C294.551 77.375 294.66 77.4753 294.801 77.5508C294.944 77.6237 295.113 77.6602 295.309 77.6602C295.569 77.6602 295.798 77.612 295.996 77.5156C296.197 77.4193 296.362 77.293 296.492 77.1367C296.622 76.9805 296.71 76.8099 296.754 76.625L296.957 76.8945C296.923 77.0247 296.861 77.1589 296.77 77.2969C296.681 77.4323 296.565 77.5599 296.422 77.6797C296.279 77.7969 296.109 77.8932 295.914 77.9688C295.721 78.0417 295.503 78.0781 295.258 78.0781C294.982 78.0781 294.741 78.026 294.535 77.9219C294.332 77.8177 294.173 77.6758 294.059 77.4961C293.947 77.3138 293.891 77.1081 293.891 76.8789C293.891 76.6706 293.935 76.4844 294.023 76.3203C294.112 76.1536 294.24 76.013 294.406 75.8984C294.576 75.7812 294.779 75.6927 295.016 75.6328C295.255 75.5703 295.523 75.5391 295.82 75.5391H296.793Z" fill="black"/>
<path d="M298.844 74.6484V78H298.375V73.7734H298.824L298.844 74.6484ZM298.758 75.625L298.531 75.5078C298.547 75.2578 298.594 75.0234 298.672 74.8047C298.753 74.5859 298.865 74.3932 299.008 74.2266C299.151 74.0599 299.323 73.9297 299.523 73.8359C299.724 73.7422 299.952 73.6953 300.207 73.6953C300.413 73.6953 300.599 73.724 300.766 73.7812C300.935 73.8359 301.078 73.9232 301.195 74.043C301.315 74.1602 301.408 74.3138 301.473 74.5039C301.538 74.694 301.57 74.9219 301.57 75.1875V78H301.105V75.2031C301.105 74.9219 301.061 74.7018 300.973 74.543C300.887 74.3841 300.766 74.2708 300.609 74.2031C300.456 74.1354 300.277 74.1016 300.074 74.1016C299.835 74.1016 299.632 74.151 299.465 74.25C299.301 74.3464 299.167 74.4727 299.062 74.6289C298.961 74.7826 298.885 74.9479 298.836 75.125C298.786 75.2995 298.76 75.4661 298.758 75.625ZM301.566 75.2578L301.254 75.2656C301.267 75.0599 301.314 74.8633 301.395 74.6758C301.478 74.4883 301.591 74.3216 301.734 74.1758C301.878 74.0273 302.048 73.9102 302.246 73.8242C302.447 73.7383 302.672 73.6953 302.922 73.6953C303.141 73.6953 303.336 73.7253 303.508 73.7852C303.68 73.8424 303.824 73.9349 303.941 74.0625C304.061 74.1875 304.152 74.3477 304.215 74.543C304.277 74.7383 304.309 74.9727 304.309 75.2461V78H303.84V75.2422C303.84 74.9427 303.796 74.7109 303.707 74.5469C303.621 74.3802 303.501 74.2643 303.348 74.1992C303.194 74.1341 303.014 74.1016 302.809 74.1016C302.605 74.1042 302.427 74.1419 302.273 74.2148C302.12 74.2852 301.991 74.3789 301.887 74.4961C301.785 74.6107 301.707 74.7344 301.652 74.8672C301.6 75 301.572 75.1302 301.566 75.2578Z" fill="black"/>
<path d="M306.949 75.2891V75.6914H305.078V75.2891H306.949Z" fill="black"/>
<path d="M307.535 75.9531V75.8242C307.535 75.5169 307.579 75.2331 307.668 74.9727C307.757 74.7122 307.883 74.487 308.047 74.2969C308.214 74.1068 308.413 73.9596 308.645 73.8555C308.876 73.7487 309.134 73.6953 309.418 73.6953C309.704 73.6953 309.964 73.7487 310.195 73.8555C310.427 73.9596 310.626 74.1068 310.793 74.2969C310.96 74.487 311.087 74.7122 311.176 74.9727C311.264 75.2331 311.309 75.5169 311.309 75.8242V75.9531C311.309 76.2604 311.264 76.5443 311.176 76.8047C311.087 77.0625 310.96 77.2865 310.793 77.4766C310.629 77.6667 310.431 77.8151 310.199 77.9219C309.967 78.026 309.71 78.0781 309.426 78.0781C309.139 78.0781 308.88 78.026 308.648 77.9219C308.417 77.8151 308.217 77.6667 308.051 77.4766C307.884 77.2865 307.757 77.0625 307.668 76.8047C307.579 76.5443 307.535 76.2604 307.535 75.9531ZM308 75.8242V75.9531C308 76.1849 308.031 76.4049 308.094 76.6133C308.156 76.819 308.247 77.0026 308.367 77.1641C308.487 77.3229 308.635 77.4479 308.812 77.5391C308.99 77.6302 309.194 77.6758 309.426 77.6758C309.655 77.6758 309.857 77.6302 310.031 77.5391C310.208 77.4479 310.357 77.3229 310.477 77.1641C310.596 77.0026 310.686 76.819 310.746 76.6133C310.809 76.4049 310.84 76.1849 310.84 75.9531V75.8242C310.84 75.5951 310.809 75.3776 310.746 75.1719C310.686 74.9661 310.595 74.7826 310.473 74.6211C310.353 74.4596 310.204 74.332 310.027 74.2383C309.85 74.1445 309.647 74.0977 309.418 74.0977C309.189 74.0977 308.986 74.1445 308.809 74.2383C308.634 74.332 308.486 74.4596 308.363 74.6211C308.243 74.7826 308.152 74.9661 308.09 75.1719C308.03 75.3776 308 75.5951 308 75.8242Z" fill="black"/>
<path d="M312.742 74.6758V78H312.277V73.7734H312.723L312.742 74.6758ZM312.637 75.625L312.43 75.5078C312.445 75.2578 312.496 75.0234 312.582 74.8047C312.668 74.5859 312.784 74.3932 312.93 74.2266C313.078 74.0599 313.251 73.9297 313.449 73.8359C313.65 73.7422 313.871 73.6953 314.113 73.6953C314.324 73.6953 314.513 73.724 314.68 73.7812C314.846 73.8385 314.988 73.9297 315.105 74.0547C315.223 74.1797 315.311 74.3398 315.371 74.5352C315.434 74.7305 315.465 74.9688 315.465 75.25V78H314.996V75.2461C314.996 74.9544 314.956 74.7266 314.875 74.5625C314.794 74.3958 314.68 74.2773 314.531 74.207C314.383 74.1367 314.207 74.1016 314.004 74.1016C313.78 74.1016 313.583 74.151 313.414 74.25C313.247 74.3464 313.107 74.4727 312.992 74.6289C312.88 74.7826 312.794 74.9479 312.734 75.125C312.674 75.2995 312.642 75.4661 312.637 75.625Z" fill="black"/>
<path d="M318.129 75.2891V75.6914H316.258V75.2891H318.129Z" fill="black"/>
<path d="M321.504 76.9219C321.504 76.8073 321.475 76.694 321.418 76.582C321.361 76.4701 321.25 76.3672 321.086 76.2734C320.924 76.1797 320.686 76.1003 320.371 76.0352C320.137 75.9831 319.927 75.9245 319.742 75.8594C319.56 75.7943 319.406 75.7161 319.281 75.625C319.156 75.5339 319.061 75.4245 318.996 75.2969C318.931 75.1693 318.898 75.0182 318.898 74.8438C318.898 74.6875 318.932 74.5404 319 74.4023C319.07 74.2617 319.169 74.1393 319.297 74.0352C319.427 73.9284 319.583 73.8451 319.766 73.7852C319.951 73.7253 320.158 73.6953 320.387 73.6953C320.712 73.6953 320.991 73.7513 321.223 73.8633C321.457 73.9727 321.635 74.1224 321.758 74.3125C321.883 74.5026 321.945 74.7174 321.945 74.957H321.48C321.48 74.8112 321.438 74.6732 321.352 74.543C321.268 74.4128 321.145 74.306 320.98 74.2227C320.819 74.1393 320.621 74.0977 320.387 74.0977C320.145 74.0977 319.948 74.1341 319.797 74.207C319.646 74.2799 319.535 74.3724 319.465 74.4844C319.397 74.5964 319.363 74.7122 319.363 74.832C319.363 74.9258 319.378 75.0117 319.406 75.0898C319.438 75.1654 319.492 75.2357 319.57 75.3008C319.651 75.3659 319.766 75.4271 319.914 75.4844C320.062 75.5417 320.255 75.5977 320.492 75.6523C320.833 75.7279 321.112 75.8203 321.328 75.9297C321.547 76.0365 321.708 76.1693 321.812 76.3281C321.917 76.4844 321.969 76.6745 321.969 76.8984C321.969 77.0729 321.932 77.2331 321.859 77.3789C321.786 77.5221 321.681 77.6458 321.543 77.75C321.408 77.8542 321.243 77.9349 321.051 77.9922C320.861 78.0495 320.647 78.0781 320.41 78.0781C320.053 78.0781 319.751 78.0195 319.504 77.9023C319.259 77.7826 319.073 77.6263 318.945 77.4336C318.82 77.2383 318.758 77.0312 318.758 76.8125H319.223C319.238 77.0312 319.307 77.2044 319.43 77.332C319.552 77.457 319.702 77.5456 319.879 77.5977C320.059 77.6497 320.236 77.6758 320.41 77.6758C320.65 77.6758 320.85 77.6406 321.012 77.5703C321.173 77.5 321.296 77.4076 321.379 77.293C321.462 77.1784 321.504 77.0547 321.504 76.9219Z" fill="black"/>
<path d="M324.66 78.0781C324.384 78.0781 324.13 78.0273 323.898 77.9258C323.669 77.8242 323.469 77.681 323.297 77.4961C323.128 77.3112 322.996 77.0924 322.902 76.8398C322.811 76.5846 322.766 76.306 322.766 76.0039V75.8359C322.766 75.5104 322.814 75.2161 322.91 74.9531C323.007 74.6901 323.139 74.4648 323.309 74.2773C323.478 74.0898 323.671 73.9466 323.887 73.8477C324.105 73.7461 324.335 73.6953 324.574 73.6953C324.842 73.6953 325.081 73.7435 325.289 73.8398C325.497 73.9336 325.672 74.0677 325.812 74.2422C325.956 74.4141 326.064 74.6185 326.137 74.8555C326.21 75.0898 326.246 75.349 326.246 75.6328V75.918H323.047V75.5195H325.781V75.4648C325.776 75.2279 325.728 75.0065 325.637 74.8008C325.548 74.5924 325.415 74.4232 325.238 74.293C325.061 74.1628 324.84 74.0977 324.574 74.0977C324.376 74.0977 324.194 74.1393 324.027 74.2227C323.863 74.306 323.721 74.4258 323.602 74.582C323.484 74.7357 323.393 74.9193 323.328 75.1328C323.266 75.3438 323.234 75.5781 323.234 75.8359V76.0039C323.234 76.2383 323.268 76.457 323.336 76.6602C323.406 76.8607 323.505 77.0378 323.633 77.1914C323.763 77.3451 323.917 77.4648 324.094 77.5508C324.271 77.6367 324.466 77.6797 324.68 77.6797C324.93 77.6797 325.151 77.6341 325.344 77.543C325.536 77.4492 325.71 77.3021 325.863 77.1016L326.156 77.3281C326.065 77.4635 325.951 77.5885 325.812 77.7031C325.677 77.8177 325.514 77.9089 325.324 77.9766C325.134 78.0443 324.913 78.0781 324.66 78.0781Z" fill="black"/>
<path d="M329.738 77.2422V75.0625C329.738 74.862 329.697 74.6888 329.613 74.543C329.53 74.3971 329.408 74.2852 329.246 74.207C329.085 74.1289 328.885 74.0898 328.648 74.0898C328.43 74.0898 328.234 74.1289 328.062 74.207C327.893 74.2826 327.759 74.3854 327.66 74.5156C327.564 74.6432 327.516 74.7852 327.516 74.9414L327.047 74.9375C327.047 74.7786 327.086 74.625 327.164 74.4766C327.242 74.3281 327.353 74.1953 327.496 74.0781C327.639 73.9609 327.81 73.8685 328.008 73.8008C328.208 73.7305 328.428 73.6953 328.668 73.6953C328.97 73.6953 329.236 73.7461 329.465 73.8477C329.697 73.9492 329.878 74.1016 330.008 74.3047C330.138 74.5078 330.203 74.763 330.203 75.0703V77.1133C330.203 77.2591 330.214 77.4102 330.234 77.5664C330.258 77.7227 330.29 77.8516 330.332 77.9531V78H329.836C329.805 77.9062 329.78 77.7891 329.762 77.6484C329.746 77.5052 329.738 77.3698 329.738 77.2422ZM329.848 75.5391L329.855 75.8984H328.938C328.698 75.8984 328.483 75.9206 328.293 75.9648C328.105 76.0065 327.947 76.069 327.816 76.1523C327.686 76.2331 327.586 76.3307 327.516 76.4453C327.448 76.5599 327.414 76.6901 327.414 76.8359C327.414 76.987 327.452 77.125 327.527 77.25C327.605 77.375 327.715 77.4753 327.855 77.5508C327.999 77.6237 328.168 77.6602 328.363 77.6602C328.624 77.6602 328.853 77.612 329.051 77.5156C329.251 77.4193 329.417 77.293 329.547 77.1367C329.677 76.9805 329.764 76.8099 329.809 76.625L330.012 76.8945C329.978 77.0247 329.915 77.1589 329.824 77.2969C329.736 77.4323 329.62 77.5599 329.477 77.6797C329.333 77.7969 329.164 77.8932 328.969 77.9688C328.776 78.0417 328.557 78.0781 328.312 78.0781C328.036 78.0781 327.796 78.026 327.59 77.9219C327.387 77.8177 327.228 77.6758 327.113 77.4961C327.001 77.3138 326.945 77.1081 326.945 76.8789C326.945 76.6706 326.99 76.4844 327.078 76.3203C327.167 76.1536 327.294 76.013 327.461 75.8984C327.63 75.7812 327.833 75.6927 328.07 75.6328C328.31 75.5703 328.578 75.5391 328.875 75.5391H329.848Z" fill="black"/>
<path d="M331.906 77.2617V77.8086C331.906 78.0482 331.857 78.2786 331.758 78.5C331.659 78.724 331.525 78.9128 331.355 79.0664L331.082 78.8633C331.163 78.7539 331.23 78.6445 331.285 78.5352C331.34 78.4284 331.38 78.3164 331.406 78.1992C331.435 78.082 331.449 77.9557 331.449 77.8203V77.2617H331.906Z" fill="black"/>
<path d="M336.809 72.3125V78H336.332V72.3125H336.809ZM338.758 72.3125V72.7266H334.387V72.3125H338.758Z" fill="black"/>
<path d="M341.238 72.6523L339.27 78H338.77L340.918 72.3125H341.266L341.238 72.6523ZM343.027 78L341.055 72.6523L341.027 72.3125H341.375L343.527 78H343.027ZM342.676 75.9922V76.4062H339.656V75.9922H342.676Z" fill="black"/>
<path d="M347.684 76.4922C347.684 76.8359 347.603 77.1263 347.441 77.3633C347.283 77.6003 347.066 77.7786 346.793 77.8984C346.52 78.0182 346.214 78.0781 345.875 78.0781C345.534 78.0781 345.227 78.0182 344.953 77.8984C344.68 77.7786 344.462 77.6003 344.301 77.3633C344.142 77.1263 344.062 76.8359 344.062 76.4922C344.062 76.2656 344.107 76.0599 344.195 75.875C344.286 75.6875 344.413 75.526 344.574 75.3906C344.738 75.2526 344.93 75.1458 345.148 75.0703C345.367 74.9948 345.607 74.957 345.867 74.957C346.211 74.957 346.52 75.0234 346.793 75.1562C347.066 75.2865 347.283 75.4661 347.441 75.6953C347.603 75.9245 347.684 76.1901 347.684 76.4922ZM347.215 76.4922C347.215 76.25 347.156 76.0378 347.039 75.8555C346.922 75.6732 346.762 75.5326 346.559 75.4336C346.355 75.332 346.125 75.2812 345.867 75.2812C345.607 75.2812 345.376 75.332 345.176 75.4336C344.975 75.5326 344.818 75.6732 344.703 75.8555C344.589 76.0378 344.531 76.25 344.531 76.4922C344.531 76.7448 344.587 76.9596 344.699 77.1367C344.814 77.3138 344.973 77.4479 345.176 77.5391C345.379 77.6302 345.612 77.6758 345.875 77.6758C346.138 77.6758 346.37 77.6302 346.57 77.5391C346.771 77.4479 346.928 77.3138 347.043 77.1367C347.158 76.9596 347.215 76.7448 347.215 76.4922ZM347.535 73.7734C347.535 74.0521 347.461 74.3008 347.312 74.5195C347.167 74.7357 346.969 74.9062 346.719 75.0312C346.469 75.1536 346.186 75.2148 345.871 75.2148C345.553 75.2148 345.268 75.1536 345.016 75.0312C344.766 74.9062 344.568 74.7357 344.422 74.5195C344.279 74.3008 344.207 74.0521 344.207 73.7734C344.207 73.4427 344.279 73.1641 344.422 72.9375C344.568 72.7083 344.766 72.5339 345.016 72.4141C345.266 72.2943 345.549 72.2344 345.867 72.2344C346.182 72.2344 346.465 72.2943 346.715 72.4141C346.967 72.5339 347.167 72.7083 347.312 72.9375C347.461 73.1641 347.535 73.4427 347.535 73.7734ZM347.07 73.7695C347.07 73.5482 347.017 73.3529 346.91 73.1836C346.806 73.0143 346.663 72.8815 346.48 72.7852C346.301 72.6862 346.096 72.6367 345.867 72.6367C345.635 72.6367 345.43 72.6823 345.25 72.7734C345.073 72.8646 344.932 72.9948 344.828 73.1641C344.727 73.3333 344.676 73.5352 344.676 73.7695C344.676 73.9987 344.727 74.1966 344.828 74.3633C344.932 74.5273 345.074 74.6549 345.254 74.7461C345.434 74.8372 345.639 74.8828 345.871 74.8828C346.103 74.8828 346.309 74.8372 346.488 74.7461C346.668 74.6549 346.81 74.5273 346.914 74.3633C347.018 74.1966 347.07 73.9987 347.07 73.7695Z" fill="black"/>
<path d="M352.75 72.2891V78H352.285V72.8789L350.738 73.4531V73.0117L352.672 72.2891H352.75Z" fill="black"/>
<path d="M355.188 72.3125H357.035C357.428 72.3125 357.77 72.3763 358.059 72.5039C358.348 72.6315 358.57 72.8203 358.727 73.0703C358.885 73.3177 358.965 73.6224 358.965 73.9844C358.965 74.2526 358.908 74.4961 358.793 74.7148C358.681 74.9336 358.526 75.1172 358.328 75.2656C358.13 75.4115 357.901 75.5117 357.641 75.5664L357.473 75.6289H355.5L355.492 75.2188H357.145C357.441 75.2188 357.689 75.1615 357.887 75.0469C358.085 74.9323 358.233 74.7812 358.332 74.5938C358.434 74.4036 358.484 74.2005 358.484 73.9844C358.484 73.7266 358.428 73.5039 358.316 73.3164C358.207 73.1263 358.044 72.9805 357.828 72.8789C357.612 72.7773 357.348 72.7266 357.035 72.7266H355.668V78H355.188V72.3125ZM358.699 78L357.227 75.457L357.742 75.4531L359.211 77.9492V78H358.699Z" fill="black"/>
<path d="M363.574 77.5898V78H360.625V77.5898H363.574ZM360.766 72.3125V78H360.285V72.3125H360.766Z" fill="black"/>
</svg>
