<svg width="595" height="121" viewBox="0 0 595 121" fill="none" xmlns="http://www.w3.org/2000/svg">
<path d="M238.677 87.4673V87.8535H235.266V87.4673H238.677ZM237.163 85.8779V89.501H236.752V85.8779H237.163ZM242.717 88.3936V88.7422H239.193V88.5063L241.493 85.0234H241.835L241.35 85.8677L239.692 88.3936H242.717ZM241.941 85.0234V90H241.534V85.0234H241.941ZM246.6 88.3936V88.7422H243.076V88.5063L245.376 85.0234H245.718L245.232 85.8677L243.575 88.3936H246.6ZM245.824 85.0234V90H245.417V85.0234H245.824ZM251.969 85.0234V85.2593L249.843 90H249.419L251.532 85.3755H248.698V85.0234H251.969ZM253.388 87.5391L253.066 87.4468L253.309 85.0234H255.797V85.4062H253.658L253.483 87.0811C253.57 87.0195 253.695 86.9591 253.859 86.8999C254.026 86.8384 254.213 86.8076 254.42 86.8076C254.641 86.8076 254.841 86.8452 255.021 86.9204C255.204 86.9933 255.36 87.1004 255.49 87.2417C255.62 87.3807 255.72 87.5493 255.791 87.7476C255.861 87.9435 255.896 88.1657 255.896 88.4141C255.896 88.6533 255.867 88.8732 255.808 89.0737C255.748 89.2743 255.658 89.4497 255.538 89.6001C255.417 89.7482 255.263 89.8633 255.076 89.9453C254.889 90.0273 254.667 90.0684 254.41 90.0684C254.211 90.0684 254.025 90.041 253.849 89.9863C253.676 89.9294 253.521 89.8439 253.384 89.73C253.248 89.616 253.136 89.4725 253.049 89.2993C252.965 89.1261 252.913 88.9233 252.892 88.6909H253.285C253.312 88.9142 253.373 89.1022 253.466 89.2549C253.56 89.4076 253.685 89.5226 253.842 89.6001C254.002 89.6776 254.191 89.7163 254.41 89.7163C254.587 89.7163 254.742 89.6878 254.875 89.6309C255.009 89.5739 255.121 89.4907 255.209 89.3813C255.301 89.2697 255.369 89.1341 255.415 88.9746C255.462 88.8128 255.486 88.6283 255.486 88.4209C255.486 88.2432 255.461 88.0802 255.411 87.9321C255.361 87.7817 255.287 87.6507 255.189 87.5391C255.093 87.4251 254.975 87.3374 254.833 87.2759C254.692 87.2144 254.53 87.1836 254.348 87.1836C254.111 87.1836 253.922 87.2155 253.781 87.2793C253.642 87.3431 253.511 87.4297 253.388 87.5391ZM259.735 85.0234V85.2593L257.609 90H257.185L259.297 85.3755H256.464V85.0234H259.735ZM263.84 88.3936V88.7422H260.316V88.5063L262.616 85.0234H262.958L262.473 85.8677L260.815 88.3936H263.84ZM263.064 85.0234V90H262.657V85.0234H263.064ZM268.047 85.0029V90H267.641V85.519L266.287 86.0215V85.6353L267.979 85.0029H268.047ZM273.092 85.0234V85.2593L270.966 90H270.542L272.655 85.3755H269.821V85.0234H273.092ZM274.822 87.2861H275.239C275.494 87.2861 275.707 87.2428 275.878 87.1562C276.051 87.0674 276.181 86.95 276.268 86.8042C276.356 86.6584 276.401 86.4966 276.401 86.3188C276.401 86.1183 276.363 85.9429 276.288 85.7925C276.213 85.6398 276.098 85.5213 275.943 85.437C275.79 85.3504 275.594 85.3071 275.355 85.3071C275.145 85.3071 274.958 85.3481 274.794 85.4302C274.63 85.5122 274.5 85.6296 274.405 85.7822C274.309 85.9349 274.261 86.1172 274.261 86.3291H273.854C273.854 86.0579 273.919 85.8198 274.049 85.6147C274.179 85.4074 274.358 85.2456 274.586 85.1294C274.814 85.0132 275.07 84.9551 275.355 84.9551C275.649 84.9551 275.904 85.0086 276.121 85.1157C276.339 85.2228 276.508 85.3789 276.626 85.584C276.747 85.7891 276.808 86.0386 276.808 86.3325C276.808 86.4829 276.775 86.631 276.708 86.7769C276.645 86.9227 276.549 87.0549 276.421 87.1733C276.294 87.2896 276.135 87.383 275.946 87.4536C275.757 87.5243 275.537 87.5596 275.287 87.5596H274.822V87.2861ZM274.822 87.6382V87.3682H275.287C275.571 87.3682 275.815 87.4012 276.018 87.4673C276.221 87.5311 276.387 87.6222 276.517 87.7407C276.649 87.8569 276.746 87.9925 276.808 88.1475C276.869 88.3024 276.9 88.4688 276.9 88.6465C276.9 88.8743 276.862 89.076 276.787 89.2515C276.712 89.4269 276.605 89.5762 276.466 89.6992C276.329 89.82 276.167 89.9123 275.98 89.9761C275.796 90.0376 275.593 90.0684 275.372 90.0684C275.172 90.0684 274.976 90.0387 274.784 89.9795C274.595 89.9202 274.424 89.8325 274.271 89.7163C274.121 89.5978 274.001 89.4497 273.913 89.272C273.824 89.092 273.779 88.8846 273.779 88.6499H274.186C274.186 88.8595 274.236 89.0452 274.336 89.207C274.437 89.3665 274.576 89.4919 274.753 89.583C274.933 89.6719 275.14 89.7163 275.372 89.7163C275.607 89.7163 275.807 89.6764 275.974 89.5967C276.142 89.5146 276.271 89.395 276.36 89.2378C276.449 89.0806 276.493 88.888 276.493 88.6602C276.493 88.4209 276.44 88.2261 276.333 88.0757C276.228 87.9253 276.081 87.8148 275.892 87.7441C275.705 87.6735 275.487 87.6382 275.239 87.6382H274.822ZM281.08 88.3936V88.7422H277.556V88.5063L279.856 85.0234H280.198L279.713 85.8677L278.055 88.3936H281.08ZM280.304 85.0234V90H279.897V85.0234H280.304ZM282.276 87.5391L281.955 87.4468L282.198 85.0234H284.686V85.4062H282.546L282.372 87.0811C282.459 87.0195 282.584 86.9591 282.748 86.8999C282.914 86.8384 283.101 86.8076 283.309 86.8076C283.53 86.8076 283.73 86.8452 283.91 86.9204C284.092 86.9933 284.249 87.1004 284.378 87.2417C284.508 87.3807 284.609 87.5493 284.679 87.7476C284.75 87.9435 284.785 88.1657 284.785 88.4141C284.785 88.6533 284.756 88.8732 284.696 89.0737C284.637 89.2743 284.547 89.4497 284.426 89.6001C284.306 89.7482 284.152 89.8633 283.965 89.9453C283.778 90.0273 283.556 90.0684 283.298 90.0684C283.1 90.0684 282.913 90.041 282.738 89.9863C282.565 89.9294 282.41 89.8439 282.273 89.73C282.136 89.616 282.025 89.4725 281.938 89.2993C281.854 89.1261 281.801 88.9233 281.781 88.6909H282.174C282.201 88.9142 282.262 89.1022 282.355 89.2549C282.448 89.4076 282.574 89.5226 282.731 89.6001C282.89 89.6776 283.08 89.7163 283.298 89.7163C283.476 89.7163 283.631 89.6878 283.763 89.6309C283.898 89.5739 284.009 89.4907 284.098 89.3813C284.189 89.2697 284.258 89.1341 284.303 88.9746C284.351 88.8128 284.375 88.6283 284.375 88.4209C284.375 88.2432 284.35 88.0802 284.3 87.9321C284.25 87.7817 284.176 87.6507 284.078 87.5391C283.982 87.4251 283.863 87.3374 283.722 87.2759C283.581 87.2144 283.419 87.1836 283.237 87.1836C283 87.1836 282.811 87.2155 282.669 87.2793C282.53 87.3431 282.399 87.4297 282.276 87.5391ZM288.559 87.0845V87.9219C288.559 88.2865 288.524 88.6043 288.456 88.8755C288.388 89.1444 288.287 89.3677 288.155 89.5454C288.025 89.7209 287.866 89.8519 287.677 89.9385C287.49 90.0251 287.276 90.0684 287.034 90.0684C286.843 90.0684 286.667 90.041 286.508 89.9863C286.348 89.9316 286.206 89.8485 286.081 89.7368C285.958 89.6229 285.853 89.4805 285.766 89.3096C285.68 89.1387 285.613 88.9382 285.568 88.708C285.522 88.4756 285.5 88.2135 285.5 87.9219V87.0845C285.5 86.7176 285.534 86.4009 285.602 86.1343C285.673 85.8677 285.773 85.6466 285.903 85.4712C286.035 85.2957 286.196 85.1659 286.385 85.0815C286.574 84.995 286.788 84.9517 287.027 84.9517C287.219 84.9517 287.394 84.9801 287.554 85.0371C287.715 85.0918 287.858 85.1738 287.981 85.2832C288.106 85.3926 288.211 85.5327 288.295 85.7036C288.382 85.8722 288.447 86.0716 288.49 86.3018C288.536 86.5319 288.559 86.7928 288.559 87.0845ZM288.152 87.9697V87.0332C288.152 86.8076 288.136 86.6025 288.104 86.418C288.074 86.2334 288.03 86.0716 287.971 85.9326C287.911 85.7936 287.836 85.6774 287.745 85.584C287.656 85.4906 287.551 85.4211 287.431 85.3755C287.312 85.3276 287.178 85.3037 287.027 85.3037C286.843 85.3037 286.68 85.3413 286.539 85.4165C286.4 85.4894 286.283 85.5988 286.19 85.7446C286.097 85.8882 286.026 86.0682 285.978 86.2847C285.932 86.5011 285.91 86.7507 285.91 87.0332V87.9697C285.91 88.193 285.924 88.397 285.954 88.5815C285.984 88.7638 286.029 88.9256 286.091 89.0669C286.152 89.2082 286.228 89.3278 286.316 89.4258C286.408 89.5215 286.512 89.5944 286.631 89.6445C286.752 89.6924 286.886 89.7163 287.034 89.7163C287.223 89.7163 287.387 89.6787 287.526 89.6035C287.665 89.526 287.782 89.4132 287.875 89.2651C287.968 89.1147 288.038 88.9313 288.083 88.7148C288.129 88.4961 288.152 88.2477 288.152 87.9697ZM289.902 89.354V89.8325C289.902 90.0422 289.859 90.2438 289.772 90.4375C289.685 90.6335 289.568 90.7987 289.42 90.9331L289.181 90.7554C289.251 90.6597 289.311 90.564 289.358 90.4683C289.406 90.3748 289.442 90.2769 289.464 90.1743C289.489 90.0718 289.502 89.9613 289.502 89.8428V89.354H289.902ZM295.695 87.4673V87.8535H292.284V87.4673H295.695ZM294.181 85.8779V89.501H293.771V85.8779H294.181ZM299.735 88.3936V88.7422H296.211V88.5063L298.512 85.0234H298.854L298.368 85.8677L296.71 88.3936H299.735ZM298.959 85.0234V90H298.553V85.0234H298.959ZM303.618 88.3936V88.7422H300.094V88.5063L302.395 85.0234H302.736L302.251 85.8677L300.593 88.3936H303.618ZM302.842 85.0234V90H302.436V85.0234H302.842ZM307.826 85.0029V90H307.419V85.519L306.065 86.0215V85.6353L307.757 85.0029H307.826ZM312.922 89.6479V90H309.808V89.6821L311.438 87.833C311.641 87.6029 311.803 87.4012 311.924 87.228C312.045 87.0526 312.131 86.8931 312.184 86.7495C312.238 86.6037 312.266 86.4624 312.266 86.3257C312.266 86.1252 312.226 85.9486 312.146 85.7959C312.069 85.6432 311.952 85.5236 311.797 85.437C311.642 85.3504 311.451 85.3071 311.223 85.3071C310.995 85.3071 310.797 85.3561 310.628 85.4541C310.46 85.5521 310.33 85.6888 310.239 85.8643C310.15 86.0374 310.105 86.2345 310.105 86.4556H309.699C309.699 86.1821 309.759 85.9315 309.88 85.7036C310.003 85.4757 310.178 85.2946 310.406 85.1602C310.634 85.0234 310.906 84.9551 311.223 84.9551C311.524 84.9551 311.783 85.0086 311.999 85.1157C312.215 85.2205 312.382 85.3721 312.498 85.5703C312.617 85.7686 312.676 86.0078 312.676 86.2881C312.676 86.4385 312.648 86.59 312.594 86.7427C312.541 86.8953 312.468 87.048 312.375 87.2007C312.284 87.3511 312.179 87.5003 312.061 87.6484C311.944 87.7965 311.822 87.9424 311.695 88.0859L310.307 89.6479H312.922ZM316.753 85.0234V85.2593L314.627 90H314.204L316.316 85.3755H313.482V85.0234H316.753ZM320.633 88.6807C320.633 88.9814 320.562 89.2355 320.421 89.4429C320.282 89.6502 320.093 89.8063 319.854 89.9111C319.614 90.016 319.347 90.0684 319.05 90.0684C318.752 90.0684 318.483 90.016 318.244 89.9111C318.004 89.8063 317.814 89.6502 317.673 89.4429C317.534 89.2355 317.464 88.9814 317.464 88.6807C317.464 88.4824 317.503 88.3024 317.581 88.1406C317.66 87.9766 317.771 87.8353 317.912 87.7168C318.056 87.596 318.223 87.5026 318.415 87.4365C318.606 87.3704 318.816 87.3374 319.043 87.3374C319.344 87.3374 319.614 87.3955 319.854 87.5117C320.093 87.6257 320.282 87.7829 320.421 87.9834C320.562 88.1839 320.633 88.4163 320.633 88.6807ZM320.223 88.6807C320.223 88.4688 320.171 88.283 320.069 88.1235C319.966 87.964 319.826 87.841 319.648 87.7544C319.471 87.6655 319.269 87.6211 319.043 87.6211C318.816 87.6211 318.614 87.6655 318.438 87.7544C318.263 87.841 318.125 87.964 318.025 88.1235C317.925 88.283 317.875 88.4688 317.875 88.6807C317.875 88.9017 317.924 89.0897 318.021 89.2446C318.122 89.3996 318.261 89.5169 318.438 89.5967C318.616 89.6764 318.82 89.7163 319.05 89.7163C319.28 89.7163 319.483 89.6764 319.659 89.5967C319.834 89.5169 319.972 89.3996 320.072 89.2446C320.173 89.0897 320.223 88.9017 320.223 88.6807ZM320.503 86.3018C320.503 86.5456 320.438 86.7632 320.308 86.9546C320.181 87.1437 320.007 87.293 319.789 87.4023C319.57 87.5094 319.323 87.563 319.047 87.563C318.769 87.563 318.519 87.5094 318.298 87.4023C318.08 87.293 317.906 87.1437 317.779 86.9546C317.653 86.7632 317.591 86.5456 317.591 86.3018C317.591 86.0124 317.653 85.7686 317.779 85.5703C317.906 85.3698 318.08 85.2171 318.298 85.1123C318.517 85.0075 318.765 84.9551 319.043 84.9551C319.319 84.9551 319.566 85.0075 319.785 85.1123C320.006 85.2171 320.181 85.3698 320.308 85.5703C320.438 85.7686 320.503 86.0124 320.503 86.3018ZM320.096 86.2983C320.096 86.1047 320.049 85.9338 319.956 85.7856C319.865 85.6375 319.74 85.5213 319.58 85.437C319.423 85.3504 319.244 85.3071 319.043 85.3071C318.841 85.3071 318.661 85.347 318.503 85.4268C318.348 85.5065 318.225 85.6204 318.134 85.7686C318.045 85.9167 318.001 86.0933 318.001 86.2983C318.001 86.4989 318.045 86.672 318.134 86.8179C318.225 86.9614 318.35 87.0731 318.507 87.1528C318.664 87.2326 318.844 87.2725 319.047 87.2725C319.25 87.2725 319.43 87.2326 319.587 87.1528C319.744 87.0731 319.868 86.9614 319.959 86.8179C320.051 86.672 320.096 86.4989 320.096 86.2983ZM326.45 88.3936V88.7422H322.926V88.5063L325.227 85.0234H325.568L325.083 85.8677L323.425 88.3936H326.45ZM325.674 85.0234V90H325.268V85.0234H325.674ZM330.111 85.0234V85.2593L327.985 90H327.561L329.673 85.3755H326.84V85.0234H330.111ZM333.929 87.0845V87.9219C333.929 88.2865 333.895 88.6043 333.826 88.8755C333.758 89.1444 333.658 89.3677 333.525 89.5454C333.396 89.7209 333.236 89.8519 333.047 89.9385C332.86 90.0251 332.646 90.0684 332.404 90.0684C332.213 90.0684 332.037 90.041 331.878 89.9863C331.718 89.9316 331.576 89.8485 331.451 89.7368C331.328 89.6229 331.223 89.4805 331.136 89.3096C331.05 89.1387 330.984 88.9382 330.938 88.708C330.892 88.4756 330.87 88.2135 330.87 87.9219V87.0845C330.87 86.7176 330.904 86.4009 330.972 86.1343C331.043 85.8677 331.143 85.6466 331.273 85.4712C331.405 85.2957 331.566 85.1659 331.755 85.0815C331.944 84.995 332.158 84.9517 332.397 84.9517C332.589 84.9517 332.764 84.9801 332.924 85.0371C333.086 85.0918 333.228 85.1738 333.351 85.2832C333.476 85.3926 333.581 85.5327 333.666 85.7036C333.752 85.8722 333.817 86.0716 333.86 86.3018C333.906 86.5319 333.929 86.7928 333.929 87.0845ZM333.522 87.9697V87.0332C333.522 86.8076 333.506 86.6025 333.474 86.418C333.444 86.2334 333.4 86.0716 333.341 85.9326C333.282 85.7936 333.206 85.6774 333.115 85.584C333.026 85.4906 332.922 85.4211 332.801 85.3755C332.682 85.3276 332.548 85.3037 332.397 85.3037C332.213 85.3037 332.05 85.3413 331.909 85.4165C331.77 85.4894 331.653 85.5988 331.56 85.7446C331.467 85.8882 331.396 86.0682 331.348 86.2847C331.303 86.5011 331.28 86.7507 331.28 87.0332V87.9697C331.28 88.193 331.295 88.397 331.324 88.5815C331.354 88.7638 331.399 88.9256 331.461 89.0669C331.522 89.2082 331.598 89.3278 331.687 89.4258C331.778 89.5215 331.882 89.5944 332.001 89.6445C332.122 89.6924 332.256 89.7163 332.404 89.7163C332.593 89.7163 332.757 89.6787 332.896 89.6035C333.035 89.526 333.152 89.4132 333.245 89.2651C333.339 89.1147 333.408 88.9313 333.454 88.7148C333.499 88.4961 333.522 88.2477 333.522 87.9697ZM338.099 88.3936V88.7422H334.575V88.5063L336.875 85.0234H337.217L336.731 85.8677L335.074 88.3936H338.099ZM337.323 85.0234V90H336.916V85.0234H337.323ZM339.257 89.6787H339.346C339.708 89.6787 340.012 89.6263 340.255 89.5215C340.499 89.4144 340.694 89.2674 340.84 89.0806C340.988 88.8914 341.094 88.6704 341.158 88.4175C341.222 88.1646 341.253 87.89 341.253 87.5938V86.8999C341.253 86.6379 341.225 86.4077 341.168 86.2095C341.111 86.0112 341.03 85.846 340.925 85.7139C340.82 85.5794 340.696 85.478 340.553 85.4097C340.411 85.3413 340.254 85.3071 340.081 85.3071C339.91 85.3071 339.755 85.3436 339.616 85.4165C339.479 85.4894 339.363 85.5908 339.268 85.7207C339.174 85.8483 339.101 85.9953 339.049 86.1616C338.999 86.3257 338.974 86.5 338.974 86.6846C338.974 86.8532 338.996 87.0173 339.042 87.1768C339.09 87.334 339.159 87.4764 339.25 87.604C339.342 87.7293 339.453 87.8296 339.585 87.9048C339.72 87.9777 339.875 88.0142 340.05 88.0142C340.249 88.0142 340.424 87.9766 340.577 87.9014C340.732 87.8262 340.863 87.7293 340.97 87.6108C341.079 87.4901 341.162 87.3602 341.219 87.2212C341.278 87.0799 341.31 86.9432 341.315 86.811L341.52 86.8076C341.52 87.015 341.481 87.2132 341.404 87.4023C341.329 87.5892 341.222 87.7555 341.083 87.9014C340.946 88.0449 340.785 88.1589 340.601 88.2432C340.416 88.3275 340.217 88.3696 340.002 88.3696C339.77 88.3696 339.564 88.3241 339.384 88.2329C339.206 88.1395 339.057 88.0142 338.936 87.8569C338.818 87.6974 338.728 87.5186 338.666 87.3203C338.604 87.1221 338.574 86.9159 338.574 86.7017C338.574 86.4624 338.607 86.238 338.673 86.0283C338.741 85.8164 338.84 85.6307 338.97 85.4712C339.1 85.3094 339.257 85.1829 339.442 85.0918C339.629 85.0007 339.84 84.9551 340.074 84.9551C340.341 84.9551 340.573 85.0041 340.771 85.1021C340.97 85.1978 341.134 85.3345 341.264 85.5122C341.396 85.6899 341.494 85.8996 341.558 86.1411C341.624 86.3826 341.657 86.6493 341.657 86.9409V87.334C341.657 87.6279 341.634 87.9093 341.588 88.1782C341.543 88.4471 341.466 88.6955 341.359 88.9233C341.255 89.1489 341.113 89.3449 340.936 89.5112C340.758 89.6776 340.538 89.8075 340.276 89.9009C340.014 89.992 339.704 90.0376 339.346 90.0376H339.254L339.257 89.6787ZM345.693 89.6479V90H342.58V89.6821L344.21 87.833C344.413 87.6029 344.575 87.4012 344.695 87.228C344.816 87.0526 344.903 86.8931 344.955 86.7495C345.01 86.6037 345.037 86.4624 345.037 86.3257C345.037 86.1252 344.997 85.9486 344.917 85.7959C344.84 85.6432 344.724 85.5236 344.569 85.437C344.414 85.3504 344.222 85.3071 343.995 85.3071C343.767 85.3071 343.569 85.3561 343.4 85.4541C343.231 85.5521 343.101 85.6888 343.01 85.8643C342.921 86.0374 342.877 86.2345 342.877 86.4556H342.47C342.47 86.1821 342.531 85.9315 342.651 85.7036C342.774 85.4757 342.95 85.2946 343.178 85.1602C343.406 85.0234 343.678 84.9551 343.995 84.9551C344.295 84.9551 344.554 85.0086 344.771 85.1157C344.987 85.2205 345.153 85.3721 345.27 85.5703C345.388 85.7686 345.447 86.0078 345.447 86.2881C345.447 86.4385 345.42 86.59 345.365 86.7427C345.313 86.8953 345.24 87.048 345.146 87.2007C345.055 87.3511 344.951 87.5003 344.832 87.6484C344.716 87.7965 344.594 87.9424 344.466 88.0859L343.079 89.6479H345.693Z" fill="black"/>
<path d="M0 0H591L589.423 1.05882L572.071 6.88235L553.668 12.1765L531.585 18L514.759 22.2353L492.149 27L464.282 31.7647L439.569 35.4706L413.805 38.6471L390.144 40.7647L351.761 42.8824L334.935 43.4118H303.913L282.355 42.8824L248.178 40.7647L222.939 38.6471L196.124 35.4706L173.514 33.8824H131.45L106.738 35.4706L82.0249 38.1176L57.3123 41.8235L27.8674 47.6471L1.5774 54H0V0Z" fill="#0D3A65"/>
<path d="M591.317 0H595V5.81223L591.317 7.39738L571.326 13.738L557.122 17.9651L534.5 23.7773L515.035 28.5328L483.47 34.8734L464.531 38.0437L444.014 41.214L427.706 43.3275L408.24 45.441L382.989 47.5546L365.102 48.6114L336.693 49.6681H298.815L270.933 48.6114L251.994 47.5546L239.368 46.4978H227.268L206.225 49.1397L190.442 51.7817L172.555 54.952L157.299 58.1223L143.095 61.2926L134.677 63.4061L116.264 68.69L97.8515 74.5022L81.5429 80.3144L65.2343 86.655L52.6083 92.4672L42.0866 97.2227L32.0911 102.507L19.9912 108.847L13.1521 113.074L7.89125 116.245L0.526083 121H0V53.8952L25.252 47.5546L54.7126 41.7424L74.7038 38.5721L91.5385 36.4585L113.634 34.345L131.521 33.2882H173.607L196.229 34.8734L228.32 38.5721L263.568 41.214L282.507 42.2707L304.076 42.7991H335.115L351.95 42.2707L390.354 40.1572L418.762 37.5153L444.014 34.345L474.527 29.5895L497.675 25.3624L517.666 21.1354L533.974 16.9083L553.966 11.6245L575.535 5.28384L591.317 0Z" fill="#F0E7C2"/>
<path d="M170 0H591L589.425 1.04348L572.102 6.78261L553.729 12L543.756 14.6087L535.357 16.1739L517.509 19.8261L502.81 22.4348L488.112 24L450.317 26.087L423.02 26.6087H397.823L349.529 24.5217L326.431 22.9565L292.31 19.8261L288.111 19.3043L294.935 21.913L304.384 27.1304L320.132 29.2174L326.431 30.7826L331.156 33.3913L332.731 34.9565L332.206 36L327.481 33.913L321.707 32.3478L316.983 31.8261L273.413 31.3043L251.89 30.2609L240.342 28.6957L235.617 27.1304V26.6087L246.116 25.0435L260.814 19.8261L266.064 18.7826L275.512 17.7391L240.342 13.0435L210.945 8.34783L190.998 4.69565L170 0.521739V0Z" fill="#1E5482"/>
<path d="M591.317 0H595V5.83478L591.317 7.42609L571.326 13.7913L557.122 18.0348L534.5 23.8696L515.035 28.6435L483.47 35.0087L464.531 38.1913L444.014 41.3739L427.706 43.4957L408.24 45.6174L382.989 47.7391L365.102 48.8L336.693 49.8609H298.815L270.933 48.8L251.994 47.7391L234.633 46.1478L224.111 45.6174L206.225 43.4957L196.755 42.4348L178.868 40.8435L164.664 40.313H141.516L124.682 40.8435L98.3775 42.9652L79.9646 45.087L73.6516 46.1478L53.6605 49.3304L41.0345 51.9826L25.7781 55.1652L4.73475 60.4696L0 61V54.1043L25.252 47.7391L54.7126 41.9043L74.7038 38.7217L91.5385 36.6L113.634 34.4783L131.521 33.4174H173.607L196.229 35.0087L228.32 38.7217L263.568 41.3739L282.507 42.4348L304.076 42.9652H335.115L351.95 42.4348L390.354 40.313L418.762 37.6609L444.014 34.4783L474.527 29.7043L497.675 25.4609L517.666 21.2174L533.974 16.9739L553.966 11.6696L575.535 5.30435L591.317 0Z" fill="#FACA4D"/>
<path d="M158.604 0H206.948L221.823 4.21L238.186 8.42L259.011 13.1563L281.695 17.3663L285.414 17.8925V18.4188L275.001 19.4713L269.051 21.5763L260.87 25.7863L257.523 26.3125V25.26H254.548L235.583 21.5763L223.683 18.945L208.436 15.2613L192.445 11.0513L178.314 6.84125L163.439 2.105L158.604 0.52625V0Z" fill="#0D3A65"/>
<path d="M272.611 18H281.086L287.973 19.0588L294.859 21.7059L304.395 27L320.286 29.1176L326.643 30.7059L331.411 33.3529L333 34.9412L332.47 36L327.703 33.8824L321.876 32.2941L317.108 31.7647L273.141 31.2353L251.422 30.1765L239.768 28.5882L235 27V26.4706L245.595 24.8824L260.427 19.5882L265.724 18.5294L272.611 18Z" fill="#F8D269"/>
<path d="M80 0H101.955L127.045 5.7037L147.432 9.85185L163.114 12.963L174.614 15.037L199.705 19.1852L228.455 23.3333L241 24.8889V25.9259L235.773 26.963V28L216.432 25.9259L200.227 23.8519L186.636 21.7778L167.818 18.6667L146.909 15.037L116.068 8.81481L99.8636 5.18519L80 0.518519V0Z" fill="#1E5482"/>
<path d="M268.907 20H283.884L289.233 21L297.791 25L301 27.5V28H288.698L263.558 27.5L255 27L256.07 25L259.279 22.5L265.698 20.5L268.907 20Z" fill="#113D66"/>
<path d="M237 29L244.402 30.0667L256.563 32.2L270.31 33.8H298.862L309.966 32.7333H316.839L323.713 33.8L329 35.4L327.414 35.9333L320.54 34.8667H313.138L296.218 37H270.31L257.092 35.4L245.46 32.7333L237 29.5333V29Z" fill="#F8D577"/>
<path d="M214.892 59.7495V64.4561C214.715 64.6829 214.436 64.9292 214.054 65.1948C213.677 65.4604 213.185 65.6901 212.576 65.8838C211.967 66.0719 211.22 66.166 210.335 66.166C209.566 66.166 208.863 66.0387 208.227 65.7842C207.59 65.5241 207.042 65.145 206.583 64.647C206.124 64.1489 205.77 63.5402 205.521 62.8208C205.271 62.1014 205.147 61.2796 205.147 60.3555V59.5586C205.147 58.6344 205.263 57.8127 205.496 57.0933C205.734 56.3739 206.071 55.7651 206.508 55.2671C206.951 54.769 207.479 54.39 208.094 54.1299C208.714 53.8698 209.405 53.7397 210.169 53.7397C211.193 53.7397 212.034 53.9085 212.692 54.2461C213.356 54.5837 213.866 55.0485 214.22 55.6406C214.574 56.2272 214.795 56.9023 214.884 57.666H212.659C212.598 57.2454 212.477 56.8774 212.294 56.562C212.111 56.241 211.851 55.992 211.514 55.8149C211.182 55.6323 210.75 55.541 210.219 55.541C209.771 55.541 209.375 55.6296 209.032 55.8066C208.689 55.9837 208.401 56.241 208.168 56.5786C207.936 56.9162 207.759 57.334 207.637 57.832C207.521 58.3301 207.463 58.9001 207.463 59.542V60.3555C207.463 61.0029 207.529 61.5785 207.662 62.082C207.795 62.5801 207.986 63.0007 208.235 63.3438C208.489 63.6813 208.802 63.9386 209.173 64.1157C209.549 64.2873 209.975 64.373 210.451 64.373C210.883 64.373 211.24 64.3371 211.522 64.2651C211.81 64.1877 212.039 64.0964 212.211 63.9912C212.382 63.8861 212.515 63.7837 212.609 63.6841V61.418H210.21V59.7495H214.892ZM217.05 53.9141H221.441C222.36 53.9141 223.149 54.0524 223.807 54.3291C224.466 54.6058 224.972 55.0153 225.326 55.5576C225.68 56.0999 225.857 56.7668 225.857 57.5581C225.857 58.1834 225.747 58.7257 225.525 59.1851C225.304 59.6444 224.991 60.029 224.587 60.3389C224.189 60.6488 223.719 60.8923 223.176 61.0693L222.462 61.4346H218.586L218.569 59.6333H221.466C221.937 59.6333 222.327 59.5503 222.637 59.3843C222.947 59.2183 223.179 58.9886 223.334 58.6953C223.494 58.402 223.575 58.0672 223.575 57.6909C223.575 57.2869 223.497 56.9383 223.342 56.645C223.187 56.3462 222.952 56.1165 222.637 55.9561C222.321 55.7956 221.923 55.7153 221.441 55.7153H219.333V66H217.05V53.9141ZM223.874 66L221.076 60.5879L223.492 60.5796L226.322 65.8838V66H223.874ZM232.664 55.7485L229.219 66H226.804L231.319 53.9141H232.863L232.664 55.7485ZM235.544 66L232.083 55.7485L231.875 53.9141H233.428L237.968 66H235.544ZM235.387 61.5093V63.3105H228.904V61.5093H235.387ZM246.136 62.0239H248.419C248.358 62.8319 248.134 63.5485 247.747 64.1738C247.359 64.7936 246.82 65.2806 246.128 65.6348C245.436 65.9889 244.598 66.166 243.613 66.166C242.855 66.166 242.171 66.0332 241.562 65.7676C240.959 65.4964 240.442 65.1118 240.01 64.6138C239.584 64.1102 239.258 63.507 239.031 62.8042C238.804 62.0959 238.69 61.3018 238.69 60.4219V59.5005C238.69 58.6206 238.807 57.8265 239.039 57.1182C239.271 56.4098 239.604 55.8066 240.035 55.3086C240.472 54.805 240.995 54.4176 241.604 54.1465C242.218 53.8753 242.904 53.7397 243.663 53.7397C244.648 53.7397 245.48 53.9224 246.161 54.2876C246.842 54.6473 247.37 55.1426 247.747 55.7734C248.123 56.4043 248.35 57.1292 248.427 57.9482H246.145C246.1 57.4391 245.99 57.0075 245.812 56.6533C245.641 56.2992 245.381 56.0308 245.032 55.8481C244.689 55.66 244.233 55.5659 243.663 55.5659C243.22 55.5659 242.83 55.6489 242.492 55.8149C242.16 55.981 241.883 56.23 241.662 56.562C241.441 56.8885 241.275 57.298 241.164 57.7905C241.053 58.2775 240.998 58.842 240.998 59.4839V60.4219C240.998 61.0361 241.048 61.5868 241.147 62.0737C241.247 62.5607 241.402 62.973 241.612 63.3105C241.823 63.6481 242.094 63.9054 242.426 64.0825C242.758 64.2596 243.153 64.3481 243.613 64.3481C244.172 64.3481 244.625 64.2596 244.974 64.0825C245.328 63.9054 245.597 63.6453 245.779 63.3022C245.967 62.9591 246.086 62.533 246.136 62.0239ZM258.197 64.207V66H251.772V64.207H258.197ZM252.47 53.9141V66H250.187V53.9141H252.47ZM257.359 58.9028V60.6543H251.772V58.9028H257.359ZM258.172 53.9141V55.7153H251.772V53.9141H258.172ZM268.822 55.7485L265.377 66H262.962L267.478 53.9141H269.021L268.822 55.7485ZM271.703 66L268.241 55.7485L268.034 53.9141H269.586L274.126 66H271.703ZM271.545 61.5093V63.3105H265.062V61.5093H271.545ZM281.946 53.9141H284.229V61.9409C284.229 62.8651 284.029 63.6426 283.631 64.2734C283.232 64.8988 282.69 65.3719 282.004 65.6929C281.318 66.0083 280.537 66.166 279.663 66.166C278.778 66.166 277.989 66.0083 277.297 65.6929C276.606 65.3719 276.063 64.8988 275.67 64.2734C275.278 63.6426 275.081 62.8651 275.081 61.9409V53.9141H277.364V61.9409C277.364 62.5054 277.458 62.9674 277.646 63.3271C277.834 63.6813 278.1 63.9442 278.443 64.1157C278.786 64.2873 279.193 64.373 279.663 64.373C280.139 64.373 280.546 64.2873 280.883 64.1157C281.226 63.9442 281.489 63.6813 281.672 63.3271C281.854 62.9674 281.946 62.5054 281.946 61.9409V53.9141ZM291.583 53.9141V66H289.309V53.9141H291.583ZM295.335 53.9141V55.7153H285.598V53.9141H295.335ZM306.408 59.6499V60.2725C306.408 61.1855 306.286 62.0073 306.043 62.7378C305.799 63.4627 305.454 64.0798 305.005 64.5889C304.557 65.098 304.023 65.4881 303.403 65.7593C302.784 66.0304 302.095 66.166 301.336 66.166C300.589 66.166 299.903 66.0304 299.278 65.7593C298.658 65.4881 298.121 65.098 297.667 64.5889C297.214 64.0798 296.862 63.4627 296.613 62.7378C296.364 62.0073 296.24 61.1855 296.24 60.2725V59.6499C296.24 58.7313 296.364 57.9095 296.613 57.1846C296.862 56.4596 297.211 55.8426 297.659 55.3335C298.107 54.8188 298.641 54.4259 299.261 54.1548C299.887 53.8836 300.573 53.748 301.32 53.748C302.078 53.748 302.767 53.8836 303.387 54.1548C304.007 54.4259 304.541 54.8188 304.989 55.3335C305.443 55.8426 305.791 56.4596 306.035 57.1846C306.284 57.9095 306.408 58.7313 306.408 59.6499ZM304.101 60.2725V59.6333C304.101 58.9748 304.04 58.3965 303.918 57.8984C303.796 57.3949 303.616 56.9715 303.378 56.6284C303.14 56.2853 302.847 56.028 302.499 55.8564C302.15 55.6794 301.757 55.5908 301.32 55.5908C300.877 55.5908 300.484 55.6794 300.141 55.8564C299.804 56.028 299.516 56.2853 299.278 56.6284C299.04 56.9715 298.857 57.3949 298.73 57.8984C298.608 58.3965 298.547 58.9748 298.547 59.6333V60.2725C298.547 60.9255 298.608 61.5037 298.73 62.0073C298.857 62.5109 299.04 62.937 299.278 63.2856C299.521 63.6287 299.815 63.8888 300.158 64.0659C300.501 64.243 300.894 64.3315 301.336 64.3315C301.779 64.3315 302.172 64.243 302.515 64.0659C302.858 63.8888 303.146 63.6287 303.378 63.2856C303.616 62.937 303.796 62.5109 303.918 62.0073C304.04 61.5037 304.101 60.9255 304.101 60.2725ZM318.901 62.8623C318.901 62.6299 318.865 62.4224 318.793 62.2397C318.727 62.0516 318.602 61.8828 318.419 61.7334C318.242 61.5785 317.991 61.429 317.664 61.2852C317.343 61.1357 316.928 60.9808 316.419 60.8203C315.854 60.6432 315.329 60.444 314.842 60.2227C314.355 60.0013 313.926 59.744 313.555 59.4507C313.19 59.1574 312.905 58.8198 312.7 58.438C312.495 58.0506 312.393 57.6024 312.393 57.0933C312.393 56.5952 312.498 56.1414 312.708 55.7319C312.924 55.3224 313.229 54.971 313.622 54.6777C314.014 54.3789 314.477 54.1493 315.008 53.9888C315.545 53.8283 316.137 53.748 316.784 53.748C317.681 53.748 318.455 53.9113 319.108 54.2378C319.767 54.5643 320.276 55.007 320.636 55.5659C320.995 56.1248 321.175 56.7529 321.175 57.4502H318.901C318.901 57.0739 318.821 56.7419 318.66 56.4541C318.505 56.1663 318.267 55.9395 317.946 55.7734C317.631 55.6074 317.232 55.5244 316.751 55.5244C316.286 55.5244 315.899 55.5936 315.589 55.7319C315.285 55.8703 315.055 56.0584 314.9 56.2964C314.75 56.5343 314.676 56.8 314.676 57.0933C314.676 57.3146 314.728 57.5138 314.833 57.6909C314.939 57.8625 315.096 58.0257 315.307 58.1807C315.517 58.3301 315.777 58.4712 316.087 58.604C316.402 58.7313 316.768 58.8586 317.183 58.9858C317.847 59.1851 318.428 59.4064 318.926 59.6499C319.429 59.8934 319.847 60.1701 320.179 60.48C320.517 60.7899 320.769 61.1385 320.935 61.5259C321.106 61.9132 321.192 62.3532 321.192 62.8457C321.192 63.3659 321.09 63.8307 320.885 64.2402C320.68 64.6497 320.387 64.9984 320.005 65.2861C319.623 65.5739 319.164 65.7925 318.627 65.9419C318.096 66.0913 317.501 66.166 316.842 66.166C316.256 66.166 315.675 66.0885 315.099 65.9336C314.529 65.7731 314.012 65.5352 313.547 65.2197C313.082 64.8988 312.711 64.4948 312.435 64.0078C312.158 63.5153 312.02 62.9398 312.02 62.2812H314.311C314.311 62.6631 314.371 62.9896 314.493 63.2607C314.62 63.5264 314.798 63.745 315.024 63.9165C315.257 64.0825 315.528 64.2043 315.838 64.2817C316.148 64.3592 316.483 64.3979 316.842 64.3979C317.307 64.3979 317.689 64.3343 317.988 64.207C318.292 64.0742 318.519 63.8916 318.668 63.6592C318.823 63.4268 318.901 63.1611 318.901 62.8623ZM330.962 64.207V66H324.537V64.207H330.962ZM325.234 53.9141V66H322.952V53.9141H325.234ZM330.124 58.9028V60.6543H324.537V58.9028H330.124ZM330.937 53.9141V55.7153H324.537V53.9141H330.937ZM332.547 53.9141H336.938C337.857 53.9141 338.646 54.0524 339.304 54.3291C339.963 54.6058 340.469 55.0153 340.823 55.5576C341.177 56.0999 341.354 56.7668 341.354 57.5581C341.354 58.1834 341.244 58.7257 341.022 59.1851C340.801 59.6444 340.488 60.029 340.084 60.3389C339.686 60.6488 339.216 60.8923 338.673 61.0693L337.959 61.4346H334.083L334.066 59.6333H336.963C337.434 59.6333 337.824 59.5503 338.134 59.3843C338.444 59.2183 338.676 58.9886 338.831 58.6953C338.992 58.402 339.072 58.0672 339.072 57.6909C339.072 57.2869 338.994 56.9383 338.839 56.645C338.684 56.3462 338.449 56.1165 338.134 55.9561C337.818 55.7956 337.42 55.7153 336.938 55.7153H334.83V66H332.547V53.9141ZM339.371 66L336.573 60.5879L338.989 60.5796L341.819 65.8838V66H339.371ZM347.439 63.6343L350.452 53.9141H352.984L348.717 66H347.032L347.439 63.6343ZM344.658 53.9141L347.655 63.6343L348.086 66H346.385L342.135 53.9141H344.658ZM356.661 53.9141V66H354.378V53.9141H356.661ZM366.199 62.0239H368.481C368.421 62.8319 368.196 63.5485 367.809 64.1738C367.422 64.7936 366.882 65.2806 366.19 65.6348C365.499 65.9889 364.66 66.166 363.675 66.166C362.917 66.166 362.234 66.0332 361.625 65.7676C361.022 65.4964 360.504 65.1118 360.073 64.6138C359.647 64.1102 359.32 63.507 359.093 62.8042C358.866 62.0959 358.753 61.3018 358.753 60.4219V59.5005C358.753 58.6206 358.869 57.8265 359.102 57.1182C359.334 56.4098 359.666 55.8066 360.098 55.3086C360.535 54.805 361.058 54.4176 361.667 54.1465C362.281 53.8753 362.967 53.7397 363.725 53.7397C364.71 53.7397 365.543 53.9224 366.224 54.2876C366.904 54.6473 367.433 55.1426 367.809 55.7734C368.185 56.4043 368.412 57.1292 368.49 57.9482H366.207C366.163 57.4391 366.052 57.0075 365.875 56.6533C365.703 56.2992 365.443 56.0308 365.095 55.8481C364.752 55.66 364.295 55.5659 363.725 55.5659C363.282 55.5659 362.892 55.6489 362.555 55.8149C362.223 55.981 361.946 56.23 361.725 56.562C361.503 56.8885 361.337 57.298 361.227 57.7905C361.116 58.2775 361.061 58.842 361.061 59.4839V60.4219C361.061 61.0361 361.11 61.5868 361.21 62.0737C361.31 62.5607 361.465 62.973 361.675 63.3105C361.885 63.6481 362.156 63.9054 362.488 64.0825C362.82 64.2596 363.216 64.3481 363.675 64.3481C364.234 64.3481 364.688 64.2596 365.037 64.0825C365.391 63.9054 365.659 63.6453 365.842 63.3022C366.03 62.9591 366.149 62.533 366.199 62.0239ZM378.26 64.207V66H371.835V64.207H378.26ZM372.532 53.9141V66H370.25V53.9141H372.532ZM377.421 58.9028V60.6543H371.835V58.9028H377.421ZM378.235 53.9141V55.7153H371.835V53.9141H378.235Z" fill="black"/>
<path d="M187.148 72.3125V72.582L184.719 78H184.234L186.648 72.7148H183.41V72.3125H187.148ZM191.582 76.4922C191.582 76.8359 191.501 77.1263 191.34 77.3633C191.181 77.6003 190.965 77.7786 190.691 77.8984C190.418 78.0182 190.112 78.0781 189.773 78.0781C189.432 78.0781 189.125 78.0182 188.852 77.8984C188.578 77.7786 188.361 77.6003 188.199 77.3633C188.04 77.1263 187.961 76.8359 187.961 76.4922C187.961 76.2656 188.005 76.0599 188.094 75.875C188.185 75.6875 188.311 75.526 188.473 75.3906C188.637 75.2526 188.828 75.1458 189.047 75.0703C189.266 74.9948 189.505 74.957 189.766 74.957C190.109 74.957 190.418 75.0234 190.691 75.1562C190.965 75.2865 191.181 75.4661 191.34 75.6953C191.501 75.9245 191.582 76.1901 191.582 76.4922ZM191.113 76.4922C191.113 76.25 191.055 76.0378 190.938 75.8555C190.82 75.6732 190.66 75.5326 190.457 75.4336C190.254 75.332 190.023 75.2812 189.766 75.2812C189.505 75.2812 189.275 75.332 189.074 75.4336C188.874 75.5326 188.716 75.6732 188.602 75.8555C188.487 76.0378 188.43 76.25 188.43 76.4922C188.43 76.7448 188.486 76.9596 188.598 77.1367C188.712 77.3138 188.871 77.4479 189.074 77.5391C189.277 77.6302 189.51 77.6758 189.773 77.6758C190.036 77.6758 190.268 77.6302 190.469 77.5391C190.669 77.4479 190.827 77.3138 190.941 77.1367C191.056 76.9596 191.113 76.7448 191.113 76.4922ZM191.434 73.7734C191.434 74.0521 191.359 74.3008 191.211 74.5195C191.065 74.7357 190.867 74.9062 190.617 75.0312C190.367 75.1536 190.085 75.2148 189.77 75.2148C189.452 75.2148 189.167 75.1536 188.914 75.0312C188.664 74.9062 188.466 74.7357 188.32 74.5195C188.177 74.3008 188.105 74.0521 188.105 73.7734C188.105 73.4427 188.177 73.1641 188.32 72.9375C188.466 72.7083 188.664 72.5339 188.914 72.4141C189.164 72.2943 189.448 72.2344 189.766 72.2344C190.081 72.2344 190.363 72.2943 190.613 72.4141C190.866 72.5339 191.065 72.7083 191.211 72.9375C191.359 73.1641 191.434 73.4427 191.434 73.7734ZM190.969 73.7695C190.969 73.5482 190.915 73.3529 190.809 73.1836C190.704 73.0143 190.561 72.8815 190.379 72.7852C190.199 72.6862 189.995 72.6367 189.766 72.6367C189.534 72.6367 189.328 72.6823 189.148 72.7734C188.971 72.8646 188.831 72.9948 188.727 73.1641C188.625 73.3333 188.574 73.5352 188.574 73.7695C188.574 73.9987 188.625 74.1966 188.727 74.3633C188.831 74.5273 188.973 74.6549 189.152 74.7461C189.332 74.8372 189.538 74.8828 189.77 74.8828C190.001 74.8828 190.207 74.8372 190.387 74.7461C190.566 74.6549 190.708 74.5273 190.812 74.3633C190.917 74.1966 190.969 73.9987 190.969 73.7695ZM194.809 72.3125H195.293L197.395 77.3203L199.5 72.3125H199.98L197.578 78H197.211L194.809 72.3125ZM194.66 72.3125H195.086L195.137 75.5156V78H194.66V72.3125ZM199.711 72.3125H200.137V78H199.656V75.5156L199.711 72.3125ZM204.043 77.2422V75.0625C204.043 74.862 204.001 74.6888 203.918 74.543C203.835 74.3971 203.712 74.2852 203.551 74.207C203.389 74.1289 203.19 74.0898 202.953 74.0898C202.734 74.0898 202.539 74.1289 202.367 74.207C202.198 74.2826 202.064 74.3854 201.965 74.5156C201.868 74.6432 201.82 74.7852 201.82 74.9414L201.352 74.9375C201.352 74.7786 201.391 74.625 201.469 74.4766C201.547 74.3281 201.658 74.1953 201.801 74.0781C201.944 73.9609 202.115 73.8685 202.312 73.8008C202.513 73.7305 202.733 73.6953 202.973 73.6953C203.275 73.6953 203.54 73.7461 203.77 73.8477C204.001 73.9492 204.182 74.1016 204.312 74.3047C204.443 74.5078 204.508 74.763 204.508 75.0703V77.1133C204.508 77.2591 204.518 77.4102 204.539 77.5664C204.562 77.7227 204.595 77.8516 204.637 77.9531V78H204.141C204.109 77.9062 204.085 77.7891 204.066 77.6484C204.051 77.5052 204.043 77.3698 204.043 77.2422ZM204.152 75.5391L204.16 75.8984H203.242C203.003 75.8984 202.788 75.9206 202.598 75.9648C202.41 76.0065 202.251 76.069 202.121 76.1523C201.991 76.2331 201.891 76.3307 201.82 76.4453C201.753 76.5599 201.719 76.6901 201.719 76.8359C201.719 76.987 201.757 77.125 201.832 77.25C201.91 77.375 202.02 77.4753 202.16 77.5508C202.303 77.6237 202.473 77.6602 202.668 77.6602C202.928 77.6602 203.158 77.612 203.355 77.5156C203.556 77.4193 203.721 77.293 203.852 77.1367C203.982 76.9805 204.069 76.8099 204.113 76.625L204.316 76.8945C204.283 77.0247 204.22 77.1589 204.129 77.2969C204.04 77.4323 203.924 77.5599 203.781 77.6797C203.638 77.7969 203.469 77.8932 203.273 77.9688C203.081 78.0417 202.862 78.0781 202.617 78.0781C202.341 78.0781 202.1 78.026 201.895 77.9219C201.691 77.8177 201.533 77.6758 201.418 77.4961C201.306 77.3138 201.25 77.1081 201.25 76.8789C201.25 76.6706 201.294 76.4844 201.383 76.3203C201.471 76.1536 201.599 76.013 201.766 75.8984C201.935 75.7812 202.138 75.6927 202.375 75.6328C202.615 75.5703 202.883 75.5391 203.18 75.5391H204.152ZM206.281 73.7734V78H205.816V73.7734H206.281ZM205.734 72.5508C205.734 72.4622 205.762 72.388 205.816 72.3281C205.874 72.2656 205.952 72.2344 206.051 72.2344C206.15 72.2344 206.228 72.2656 206.285 72.3281C206.345 72.388 206.375 72.4622 206.375 72.5508C206.375 72.6367 206.345 72.7109 206.285 72.7734C206.228 72.8333 206.15 72.8633 206.051 72.8633C205.952 72.8633 205.874 72.8333 205.816 72.7734C205.762 72.7109 205.734 72.6367 205.734 72.5508ZM208.023 74.6758V78H207.559V73.7734H208.004L208.023 74.6758ZM207.918 75.625L207.711 75.5078C207.727 75.2578 207.777 75.0234 207.863 74.8047C207.949 74.5859 208.065 74.3932 208.211 74.2266C208.359 74.0599 208.533 73.9297 208.73 73.8359C208.931 73.7422 209.152 73.6953 209.395 73.6953C209.605 73.6953 209.794 73.724 209.961 73.7812C210.128 73.8385 210.27 73.9297 210.387 74.0547C210.504 74.1797 210.592 74.3398 210.652 74.5352C210.715 74.7305 210.746 74.9688 210.746 75.25V78H210.277V75.2461C210.277 74.9544 210.237 74.7266 210.156 74.5625C210.076 74.3958 209.961 74.2773 209.812 74.207C209.664 74.1367 209.488 74.1016 209.285 74.1016C209.061 74.1016 208.865 74.151 208.695 74.25C208.529 74.3464 208.388 74.4727 208.273 74.6289C208.161 74.7826 208.076 74.9479 208.016 75.125C207.956 75.2995 207.923 75.4661 207.918 75.625ZM214.008 72.3125H215.855C216.249 72.3125 216.59 72.3763 216.879 72.5039C217.168 72.6315 217.391 72.8203 217.547 73.0703C217.706 73.3177 217.785 73.6224 217.785 73.9844C217.785 74.2526 217.728 74.4961 217.613 74.7148C217.501 74.9336 217.346 75.1172 217.148 75.2656C216.951 75.4115 216.721 75.5117 216.461 75.5664L216.293 75.6289H214.32L214.312 75.2188H215.965C216.262 75.2188 216.509 75.1615 216.707 75.0469C216.905 74.9323 217.053 74.7812 217.152 74.5938C217.254 74.4036 217.305 74.2005 217.305 73.9844C217.305 73.7266 217.249 73.5039 217.137 73.3164C217.027 73.1263 216.865 72.9805 216.648 72.8789C216.432 72.7773 216.168 72.7266 215.855 72.7266H214.488V78H214.008V72.3125ZM217.52 78L216.047 75.457L216.562 75.4531L218.031 77.9492V78H217.52ZM218.738 75.9531V75.8242C218.738 75.5169 218.783 75.2331 218.871 74.9727C218.96 74.7122 219.086 74.487 219.25 74.2969C219.417 74.1068 219.616 73.9596 219.848 73.8555C220.079 73.7487 220.337 73.6953 220.621 73.6953C220.908 73.6953 221.167 73.7487 221.398 73.8555C221.63 73.9596 221.829 74.1068 221.996 74.2969C222.163 74.487 222.29 74.7122 222.379 74.9727C222.467 75.2331 222.512 75.5169 222.512 75.8242V75.9531C222.512 76.2604 222.467 76.5443 222.379 76.8047C222.29 77.0625 222.163 77.2865 221.996 77.4766C221.832 77.6667 221.634 77.8151 221.402 77.9219C221.171 78.026 220.913 78.0781 220.629 78.0781C220.342 78.0781 220.083 78.026 219.852 77.9219C219.62 77.8151 219.421 77.6667 219.254 77.4766C219.087 77.2865 218.96 77.0625 218.871 76.8047C218.783 76.5443 218.738 76.2604 218.738 75.9531ZM219.203 75.8242V75.9531C219.203 76.1849 219.234 76.4049 219.297 76.6133C219.359 76.819 219.451 77.0026 219.57 77.1641C219.69 77.3229 219.839 77.4479 220.016 77.5391C220.193 77.6302 220.397 77.6758 220.629 77.6758C220.858 77.6758 221.06 77.6302 221.234 77.5391C221.411 77.4479 221.56 77.3229 221.68 77.1641C221.799 77.0026 221.889 76.819 221.949 76.6133C222.012 76.4049 222.043 76.1849 222.043 75.9531V75.8242C222.043 75.5951 222.012 75.3776 221.949 75.1719C221.889 74.9661 221.798 74.7826 221.676 74.6211C221.556 74.4596 221.408 74.332 221.23 74.2383C221.053 74.1445 220.85 74.0977 220.621 74.0977C220.392 74.0977 220.189 74.1445 220.012 74.2383C219.837 74.332 219.689 74.4596 219.566 74.6211C219.447 74.7826 219.355 74.9661 219.293 75.1719C219.233 75.3776 219.203 75.5951 219.203 75.8242ZM226.051 77.2422V75.0625C226.051 74.862 226.009 74.6888 225.926 74.543C225.842 74.3971 225.72 74.2852 225.559 74.207C225.397 74.1289 225.198 74.0898 224.961 74.0898C224.742 74.0898 224.547 74.1289 224.375 74.207C224.206 74.2826 224.072 74.3854 223.973 74.5156C223.876 74.6432 223.828 74.7852 223.828 74.9414L223.359 74.9375C223.359 74.7786 223.398 74.625 223.477 74.4766C223.555 74.3281 223.665 74.1953 223.809 74.0781C223.952 73.9609 224.122 73.8685 224.32 73.8008C224.521 73.7305 224.741 73.6953 224.98 73.6953C225.283 73.6953 225.548 73.7461 225.777 73.8477C226.009 73.9492 226.19 74.1016 226.32 74.3047C226.451 74.5078 226.516 74.763 226.516 75.0703V77.1133C226.516 77.2591 226.526 77.4102 226.547 77.5664C226.57 77.7227 226.603 77.8516 226.645 77.9531V78H226.148C226.117 77.9062 226.092 77.7891 226.074 77.6484C226.059 77.5052 226.051 77.3698 226.051 77.2422ZM226.16 75.5391L226.168 75.8984H225.25C225.01 75.8984 224.796 75.9206 224.605 75.9648C224.418 76.0065 224.259 76.069 224.129 76.1523C223.999 76.2331 223.898 76.3307 223.828 76.4453C223.76 76.5599 223.727 76.6901 223.727 76.8359C223.727 76.987 223.764 77.125 223.84 77.25C223.918 77.375 224.027 77.4753 224.168 77.5508C224.311 77.6237 224.48 77.6602 224.676 77.6602C224.936 77.6602 225.165 77.612 225.363 77.5156C225.564 77.4193 225.729 77.293 225.859 77.1367C225.99 76.9805 226.077 76.8099 226.121 76.625L226.324 76.8945C226.29 77.0247 226.228 77.1589 226.137 77.2969C226.048 77.4323 225.932 77.5599 225.789 77.6797C225.646 77.7969 225.477 77.8932 225.281 77.9688C225.089 78.0417 224.87 78.0781 224.625 78.0781C224.349 78.0781 224.108 78.026 223.902 77.9219C223.699 77.8177 223.54 77.6758 223.426 77.4961C223.314 77.3138 223.258 77.1081 223.258 76.8789C223.258 76.6706 223.302 76.4844 223.391 76.3203C223.479 76.1536 223.607 76.013 223.773 75.8984C223.943 75.7812 224.146 75.6927 224.383 75.6328C224.622 75.5703 224.891 75.5391 225.188 75.5391H226.16ZM230.516 77.1797V72H230.984V78H230.547L230.516 77.1797ZM227.582 75.9297V75.8477C227.582 75.5195 227.62 75.224 227.695 74.9609C227.771 74.6953 227.879 74.4688 228.02 74.2812C228.163 74.0911 228.335 73.9466 228.535 73.8477C228.736 73.7461 228.962 73.6953 229.215 73.6953C229.462 73.6953 229.681 73.7357 229.871 73.8164C230.061 73.8971 230.224 74.013 230.359 74.1641C230.497 74.3151 230.608 74.4948 230.691 74.7031C230.777 74.9115 230.84 75.1432 230.879 75.3984V76.4414C230.848 76.681 230.79 76.901 230.707 77.1016C230.624 77.2995 230.513 77.4727 230.375 77.6211C230.237 77.7669 230.07 77.8802 229.875 77.9609C229.682 78.0391 229.46 78.0781 229.207 78.0781C228.957 78.0781 228.732 78.026 228.531 77.9219C228.331 77.8177 228.16 77.6706 228.02 77.4805C227.879 77.2878 227.771 77.0599 227.695 76.7969C227.62 76.5339 227.582 76.2448 227.582 75.9297ZM228.051 75.8477V75.9297C228.051 76.1771 228.076 76.4062 228.125 76.6172C228.174 76.8281 228.25 77.0117 228.352 77.168C228.453 77.3242 228.582 77.4466 228.738 77.5352C228.895 77.6237 229.079 77.668 229.293 77.668C229.561 77.668 229.786 77.6172 229.969 77.5156C230.151 77.4115 230.297 77.2747 230.406 77.1055C230.516 76.9336 230.595 76.7461 230.645 76.543V75.3281C230.613 75.1901 230.568 75.0495 230.508 74.9062C230.448 74.763 230.366 74.6315 230.262 74.5117C230.16 74.3893 230.03 74.2917 229.871 74.2188C229.715 74.1432 229.525 74.1055 229.301 74.1055C229.085 74.1055 228.898 74.1497 228.742 74.2383C228.586 74.3268 228.456 74.4505 228.352 74.6094C228.25 74.7656 228.174 74.9492 228.125 75.1602C228.076 75.3711 228.051 75.6003 228.051 75.8477ZM232.664 77.2617V77.8086C232.664 78.0482 232.615 78.2786 232.516 78.5C232.417 78.724 232.283 78.9128 232.113 79.0664L231.84 78.8633C231.921 78.7539 231.988 78.6445 232.043 78.5352C232.098 78.4284 232.138 78.3164 232.164 78.1992C232.193 78.082 232.207 77.9557 232.207 77.8203V77.2617H232.664ZM237.258 76.4961L238.492 72.3125H238.879L238.566 73.5547L237.25 78H236.879L237.258 76.4961ZM235.824 72.3125L236.863 76.457L237.176 78H236.789L235.332 72.3125H235.824ZM240.543 76.457L241.566 72.3125H242.059L240.605 78H240.219L240.543 76.457ZM238.922 72.3125L240.141 76.4961L240.516 78H240.145L238.855 73.5547L238.539 72.3125H238.922ZM244.387 78.0781C244.111 78.0781 243.857 78.0273 243.625 77.9258C243.396 77.8242 243.195 77.681 243.023 77.4961C242.854 77.3112 242.723 77.0924 242.629 76.8398C242.538 76.5846 242.492 76.306 242.492 76.0039V75.8359C242.492 75.5104 242.54 75.2161 242.637 74.9531C242.733 74.6901 242.866 74.4648 243.035 74.2773C243.204 74.0898 243.397 73.9466 243.613 73.8477C243.832 73.7461 244.061 73.6953 244.301 73.6953C244.569 73.6953 244.807 73.7435 245.016 73.8398C245.224 73.9336 245.398 74.0677 245.539 74.2422C245.682 74.4141 245.79 74.6185 245.863 74.8555C245.936 75.0898 245.973 75.349 245.973 75.6328V75.918H242.773V75.5195H245.508V75.4648C245.503 75.2279 245.454 75.0065 245.363 74.8008C245.275 74.5924 245.142 74.4232 244.965 74.293C244.788 74.1628 244.566 74.0977 244.301 74.0977C244.103 74.0977 243.921 74.1393 243.754 74.2227C243.59 74.306 243.448 74.4258 243.328 74.582C243.211 74.7357 243.12 74.9193 243.055 75.1328C242.992 75.3438 242.961 75.5781 242.961 75.8359V76.0039C242.961 76.2383 242.995 76.457 243.062 76.6602C243.133 76.8607 243.232 77.0378 243.359 77.1914C243.49 77.3451 243.643 77.4648 243.82 77.5508C243.997 77.6367 244.193 77.6797 244.406 77.6797C244.656 77.6797 244.878 77.6341 245.07 77.543C245.263 77.4492 245.436 77.3021 245.59 77.1016L245.883 77.3281C245.792 77.4635 245.677 77.5885 245.539 77.7031C245.404 77.8177 245.241 77.9089 245.051 77.9766C244.861 78.0443 244.639 78.0781 244.387 78.0781ZM249.426 76.9219C249.426 76.8073 249.397 76.694 249.34 76.582C249.283 76.4701 249.172 76.3672 249.008 76.2734C248.846 76.1797 248.608 76.1003 248.293 76.0352C248.059 75.9831 247.849 75.9245 247.664 75.8594C247.482 75.7943 247.328 75.7161 247.203 75.625C247.078 75.5339 246.983 75.4245 246.918 75.2969C246.853 75.1693 246.82 75.0182 246.82 74.8438C246.82 74.6875 246.854 74.5404 246.922 74.4023C246.992 74.2617 247.091 74.1393 247.219 74.0352C247.349 73.9284 247.505 73.8451 247.688 73.7852C247.872 73.7253 248.079 73.6953 248.309 73.6953C248.634 73.6953 248.913 73.7513 249.145 73.8633C249.379 73.9727 249.557 74.1224 249.68 74.3125C249.805 74.5026 249.867 74.7174 249.867 74.957H249.402C249.402 74.8112 249.359 74.6732 249.273 74.543C249.19 74.4128 249.066 74.306 248.902 74.2227C248.741 74.1393 248.543 74.0977 248.309 74.0977C248.066 74.0977 247.87 74.1341 247.719 74.207C247.568 74.2799 247.457 74.3724 247.387 74.4844C247.319 74.5964 247.285 74.7122 247.285 74.832C247.285 74.9258 247.299 75.0117 247.328 75.0898C247.359 75.1654 247.414 75.2357 247.492 75.3008C247.573 75.3659 247.688 75.4271 247.836 75.4844C247.984 75.5417 248.177 75.5977 248.414 75.6523C248.755 75.7279 249.034 75.8203 249.25 75.9297C249.469 76.0365 249.63 76.1693 249.734 76.3281C249.839 76.4844 249.891 76.6745 249.891 76.8984C249.891 77.0729 249.854 77.2331 249.781 77.3789C249.708 77.5221 249.603 77.6458 249.465 77.75C249.329 77.8542 249.165 77.9349 248.973 77.9922C248.783 78.0495 248.569 78.0781 248.332 78.0781C247.975 78.0781 247.673 78.0195 247.426 77.9023C247.181 77.7826 246.995 77.6263 246.867 77.4336C246.742 77.2383 246.68 77.0312 246.68 76.8125H247.145C247.16 77.0312 247.229 77.2044 247.352 77.332C247.474 77.457 247.624 77.5456 247.801 77.5977C247.98 77.6497 248.158 77.6758 248.332 77.6758C248.572 77.6758 248.772 77.6406 248.934 77.5703C249.095 77.5 249.217 77.4076 249.301 77.293C249.384 77.1784 249.426 77.0547 249.426 76.9219ZM252.547 73.7734V74.1562H250.43V73.7734H252.547ZM251.207 72.6875H251.672V76.9727C251.672 77.168 251.698 77.3151 251.75 77.4141C251.802 77.513 251.87 77.5794 251.953 77.6133C252.036 77.6471 252.126 77.6641 252.223 77.6641C252.293 77.6641 252.361 77.6602 252.426 77.6523C252.491 77.6419 252.549 77.6315 252.602 77.6211L252.621 78.0156C252.564 78.0339 252.49 78.0482 252.398 78.0586C252.307 78.0716 252.216 78.0781 252.125 78.0781C251.945 78.0781 251.786 78.0456 251.648 77.9805C251.51 77.9128 251.402 77.7982 251.324 77.6367C251.246 77.4727 251.207 77.25 251.207 76.9688V72.6875ZM259.414 74.8633V75.2734H255.957V74.8633H259.414ZM256.07 72.3125V78H255.59V72.3125H256.07ZM259.801 72.3125V78H259.32V72.3125H259.801ZM263.852 77.0234V73.7734H264.32V78H263.871L263.852 77.0234ZM263.938 76.2422L264.18 76.2344C264.18 76.5 264.148 76.7448 264.086 76.9688C264.023 77.1927 263.926 77.388 263.793 77.5547C263.66 77.7214 263.488 77.8503 263.277 77.9414C263.066 78.0326 262.812 78.0781 262.516 78.0781C262.31 78.0781 262.121 78.0495 261.949 77.9922C261.78 77.9323 261.634 77.8385 261.512 77.7109C261.389 77.5833 261.294 77.418 261.227 77.2148C261.161 77.0117 261.129 76.7656 261.129 76.4766V73.7734H261.594V76.4844C261.594 76.7109 261.618 76.8997 261.668 77.0508C261.72 77.2018 261.79 77.3229 261.879 77.4141C261.97 77.5052 262.074 77.5703 262.191 77.6094C262.309 77.6484 262.435 77.668 262.57 77.668C262.914 77.668 263.185 77.6016 263.383 77.4688C263.583 77.3359 263.725 77.1615 263.809 76.9453C263.895 76.7266 263.938 76.4922 263.938 76.2422ZM266.008 74.6758V78H265.543V73.7734H265.988L266.008 74.6758ZM265.902 75.625L265.695 75.5078C265.711 75.2578 265.762 75.0234 265.848 74.8047C265.934 74.5859 266.049 74.3932 266.195 74.2266C266.344 74.0599 266.517 73.9297 266.715 73.8359C266.915 73.7422 267.137 73.6953 267.379 73.6953C267.59 73.6953 267.779 73.724 267.945 73.7812C268.112 73.8385 268.254 73.9297 268.371 74.0547C268.488 74.1797 268.577 74.3398 268.637 74.5352C268.699 74.7305 268.73 74.9688 268.73 75.25V78H268.262V75.2461C268.262 74.9544 268.221 74.7266 268.141 74.5625C268.06 74.3958 267.945 74.2773 267.797 74.207C267.648 74.1367 267.473 74.1016 267.27 74.1016C267.046 74.1016 266.849 74.151 266.68 74.25C266.513 74.3464 266.372 74.4727 266.258 74.6289C266.146 74.7826 266.06 74.9479 266 75.125C265.94 75.2995 265.908 75.4661 265.902 75.625ZM271.539 73.7734V74.1562H269.422V73.7734H271.539ZM270.199 72.6875H270.664V76.9727C270.664 77.168 270.69 77.3151 270.742 77.4141C270.794 77.513 270.862 77.5794 270.945 77.6133C271.029 77.6471 271.118 77.6641 271.215 77.6641C271.285 77.6641 271.353 77.6602 271.418 77.6523C271.483 77.6419 271.542 77.6315 271.594 77.6211L271.613 78.0156C271.556 78.0339 271.482 78.0482 271.391 78.0586C271.299 78.0716 271.208 78.0781 271.117 78.0781C270.938 78.0781 270.779 78.0456 270.641 77.9805C270.503 77.9128 270.395 77.7982 270.316 77.6367C270.238 77.4727 270.199 77.25 270.199 76.9688V72.6875ZM275.051 76.9219C275.051 76.8073 275.022 76.694 274.965 76.582C274.908 76.4701 274.797 76.3672 274.633 76.2734C274.471 76.1797 274.233 76.1003 273.918 76.0352C273.684 75.9831 273.474 75.9245 273.289 75.8594C273.107 75.7943 272.953 75.7161 272.828 75.625C272.703 75.5339 272.608 75.4245 272.543 75.2969C272.478 75.1693 272.445 75.0182 272.445 74.8438C272.445 74.6875 272.479 74.5404 272.547 74.4023C272.617 74.2617 272.716 74.1393 272.844 74.0352C272.974 73.9284 273.13 73.8451 273.312 73.7852C273.497 73.7253 273.704 73.6953 273.934 73.6953C274.259 73.6953 274.538 73.7513 274.77 73.8633C275.004 73.9727 275.182 74.1224 275.305 74.3125C275.43 74.5026 275.492 74.7174 275.492 74.957H275.027C275.027 74.8112 274.984 74.6732 274.898 74.543C274.815 74.4128 274.691 74.306 274.527 74.2227C274.366 74.1393 274.168 74.0977 273.934 74.0977C273.691 74.0977 273.495 74.1341 273.344 74.207C273.193 74.2799 273.082 74.3724 273.012 74.4844C272.944 74.5964 272.91 74.7122 272.91 74.832C272.91 74.9258 272.924 75.0117 272.953 75.0898C272.984 75.1654 273.039 75.2357 273.117 75.3008C273.198 75.3659 273.312 75.4271 273.461 75.4844C273.609 75.5417 273.802 75.5977 274.039 75.6523C274.38 75.7279 274.659 75.8203 274.875 75.9297C275.094 76.0365 275.255 76.1693 275.359 76.3281C275.464 76.4844 275.516 76.6745 275.516 76.8984C275.516 77.0729 275.479 77.2331 275.406 77.3789C275.333 77.5221 275.228 77.6458 275.09 77.75C274.954 77.8542 274.79 77.9349 274.598 77.9922C274.408 78.0495 274.194 78.0781 273.957 78.0781C273.6 78.0781 273.298 78.0195 273.051 77.9023C272.806 77.7826 272.62 77.6263 272.492 77.4336C272.367 77.2383 272.305 77.0312 272.305 76.8125H272.77C272.785 77.0312 272.854 77.2044 272.977 77.332C273.099 77.457 273.249 77.5456 273.426 77.5977C273.605 77.6497 273.783 77.6758 273.957 77.6758C274.197 77.6758 274.397 77.6406 274.559 77.5703C274.72 77.5 274.842 77.4076 274.926 77.293C275.009 77.1784 275.051 77.0547 275.051 76.9219ZM277.035 74.5859V79.625H276.566V73.7734H277.004L277.035 74.5859ZM279.973 75.8477V75.9297C279.973 76.2448 279.936 76.5339 279.863 76.7969C279.79 77.0599 279.685 77.2878 279.547 77.4805C279.411 77.6706 279.243 77.8177 279.043 77.9219C278.842 78.026 278.615 78.0781 278.359 78.0781C278.107 78.0781 277.882 78.0391 277.684 77.9609C277.486 77.8828 277.315 77.7721 277.172 77.6289C277.031 77.4831 276.918 77.3138 276.832 77.1211C276.749 76.9258 276.69 76.7122 276.656 76.4805V75.3984C276.695 75.1432 276.759 74.9115 276.848 74.7031C276.936 74.4948 277.049 74.3151 277.188 74.1641C277.328 74.013 277.495 73.8971 277.688 73.8164C277.88 73.7357 278.1 73.6953 278.348 73.6953C278.605 73.6953 278.835 73.7461 279.035 73.8477C279.238 73.9466 279.409 74.0911 279.547 74.2812C279.688 74.4688 279.793 74.6953 279.863 74.9609C279.936 75.224 279.973 75.5195 279.973 75.8477ZM279.504 75.9297V75.8477C279.504 75.6003 279.478 75.3711 279.426 75.1602C279.376 74.9492 279.299 74.7656 279.195 74.6094C279.094 74.4505 278.964 74.3268 278.805 74.2383C278.648 74.1497 278.462 74.1055 278.246 74.1055C278.022 74.1055 277.831 74.1432 277.672 74.2188C277.516 74.2917 277.385 74.3893 277.281 74.5117C277.177 74.6315 277.095 74.763 277.035 74.9062C276.975 75.0495 276.931 75.1901 276.902 75.3281V76.5742C276.952 76.7721 277.031 76.9557 277.141 77.125C277.25 77.2917 277.396 77.4258 277.578 77.5273C277.763 77.6263 277.988 77.6758 278.254 77.6758C278.467 77.6758 278.652 77.6315 278.809 77.543C278.965 77.4544 279.094 77.3307 279.195 77.1719C279.299 77.013 279.376 76.8281 279.426 76.6172C279.478 76.4062 279.504 76.1771 279.504 75.9297ZM281.531 73.7734V78H281.066V73.7734H281.531ZM280.984 72.5508C280.984 72.4622 281.012 72.388 281.066 72.3281C281.124 72.2656 281.202 72.2344 281.301 72.2344C281.4 72.2344 281.478 72.2656 281.535 72.3281C281.595 72.388 281.625 72.4622 281.625 72.5508C281.625 72.6367 281.595 72.7109 281.535 72.7734C281.478 72.8333 281.4 72.8633 281.301 72.8633C281.202 72.8633 281.124 72.8333 281.066 72.7734C281.012 72.7109 280.984 72.6367 280.984 72.5508ZM283.328 72V78H282.863V72H283.328ZM285.125 72V78H284.66V72H285.125ZM286.852 77.2617V77.8086C286.852 78.0482 286.802 78.2786 286.703 78.5C286.604 78.724 286.47 78.9128 286.301 79.0664L286.027 78.8633C286.108 78.7539 286.176 78.6445 286.23 78.5352C286.285 78.4284 286.326 78.3164 286.352 78.1992C286.38 78.082 286.395 77.9557 286.395 77.8203V77.2617H286.852ZM293.828 74.8633V75.2734H290.371V74.8633H293.828ZM290.484 72.3125V78H290.004V72.3125H290.484ZM294.215 72.3125V78H293.734V72.3125H294.215ZM296.078 73.7734V78H295.613V73.7734H296.078ZM295.531 72.5508C295.531 72.4622 295.559 72.388 295.613 72.3281C295.671 72.2656 295.749 72.2344 295.848 72.2344C295.947 72.2344 296.025 72.2656 296.082 72.3281C296.142 72.388 296.172 72.4622 296.172 72.5508C296.172 72.6367 296.142 72.7109 296.082 72.7734C296.025 72.8333 295.947 72.8633 295.848 72.8633C295.749 72.8633 295.671 72.8333 295.613 72.7734C295.559 72.7109 295.531 72.6367 295.531 72.5508ZM300.137 73.7734H300.57V77.9258C300.57 78.293 300.5 78.6081 300.359 78.8711C300.221 79.1341 300.025 79.3359 299.77 79.4766C299.517 79.6172 299.219 79.6875 298.875 79.6875C298.701 79.6875 298.521 79.6602 298.336 79.6055C298.154 79.5534 297.98 79.4727 297.816 79.3633C297.655 79.2565 297.517 79.1237 297.402 78.9648L297.664 78.6797C297.836 78.888 298.02 79.0404 298.215 79.1367C298.41 79.2357 298.621 79.2852 298.848 79.2852C299.116 79.2852 299.342 79.2318 299.527 79.125C299.715 79.0182 299.857 78.8646 299.953 78.6641C300.052 78.4635 300.102 78.2227 300.102 77.9414V74.7031L300.137 73.7734ZM297.168 75.9297V75.8477C297.168 75.5195 297.204 75.224 297.277 74.9609C297.353 74.6953 297.461 74.4688 297.602 74.2812C297.742 74.0911 297.913 73.9466 298.113 73.8477C298.316 73.7461 298.546 73.6953 298.801 73.6953C299.046 73.6953 299.263 73.7357 299.453 73.8164C299.643 73.8971 299.807 74.013 299.945 74.1641C300.083 74.3151 300.194 74.4948 300.277 74.7031C300.363 74.9115 300.426 75.1432 300.465 75.3984V76.4414C300.434 76.681 300.376 76.901 300.293 77.1016C300.21 77.2995 300.099 77.4727 299.961 77.6211C299.823 77.7669 299.656 77.8802 299.461 77.9609C299.268 78.0391 299.046 78.0781 298.793 78.0781C298.54 78.0781 298.314 78.026 298.113 77.9219C297.913 77.8177 297.742 77.6706 297.602 77.4805C297.461 77.2878 297.353 77.0599 297.277 76.7969C297.204 76.5339 297.168 76.2448 297.168 75.9297ZM297.637 75.8477V75.9297C297.637 76.1771 297.661 76.4062 297.711 76.6172C297.76 76.8281 297.836 77.0117 297.938 77.168C298.039 77.3242 298.168 77.4466 298.324 77.5352C298.48 77.6237 298.664 77.668 298.875 77.668C299.143 77.668 299.368 77.6172 299.551 77.5156C299.733 77.4115 299.878 77.2747 299.984 77.1055C300.091 76.9336 300.169 76.7461 300.219 76.543V75.3281C300.19 75.1901 300.146 75.0495 300.086 74.9062C300.029 74.763 299.948 74.6315 299.844 74.5117C299.742 74.3893 299.612 74.2917 299.453 74.2188C299.297 74.1432 299.107 74.1055 298.883 74.1055C298.669 74.1055 298.483 74.1497 298.324 74.2383C298.168 74.3268 298.039 74.4505 297.938 74.6094C297.836 74.7656 297.76 74.9492 297.711 75.1602C297.661 75.3711 297.637 75.6003 297.637 75.8477ZM302.258 72V78H301.793V72H302.258ZM302.152 75.625L301.945 75.5078C301.961 75.2578 302.012 75.0234 302.098 74.8047C302.184 74.5859 302.299 74.3932 302.445 74.2266C302.594 74.0599 302.767 73.9297 302.965 73.8359C303.165 73.7422 303.387 73.6953 303.629 73.6953C303.84 73.6953 304.029 73.724 304.195 73.7812C304.362 73.8385 304.504 73.9297 304.621 74.0547C304.738 74.1797 304.827 74.3398 304.887 74.5352C304.949 74.7305 304.98 74.9688 304.98 75.25V78H304.512V75.2461C304.512 74.9544 304.471 74.7266 304.391 74.5625C304.31 74.3958 304.195 74.2773 304.047 74.207C303.898 74.1367 303.723 74.1016 303.52 74.1016C303.296 74.1016 303.099 74.151 302.93 74.25C302.763 74.3464 302.622 74.4727 302.508 74.6289C302.396 74.7826 302.31 74.9479 302.25 75.125C302.19 75.2995 302.158 75.4661 302.152 75.625ZM306.176 72H306.645V77.1797L306.613 78H306.176V72ZM309.586 75.8477V75.9297C309.586 76.2448 309.549 76.5339 309.477 76.7969C309.404 77.0599 309.298 77.2878 309.16 77.4805C309.022 77.6706 308.853 77.8177 308.652 77.9219C308.454 78.026 308.227 78.0781 307.969 78.0781C307.716 78.0781 307.492 78.0391 307.297 77.9609C307.102 77.8802 306.935 77.7669 306.797 77.6211C306.659 77.4727 306.548 77.2995 306.465 77.1016C306.382 76.901 306.323 76.681 306.289 76.4414V75.3984C306.328 75.1432 306.391 74.9115 306.477 74.7031C306.562 74.4948 306.673 74.3151 306.809 74.1641C306.947 74.013 307.111 73.8971 307.301 73.8164C307.493 73.7357 307.714 73.6953 307.961 73.6953C308.219 73.6953 308.448 73.7461 308.648 73.8477C308.852 73.9466 309.022 74.0911 309.16 74.2812C309.298 74.4688 309.404 74.6953 309.477 74.9609C309.549 75.224 309.586 75.5195 309.586 75.8477ZM309.113 75.9297V75.8477C309.113 75.6003 309.09 75.3711 309.043 75.1602C308.996 74.9492 308.922 74.7656 308.82 74.6094C308.721 74.4505 308.594 74.3268 308.438 74.2383C308.281 74.1497 308.094 74.1055 307.875 74.1055C307.651 74.1055 307.46 74.1432 307.301 74.2188C307.145 74.2917 307.014 74.3893 306.91 74.5117C306.809 74.6315 306.728 74.763 306.668 74.9062C306.608 75.0495 306.564 75.1901 306.535 75.3281V76.543C306.579 76.7383 306.656 76.9219 306.766 77.0938C306.875 77.2656 307.022 77.4049 307.207 77.5117C307.392 77.6159 307.617 77.668 307.883 77.668C308.096 77.668 308.28 77.6237 308.434 77.5352C308.59 77.4466 308.717 77.3242 308.816 77.168C308.918 77.0117 308.992 76.8281 309.039 76.6172C309.089 76.4062 309.113 76.1771 309.113 75.9297ZM311.086 74.4727V78H310.621V73.7734H311.074L311.086 74.4727ZM312.582 73.7422L312.57 74.1719C312.518 74.1641 312.467 74.1576 312.418 74.1523C312.368 74.1471 312.315 74.1445 312.258 74.1445C312.055 74.1445 311.876 74.1823 311.723 74.2578C311.572 74.3307 311.444 74.4336 311.34 74.5664C311.236 74.6966 311.156 74.8503 311.102 75.0273C311.047 75.2018 311.016 75.3893 311.008 75.5898L310.836 75.6562C310.836 75.3802 310.865 75.1237 310.922 74.8867C310.979 74.6497 311.066 74.4427 311.184 74.2656C311.303 74.0859 311.453 73.9466 311.633 73.8477C311.815 73.7461 312.029 73.6953 312.273 73.6953C312.333 73.6953 312.392 73.7005 312.449 73.7109C312.509 73.7188 312.553 73.7292 312.582 73.7422ZM313.836 73.7734V78H313.371V73.7734H313.836ZM313.289 72.5508C313.289 72.4622 313.316 72.388 313.371 72.3281C313.428 72.2656 313.507 72.2344 313.605 72.2344C313.704 72.2344 313.783 72.2656 313.84 72.3281C313.9 72.388 313.93 72.4622 313.93 72.5508C313.93 72.6367 313.9 72.7109 313.84 72.7734C313.783 72.8333 313.704 72.8633 313.605 72.8633C313.507 72.8633 313.428 72.8333 313.371 72.7734C313.316 72.7109 313.289 72.6367 313.289 72.5508ZM317.859 77.1797V72H318.328V78H317.891L317.859 77.1797ZM314.926 75.9297V75.8477C314.926 75.5195 314.964 75.224 315.039 74.9609C315.115 74.6953 315.223 74.4688 315.363 74.2812C315.507 74.0911 315.678 73.9466 315.879 73.8477C316.079 73.7461 316.306 73.6953 316.559 73.6953C316.806 73.6953 317.025 73.7357 317.215 73.8164C317.405 73.8971 317.568 74.013 317.703 74.1641C317.841 74.3151 317.952 74.4948 318.035 74.7031C318.121 74.9115 318.184 75.1432 318.223 75.3984V76.4414C318.191 76.681 318.134 76.901 318.051 77.1016C317.967 77.2995 317.857 77.4727 317.719 77.6211C317.581 77.7669 317.414 77.8802 317.219 77.9609C317.026 78.0391 316.803 78.0781 316.551 78.0781C316.301 78.0781 316.076 78.026 315.875 77.9219C315.674 77.8177 315.504 77.6706 315.363 77.4805C315.223 77.2878 315.115 77.0599 315.039 76.7969C314.964 76.5339 314.926 76.2448 314.926 75.9297ZM315.395 75.8477V75.9297C315.395 76.1771 315.419 76.4062 315.469 76.6172C315.518 76.8281 315.594 77.0117 315.695 77.168C315.797 77.3242 315.926 77.4466 316.082 77.5352C316.238 77.6237 316.423 77.668 316.637 77.668C316.905 77.668 317.13 77.6172 317.312 77.5156C317.495 77.4115 317.641 77.2747 317.75 77.1055C317.859 76.9336 317.939 76.7461 317.988 76.543V75.3281C317.957 75.1901 317.911 75.0495 317.852 74.9062C317.792 74.763 317.71 74.6315 317.605 74.5117C317.504 74.3893 317.374 74.2917 317.215 74.2188C317.059 74.1432 316.868 74.1055 316.645 74.1055C316.428 74.1055 316.242 74.1497 316.086 74.2383C315.93 74.3268 315.799 74.4505 315.695 74.6094C315.594 74.7656 315.518 74.9492 315.469 75.1602C315.419 75.3711 315.395 75.6003 315.395 75.8477ZM322.34 73.7734H322.773V77.9258C322.773 78.293 322.703 78.6081 322.562 78.8711C322.424 79.1341 322.228 79.3359 321.973 79.4766C321.72 79.6172 321.422 79.6875 321.078 79.6875C320.904 79.6875 320.724 79.6602 320.539 79.6055C320.357 79.5534 320.184 79.4727 320.02 79.3633C319.858 79.2565 319.72 79.1237 319.605 78.9648L319.867 78.6797C320.039 78.888 320.223 79.0404 320.418 79.1367C320.613 79.2357 320.824 79.2852 321.051 79.2852C321.319 79.2852 321.546 79.2318 321.73 79.125C321.918 79.0182 322.06 78.8646 322.156 78.6641C322.255 78.4635 322.305 78.2227 322.305 77.9414V74.7031L322.34 73.7734ZM319.371 75.9297V75.8477C319.371 75.5195 319.408 75.224 319.48 74.9609C319.556 74.6953 319.664 74.4688 319.805 74.2812C319.945 74.0911 320.116 73.9466 320.316 73.8477C320.52 73.7461 320.749 73.6953 321.004 73.6953C321.249 73.6953 321.466 73.7357 321.656 73.8164C321.846 73.8971 322.01 74.013 322.148 74.1641C322.286 74.3151 322.397 74.4948 322.48 74.7031C322.566 74.9115 322.629 75.1432 322.668 75.3984V76.4414C322.637 76.681 322.579 76.901 322.496 77.1016C322.413 77.2995 322.302 77.4727 322.164 77.6211C322.026 77.7669 321.859 77.8802 321.664 77.9609C321.471 78.0391 321.249 78.0781 320.996 78.0781C320.743 78.0781 320.517 78.026 320.316 77.9219C320.116 77.8177 319.945 77.6706 319.805 77.4805C319.664 77.2878 319.556 77.0599 319.48 76.7969C319.408 76.5339 319.371 76.2448 319.371 75.9297ZM319.84 75.8477V75.9297C319.84 76.1771 319.865 76.4062 319.914 76.6172C319.964 76.8281 320.039 77.0117 320.141 77.168C320.242 77.3242 320.371 77.4466 320.527 77.5352C320.684 77.6237 320.867 77.668 321.078 77.668C321.346 77.668 321.572 77.6172 321.754 77.5156C321.936 77.4115 322.081 77.2747 322.188 77.1055C322.294 76.9336 322.372 76.7461 322.422 76.543V75.3281C322.393 75.1901 322.349 75.0495 322.289 74.9062C322.232 74.763 322.151 74.6315 322.047 74.5117C321.945 74.3893 321.815 74.2917 321.656 74.2188C321.5 74.1432 321.31 74.1055 321.086 74.1055C320.872 74.1055 320.686 74.1497 320.527 74.2383C320.371 74.3268 320.242 74.4505 320.141 74.6094C320.039 74.7656 319.964 74.9492 319.914 75.1602C319.865 75.3711 319.84 75.6003 319.84 75.8477ZM325.629 78.0781C325.353 78.0781 325.099 78.0273 324.867 77.9258C324.638 77.8242 324.438 77.681 324.266 77.4961C324.096 77.3112 323.965 77.0924 323.871 76.8398C323.78 76.5846 323.734 76.306 323.734 76.0039V75.8359C323.734 75.5104 323.783 75.2161 323.879 74.9531C323.975 74.6901 324.108 74.4648 324.277 74.2773C324.447 74.0898 324.639 73.9466 324.855 73.8477C325.074 73.7461 325.303 73.6953 325.543 73.6953C325.811 73.6953 326.049 73.7435 326.258 73.8398C326.466 73.9336 326.641 74.0677 326.781 74.2422C326.924 74.4141 327.033 74.6185 327.105 74.8555C327.178 75.0898 327.215 75.349 327.215 75.6328V75.918H324.016V75.5195H326.75V75.4648C326.745 75.2279 326.697 75.0065 326.605 74.8008C326.517 74.5924 326.384 74.4232 326.207 74.293C326.03 74.1628 325.809 74.0977 325.543 74.0977C325.345 74.0977 325.163 74.1393 324.996 74.2227C324.832 74.306 324.69 74.4258 324.57 74.582C324.453 74.7357 324.362 74.9193 324.297 75.1328C324.234 75.3438 324.203 75.5781 324.203 75.8359V76.0039C324.203 76.2383 324.237 76.457 324.305 76.6602C324.375 76.8607 324.474 77.0378 324.602 77.1914C324.732 77.3451 324.885 77.4648 325.062 77.5508C325.24 77.6367 325.435 77.6797 325.648 77.6797C325.898 77.6797 326.12 77.6341 326.312 77.543C326.505 77.4492 326.678 77.3021 326.832 77.1016L327.125 77.3281C327.034 77.4635 326.919 77.5885 326.781 77.7031C326.646 77.8177 326.483 77.9089 326.293 77.9766C326.103 78.0443 325.882 78.0781 325.629 78.0781ZM328.586 77.2617V77.8086C328.586 78.0482 328.536 78.2786 328.438 78.5C328.339 78.724 328.204 78.9128 328.035 79.0664L327.762 78.8633C327.842 78.7539 327.91 78.6445 327.965 78.5352C328.02 78.4284 328.06 78.3164 328.086 78.1992C328.115 78.082 328.129 77.9557 328.129 77.8203V77.2617H328.586ZM334.957 76.6016C334.957 76.4453 334.931 76.306 334.879 76.1836C334.827 76.0612 334.741 75.9518 334.621 75.8555C334.504 75.7565 334.345 75.6654 334.145 75.582C333.947 75.4961 333.699 75.4115 333.402 75.3281C333.118 75.2474 332.862 75.1589 332.633 75.0625C332.404 74.9661 332.207 74.8555 332.043 74.7305C331.882 74.6055 331.758 74.4596 331.672 74.293C331.586 74.1237 331.543 73.9271 331.543 73.7031C331.543 73.4844 331.59 73.2852 331.684 73.1055C331.777 72.9258 331.909 72.7708 332.078 72.6406C332.25 72.5104 332.452 72.4102 332.684 72.3398C332.918 72.2695 333.174 72.2344 333.453 72.2344C333.852 72.2344 334.195 72.3099 334.484 72.4609C334.776 72.612 335.001 72.8164 335.16 73.0742C335.322 73.3294 335.402 73.6159 335.402 73.9336H334.922C334.922 73.6862 334.863 73.4661 334.746 73.2734C334.632 73.0781 334.465 72.9258 334.246 72.8164C334.03 72.7044 333.766 72.6484 333.453 72.6484C333.141 72.6484 332.878 72.6966 332.664 72.793C332.453 72.8867 332.293 73.013 332.184 73.1719C332.077 73.3281 332.023 73.5026 332.023 73.6953C332.023 73.8307 332.049 73.9557 332.102 74.0703C332.154 74.1823 332.238 74.2878 332.355 74.3867C332.475 74.4831 332.633 74.5742 332.828 74.6602C333.023 74.7435 333.264 74.8229 333.551 74.8984C333.853 74.9818 334.121 75.0742 334.355 75.1758C334.59 75.2773 334.788 75.3945 334.949 75.5273C335.111 75.6576 335.233 75.8099 335.316 75.9844C335.4 76.1589 335.441 76.362 335.441 76.5938C335.441 76.8255 335.392 77.0339 335.293 77.2188C335.197 77.401 335.06 77.556 334.883 77.6836C334.708 77.8112 334.501 77.9089 334.262 77.9766C334.025 78.0443 333.766 78.0781 333.484 78.0781C333.232 78.0781 332.98 78.0456 332.73 77.9805C332.48 77.9154 332.251 77.8151 332.043 77.6797C331.837 77.5417 331.672 77.3646 331.547 77.1484C331.424 76.9323 331.363 76.6745 331.363 76.375H331.84C331.84 76.6146 331.888 76.8164 331.984 76.9805C332.081 77.1445 332.208 77.2773 332.367 77.3789C332.529 77.4805 332.706 77.5547 332.898 77.6016C333.094 77.6458 333.289 77.668 333.484 77.668C333.784 77.668 334.043 77.6237 334.262 77.5352C334.483 77.4466 334.654 77.3229 334.773 77.1641C334.896 77.0026 334.957 76.8151 334.957 76.6016ZM336.113 75.9531V75.8242C336.113 75.5169 336.158 75.2331 336.246 74.9727C336.335 74.7122 336.461 74.487 336.625 74.2969C336.792 74.1068 336.991 73.9596 337.223 73.8555C337.454 73.7487 337.712 73.6953 337.996 73.6953C338.283 73.6953 338.542 73.7487 338.773 73.8555C339.005 73.9596 339.204 74.1068 339.371 74.2969C339.538 74.487 339.665 74.7122 339.754 74.9727C339.842 75.2331 339.887 75.5169 339.887 75.8242V75.9531C339.887 76.2604 339.842 76.5443 339.754 76.8047C339.665 77.0625 339.538 77.2865 339.371 77.4766C339.207 77.6667 339.009 77.8151 338.777 77.9219C338.546 78.026 338.288 78.0781 338.004 78.0781C337.717 78.0781 337.458 78.026 337.227 77.9219C336.995 77.8151 336.796 77.6667 336.629 77.4766C336.462 77.2865 336.335 77.0625 336.246 76.8047C336.158 76.5443 336.113 76.2604 336.113 75.9531ZM336.578 75.8242V75.9531C336.578 76.1849 336.609 76.4049 336.672 76.6133C336.734 76.819 336.826 77.0026 336.945 77.1641C337.065 77.3229 337.214 77.4479 337.391 77.5391C337.568 77.6302 337.772 77.6758 338.004 77.6758C338.233 77.6758 338.435 77.6302 338.609 77.5391C338.786 77.4479 338.935 77.3229 339.055 77.1641C339.174 77.0026 339.264 76.819 339.324 76.6133C339.387 76.4049 339.418 76.1849 339.418 75.9531V75.8242C339.418 75.5951 339.387 75.3776 339.324 75.1719C339.264 74.9661 339.173 74.7826 339.051 74.6211C338.931 74.4596 338.783 74.332 338.605 74.2383C338.428 74.1445 338.225 74.0977 337.996 74.0977C337.767 74.0977 337.564 74.1445 337.387 74.2383C337.212 74.332 337.064 74.4596 336.941 74.6211C336.822 74.7826 336.73 74.9661 336.668 75.1719C336.608 75.3776 336.578 75.5951 336.578 75.8242ZM341.297 74.6484V78H340.828V73.7734H341.277L341.297 74.6484ZM341.211 75.625L340.984 75.5078C341 75.2578 341.047 75.0234 341.125 74.8047C341.206 74.5859 341.318 74.3932 341.461 74.2266C341.604 74.0599 341.776 73.9297 341.977 73.8359C342.177 73.7422 342.405 73.6953 342.66 73.6953C342.866 73.6953 343.052 73.724 343.219 73.7812C343.388 73.8359 343.531 73.9232 343.648 74.043C343.768 74.1602 343.861 74.3138 343.926 74.5039C343.991 74.694 344.023 74.9219 344.023 75.1875V78H343.559V75.2031C343.559 74.9219 343.514 74.7018 343.426 74.543C343.34 74.3841 343.219 74.2708 343.062 74.2031C342.909 74.1354 342.73 74.1016 342.527 74.1016C342.288 74.1016 342.085 74.151 341.918 74.25C341.754 74.3464 341.62 74.4727 341.516 74.6289C341.414 74.7826 341.339 74.9479 341.289 75.125C341.24 75.2995 341.214 75.4661 341.211 75.625ZM344.02 75.2578L343.707 75.2656C343.72 75.0599 343.767 74.8633 343.848 74.6758C343.931 74.4883 344.044 74.3216 344.188 74.1758C344.331 74.0273 344.501 73.9102 344.699 73.8242C344.9 73.7383 345.125 73.6953 345.375 73.6953C345.594 73.6953 345.789 73.7253 345.961 73.7852C346.133 73.8424 346.277 73.9349 346.395 74.0625C346.514 74.1875 346.605 74.3477 346.668 74.543C346.73 74.7383 346.762 74.9727 346.762 75.2461V78H346.293V75.2422C346.293 74.9427 346.249 74.7109 346.16 74.5469C346.074 74.3802 345.954 74.2643 345.801 74.1992C345.647 74.1341 345.467 74.1016 345.262 74.1016C345.059 74.1042 344.88 74.1419 344.727 74.2148C344.573 74.2852 344.444 74.3789 344.34 74.4961C344.238 74.6107 344.16 74.7344 344.105 74.8672C344.053 75 344.025 75.1302 344.02 75.2578ZM349.582 78.0781C349.306 78.0781 349.052 78.0273 348.82 77.9258C348.591 77.8242 348.391 77.681 348.219 77.4961C348.049 77.3112 347.918 77.0924 347.824 76.8398C347.733 76.5846 347.688 76.306 347.688 76.0039V75.8359C347.688 75.5104 347.736 75.2161 347.832 74.9531C347.928 74.6901 348.061 74.4648 348.23 74.2773C348.4 74.0898 348.592 73.9466 348.809 73.8477C349.027 73.7461 349.257 73.6953 349.496 73.6953C349.764 73.6953 350.003 73.7435 350.211 73.8398C350.419 73.9336 350.594 74.0677 350.734 74.2422C350.878 74.4141 350.986 74.6185 351.059 74.8555C351.132 75.0898 351.168 75.349 351.168 75.6328V75.918H347.969V75.5195H350.703V75.4648C350.698 75.2279 350.65 75.0065 350.559 74.8008C350.47 74.5924 350.337 74.4232 350.16 74.293C349.983 74.1628 349.762 74.0977 349.496 74.0977C349.298 74.0977 349.116 74.1393 348.949 74.2227C348.785 74.306 348.643 74.4258 348.523 74.582C348.406 74.7357 348.315 74.9193 348.25 75.1328C348.188 75.3438 348.156 75.5781 348.156 75.8359V76.0039C348.156 76.2383 348.19 76.457 348.258 76.6602C348.328 76.8607 348.427 77.0378 348.555 77.1914C348.685 77.3451 348.839 77.4648 349.016 77.5508C349.193 77.6367 349.388 77.6797 349.602 77.6797C349.852 77.6797 350.073 77.6341 350.266 77.543C350.458 77.4492 350.632 77.3021 350.785 77.1016L351.078 77.3281C350.987 77.4635 350.872 77.5885 350.734 77.7031C350.599 77.8177 350.436 77.9089 350.246 77.9766C350.056 78.0443 349.835 78.0781 349.582 78.0781ZM352.555 74.4727V78H352.09V73.7734H352.543L352.555 74.4727ZM354.051 73.7422L354.039 74.1719C353.987 74.1641 353.936 74.1576 353.887 74.1523C353.837 74.1471 353.784 74.1445 353.727 74.1445C353.523 74.1445 353.345 74.1823 353.191 74.2578C353.04 74.3307 352.913 74.4336 352.809 74.5664C352.704 74.6966 352.625 74.8503 352.57 75.0273C352.516 75.2018 352.484 75.3893 352.477 75.5898L352.305 75.6562C352.305 75.3802 352.333 75.1237 352.391 74.8867C352.448 74.6497 352.535 74.4427 352.652 74.2656C352.772 74.0859 352.922 73.9466 353.102 73.8477C353.284 73.7461 353.497 73.6953 353.742 73.6953C353.802 73.6953 353.861 73.7005 353.918 73.7109C353.978 73.7188 354.022 73.7292 354.051 73.7422ZM357.316 76.9219C357.316 76.8073 357.288 76.694 357.23 76.582C357.173 76.4701 357.062 76.3672 356.898 76.2734C356.737 76.1797 356.499 76.1003 356.184 76.0352C355.949 75.9831 355.74 75.9245 355.555 75.8594C355.372 75.7943 355.219 75.7161 355.094 75.625C354.969 75.5339 354.874 75.4245 354.809 75.2969C354.743 75.1693 354.711 75.0182 354.711 74.8438C354.711 74.6875 354.745 74.5404 354.812 74.4023C354.883 74.2617 354.982 74.1393 355.109 74.0352C355.24 73.9284 355.396 73.8451 355.578 73.7852C355.763 73.7253 355.97 73.6953 356.199 73.6953C356.525 73.6953 356.803 73.7513 357.035 73.8633C357.27 73.9727 357.448 74.1224 357.57 74.3125C357.695 74.5026 357.758 74.7174 357.758 74.957H357.293C357.293 74.8112 357.25 74.6732 357.164 74.543C357.081 74.4128 356.957 74.306 356.793 74.2227C356.632 74.1393 356.434 74.0977 356.199 74.0977C355.957 74.0977 355.76 74.1341 355.609 74.207C355.458 74.2799 355.348 74.3724 355.277 74.4844C355.21 74.5964 355.176 74.7122 355.176 74.832C355.176 74.9258 355.19 75.0117 355.219 75.0898C355.25 75.1654 355.305 75.2357 355.383 75.3008C355.464 75.3659 355.578 75.4271 355.727 75.4844C355.875 75.5417 356.068 75.5977 356.305 75.6523C356.646 75.7279 356.924 75.8203 357.141 75.9297C357.359 76.0365 357.521 76.1693 357.625 76.3281C357.729 76.4844 357.781 76.6745 357.781 76.8984C357.781 77.0729 357.745 77.2331 357.672 77.3789C357.599 77.5221 357.493 77.6458 357.355 77.75C357.22 77.8542 357.056 77.9349 356.863 77.9922C356.673 78.0495 356.46 78.0781 356.223 78.0781C355.866 78.0781 355.564 78.0195 355.316 77.9023C355.072 77.7826 354.885 77.6263 354.758 77.4336C354.633 77.2383 354.57 77.0312 354.57 76.8125H355.035C355.051 77.0312 355.12 77.2044 355.242 77.332C355.365 77.457 355.514 77.5456 355.691 77.5977C355.871 77.6497 356.048 77.6758 356.223 77.6758C356.462 77.6758 356.663 77.6406 356.824 77.5703C356.986 77.5 357.108 77.4076 357.191 77.293C357.275 77.1784 357.316 77.0547 357.316 76.9219ZM360.473 78.0781C360.197 78.0781 359.943 78.0273 359.711 77.9258C359.482 77.8242 359.281 77.681 359.109 77.4961C358.94 77.3112 358.809 77.0924 358.715 76.8398C358.624 76.5846 358.578 76.306 358.578 76.0039V75.8359C358.578 75.5104 358.626 75.2161 358.723 74.9531C358.819 74.6901 358.952 74.4648 359.121 74.2773C359.29 74.0898 359.483 73.9466 359.699 73.8477C359.918 73.7461 360.147 73.6953 360.387 73.6953C360.655 73.6953 360.893 73.7435 361.102 73.8398C361.31 73.9336 361.484 74.0677 361.625 74.2422C361.768 74.4141 361.876 74.6185 361.949 74.8555C362.022 75.0898 362.059 75.349 362.059 75.6328V75.918H358.859V75.5195H361.594V75.4648C361.589 75.2279 361.54 75.0065 361.449 74.8008C361.361 74.5924 361.228 74.4232 361.051 74.293C360.874 74.1628 360.652 74.0977 360.387 74.0977C360.189 74.0977 360.007 74.1393 359.84 74.2227C359.676 74.306 359.534 74.4258 359.414 74.582C359.297 74.7357 359.206 74.9193 359.141 75.1328C359.078 75.3438 359.047 75.5781 359.047 75.8359V76.0039C359.047 76.2383 359.081 76.457 359.148 76.6602C359.219 76.8607 359.318 77.0378 359.445 77.1914C359.576 77.3451 359.729 77.4648 359.906 77.5508C360.083 77.6367 360.279 77.6797 360.492 77.6797C360.742 77.6797 360.964 77.6341 361.156 77.543C361.349 77.4492 361.522 77.3021 361.676 77.1016L361.969 77.3281C361.878 77.4635 361.763 77.5885 361.625 77.7031C361.49 77.8177 361.327 77.9089 361.137 77.9766C360.947 78.0443 360.725 78.0781 360.473 78.0781ZM364.578 73.7734V74.1562H362.461V73.7734H364.578ZM363.238 72.6875H363.703V76.9727C363.703 77.168 363.729 77.3151 363.781 77.4141C363.833 77.513 363.901 77.5794 363.984 77.6133C364.068 77.6471 364.158 77.6641 364.254 77.6641C364.324 77.6641 364.392 77.6602 364.457 77.6523C364.522 77.6419 364.581 77.6315 364.633 77.6211L364.652 78.0156C364.595 78.0339 364.521 78.0482 364.43 78.0586C364.339 78.0716 364.247 78.0781 364.156 78.0781C363.977 78.0781 363.818 78.0456 363.68 77.9805C363.542 77.9128 363.434 77.7982 363.355 77.6367C363.277 77.4727 363.238 77.25 363.238 76.9688V72.6875ZM366.008 77.2617V77.8086C366.008 78.0482 365.958 78.2786 365.859 78.5C365.76 78.724 365.626 78.9128 365.457 79.0664L365.184 78.8633C365.264 78.7539 365.332 78.6445 365.387 78.5352C365.441 78.4284 365.482 78.3164 365.508 78.1992C365.536 78.082 365.551 77.9557 365.551 77.8203V77.2617H366.008ZM370.91 72.3125V78H370.434V72.3125H370.91ZM372.859 72.3125V72.7266H368.488V72.3125H372.859ZM375.34 72.6523L373.371 78H372.871L375.02 72.3125H375.367L375.34 72.6523ZM377.129 78L375.156 72.6523L375.129 72.3125H375.477L377.629 78H377.129ZM376.777 75.9922V76.4062H373.758V75.9922H376.777ZM378.93 77.6328H379.031C379.445 77.6328 379.792 77.5729 380.07 77.4531C380.349 77.3307 380.572 77.1628 380.738 76.9492C380.908 76.7331 381.029 76.4805 381.102 76.1914C381.174 75.9023 381.211 75.5885 381.211 75.25V74.457C381.211 74.1576 381.178 73.8945 381.113 73.668C381.048 73.4414 380.956 73.2526 380.836 73.1016C380.716 72.9479 380.574 72.832 380.41 72.7539C380.249 72.6758 380.069 72.6367 379.871 72.6367C379.676 72.6367 379.499 72.6784 379.34 72.7617C379.184 72.8451 379.051 72.9609 378.941 73.1094C378.835 73.2552 378.751 73.4232 378.691 73.6133C378.634 73.8008 378.605 74 378.605 74.2109C378.605 74.4036 378.632 74.5911 378.684 74.7734C378.738 74.9531 378.818 75.1159 378.922 75.2617C379.026 75.4049 379.154 75.5195 379.305 75.6055C379.458 75.6888 379.635 75.7305 379.836 75.7305C380.062 75.7305 380.263 75.6875 380.438 75.6016C380.615 75.5156 380.764 75.4049 380.887 75.2695C381.012 75.1315 381.107 74.9831 381.172 74.8242C381.24 74.6628 381.276 74.5065 381.281 74.3555L381.516 74.3516C381.516 74.5885 381.471 74.8151 381.383 75.0312C381.297 75.2448 381.174 75.4349 381.016 75.6016C380.859 75.7656 380.676 75.8958 380.465 75.9922C380.254 76.0885 380.026 76.1367 379.781 76.1367C379.516 76.1367 379.28 76.0846 379.074 75.9805C378.871 75.8737 378.701 75.7305 378.562 75.5508C378.427 75.3685 378.324 75.1641 378.254 74.9375C378.184 74.7109 378.148 74.4753 378.148 74.2305C378.148 73.957 378.186 73.7005 378.262 73.4609C378.34 73.2188 378.453 73.0065 378.602 72.8242C378.75 72.6393 378.93 72.4948 379.141 72.3906C379.354 72.2865 379.595 72.2344 379.863 72.2344C380.168 72.2344 380.434 72.2904 380.66 72.4023C380.887 72.5117 381.074 72.668 381.223 72.8711C381.374 73.0742 381.486 73.3138 381.559 73.5898C381.634 73.8659 381.672 74.1706 381.672 74.5039V74.9531C381.672 75.2891 381.646 75.6107 381.594 75.918C381.542 76.2253 381.454 76.5091 381.332 76.7695C381.212 77.0273 381.051 77.2513 380.848 77.4414C380.645 77.6315 380.393 77.7799 380.094 77.8867C379.794 77.9909 379.44 78.043 379.031 78.043H378.926L378.93 77.6328ZM385.719 74.8984H386.195C386.487 74.8984 386.73 74.849 386.926 74.75C387.124 74.6484 387.272 74.5143 387.371 74.3477C387.473 74.181 387.523 73.9961 387.523 73.793C387.523 73.5638 387.48 73.3633 387.395 73.1914C387.309 73.0169 387.177 72.8815 387 72.7852C386.826 72.6862 386.602 72.6367 386.328 72.6367C386.089 72.6367 385.875 72.6836 385.688 72.7773C385.5 72.8711 385.352 73.0052 385.242 73.1797C385.133 73.3542 385.078 73.5625 385.078 73.8047H384.613C384.613 73.4948 384.688 73.2227 384.836 72.9883C384.984 72.7513 385.189 72.5664 385.449 72.4336C385.71 72.3008 386.003 72.2344 386.328 72.2344C386.664 72.2344 386.956 72.2956 387.203 72.418C387.453 72.5404 387.646 72.7188 387.781 72.9531C387.919 73.1875 387.988 73.4727 387.988 73.8086C387.988 73.9805 387.951 74.1497 387.875 74.3164C387.802 74.4831 387.693 74.6341 387.547 74.7695C387.401 74.9023 387.22 75.0091 387.004 75.0898C386.788 75.1706 386.536 75.2109 386.25 75.2109H385.719V74.8984ZM385.719 75.3008V74.9922H386.25C386.576 74.9922 386.854 75.0299 387.086 75.1055C387.318 75.1784 387.508 75.2826 387.656 75.418C387.807 75.5508 387.918 75.7057 387.988 75.8828C388.059 76.0599 388.094 76.25 388.094 76.4531C388.094 76.7135 388.051 76.944 387.965 77.1445C387.879 77.3451 387.757 77.5156 387.598 77.6562C387.441 77.7943 387.257 77.8997 387.043 77.9727C386.832 78.043 386.6 78.0781 386.348 78.0781C386.118 78.0781 385.895 78.0443 385.676 77.9766C385.46 77.9089 385.264 77.8086 385.09 77.6758C384.918 77.5404 384.781 77.3711 384.68 77.168C384.578 76.9622 384.527 76.7253 384.527 76.457H384.992C384.992 76.6966 385.049 76.9089 385.164 77.0938C385.279 77.276 385.438 77.4193 385.641 77.5234C385.846 77.625 386.082 77.6758 386.348 77.6758C386.616 77.6758 386.845 77.6302 387.035 77.5391C387.228 77.4453 387.375 77.3086 387.477 77.1289C387.578 76.9492 387.629 76.7292 387.629 76.4688C387.629 76.1953 387.568 75.9727 387.445 75.8008C387.326 75.6289 387.158 75.5026 386.941 75.4219C386.728 75.3411 386.479 75.3008 386.195 75.3008H385.719ZM392.113 77.5508L393.414 78.6914L393.086 78.9961L391.793 77.8672L392.113 77.5508ZM393.484 74.8516V75.4609C393.484 75.8594 393.432 76.2201 393.328 76.543C393.224 76.8633 393.076 77.138 392.883 77.3672C392.69 77.5964 392.457 77.7721 392.184 77.8945C391.913 78.0169 391.609 78.0781 391.273 78.0781C390.943 78.0781 390.641 78.0169 390.367 77.8945C390.096 77.7721 389.862 77.5964 389.664 77.3672C389.469 77.138 389.318 76.8633 389.211 76.543C389.107 76.2201 389.055 75.8594 389.055 75.4609V74.8516C389.055 74.4531 389.107 74.0938 389.211 73.7734C389.318 73.4505 389.469 73.1745 389.664 72.9453C389.859 72.7161 390.092 72.5404 390.363 72.418C390.634 72.2956 390.935 72.2344 391.266 72.2344C391.602 72.2344 391.905 72.2956 392.176 72.418C392.449 72.5404 392.684 72.7161 392.879 72.9453C393.074 73.1745 393.224 73.4505 393.328 73.7734C393.432 74.0938 393.484 74.4531 393.484 74.8516ZM393.008 75.4609V74.8438C393.008 74.5078 392.969 74.2057 392.891 73.9375C392.812 73.6693 392.698 73.4401 392.547 73.25C392.398 73.0599 392.216 72.9141 392 72.8125C391.786 72.7109 391.542 72.6602 391.266 72.6602C390.997 72.6602 390.757 72.7109 390.543 72.8125C390.329 72.9141 390.147 73.0599 389.996 73.25C389.845 73.4401 389.729 73.6693 389.648 73.9375C389.57 74.2057 389.531 74.5078 389.531 74.8438V75.4609C389.531 75.7995 389.572 76.1042 389.652 76.375C389.733 76.6432 389.849 76.8737 390 77.0664C390.151 77.2565 390.333 77.4023 390.547 77.5039C390.763 77.6055 391.005 77.6562 391.273 77.6562C391.549 77.6562 391.794 77.6055 392.008 77.5039C392.224 77.4023 392.406 77.2565 392.555 77.0664C392.703 76.8737 392.815 76.6432 392.891 76.375C392.969 76.1042 393.008 75.7995 393.008 75.4609ZM394.84 72.3125L396.441 74.7148L398.047 72.3125H398.617L396.734 75.1133L398.676 78H398.102L396.441 75.5195L394.781 78H394.211L396.152 75.1133L394.27 72.3125H394.84Z" fill="black"/>
</svg>
